SplineFontDB: 3.0
FontName: Vazir
FullName: Vazir
FamilyName: Vazir
Weight: Regular
Copyright: Copyright (c) 2003 by Bitstream, Inc. All Rights Reserved.\nDejaVu changes are in public domain\nChanges by Saber Rastikerdar are in public domain.\nNon-Arabic(Latin) glyphs and data are imported from Roboto font under the Apache License, Version 2.0.
Version: 4.2.1
ItalicAngle: 0
UnderlinePosition: -100
UnderlineWidth: 100
Ascent: 1638
Descent: 410
InvalidEm: 0
LayerCount: 2
Layer: 0 1 "Back" 1
Layer: 1 1 "Fore" 0
XUID: [1021 502 1027637223 15828163]
UniqueID: 4072388
UseUniqueID: 1
FSType: 0
OS2Version: 1
OS2_WeightWidthSlopeOnly: 0
OS2_UseTypoMetrics: 1
CreationTime: 1431850356
ModificationTime: 1476486856
PfmFamily: 33
TTFWeight: 400
TTFWidth: 5
LineGap: 0
VLineGap: 0
Panose: 2 11 6 3 3 8 4 2 2 4
OS2TypoAscent: 2250
OS2TypoAOffset: 0
OS2TypoDescent: -1200
OS2TypoDOffset: 0
OS2TypoLinegap: 0
OS2WinAscent: 2250
OS2WinAOffset: 0
OS2WinDescent: 1200
OS2WinDOffset: 0
HheadAscent: 2250
HheadAOffset: 0
HheadDescent: -1200
HheadDOffset: 0
OS2SubXSize: 1331
OS2SubYSize: 1433
OS2SubXOff: 0
OS2SubYOff: 286
OS2SupXSize: 1331
OS2SupYSize: 1433
OS2SupXOff: 0
OS2SupYOff: 983
OS2StrikeYSize: 102
OS2StrikeYPos: 530
OS2Vendor: 'PfEd'
OS2CodePages: 00000041.20080000
OS2UnicodeRanges: 80002003.80000000.00000008.00000000
Lookup: 1 9 0 "'fina' Terminal Forms in Arabic lookup 9" { "'fina' Terminal Forms in Arabic lookup 9 subtable"  } ['fina' ('arab' <'KUR ' 'SND ' 'URD ' 'dflt' > ) ]
Lookup: 1 9 0 "'medi' Medial Forms in Arabic lookup 11" { "'medi' Medial Forms in Arabic lookup 11 subtable"  } ['medi' ('arab' <'KUR ' 'SND ' 'URD ' 'dflt' > ) ]
Lookup: 1 9 0 "'init' Initial Forms in Arabic lookup 13" { "'init' Initial Forms in Arabic lookup 13 subtable"  } ['init' ('arab' <'KUR ' 'SND ' 'URD ' 'dflt' > ) ]
Lookup: 4 1 1 "'rlig' Required Ligatures in Arabic lookup 14" { "'rlig' Required Ligatures in Arabic lookup 14 subtable"  } ['rlig' ('arab' <'KUR ' 'dflt' > ) ]

StartChar: exclam
Encoding: 33 33 1
Width: 602
VWidth: 2351
GlyphClass: 2
Flags: W
LayerCount: 2
Fore
SplineSet
167.5 135.337890625 m 0,0,1
 167.5 190.962890625 167.5 190.962890625 207.549804688 229.900390625 c 0,2,3
 246.487304688 268.837890625 246.487304688 268.837890625 301 269.950195312 c 0,4,5
 356.625 269.950195312 356.625 269.950195312 395.5625 229.900390625 c 0,6,7
 434.5 190.962890625 434.5 190.962890625 434.5 135.337890625 c 128,-1,8
 434.5 79.712890625 434.5 79.712890625 395.5625 39.662109375 c 0,9,10
 356.625 0.724609375 356.625 0.724609375 301 0.724609375 c 0,11,12
 264.287109375 0.724609375 264.287109375 0.724609375 234.25 18.525390625 c 0,13,14
 203.099609375 36.3251953125 203.099609375 36.3251953125 186.412109375 67.474609375 c 0,15,16
 167.5 98.625 167.5 98.625 167.5 135.337890625 c 0,0,1
203.158203125 1487.32128906 m 5,17,-1
 404.166992188 1487.32128906 l 5,18,-1
 383.004882812 481.38671875 l 1,19,-1
 225.37890625 481.38671875 l 1,20,-1
 203.158203125 1487.32128906 l 5,17,-1
EndSplineSet
EndChar

StartChar: period
Encoding: 46 46 2
Width: 602
VWidth: 2351
GlyphClass: 2
Flags: W
LayerCount: 2
Fore
SplineSet
167.5 135.337890625 m 4,0,1
 167.5 190.962890625 167.5 190.962890625 207.549804688 229.900390625 c 4,2,3
 246.487304688 268.837890625 246.487304688 268.837890625 301 269.950195312 c 4,4,5
 356.625 269.950195312 356.625 269.950195312 395.5625 229.900390625 c 4,6,7
 434.5 190.962890625 434.5 190.962890625 434.5 135.337890625 c 132,-1,8
 434.5 79.712890625 434.5 79.712890625 395.5625 39.662109375 c 4,9,10
 356.625 0.724609375 356.625 0.724609375 301 0.724609375 c 4,11,12
 264.287109375 0.724609375 264.287109375 0.724609375 234.25 18.525390625 c 4,13,14
 203.099609375 36.3251953125 203.099609375 36.3251953125 186.412109375 67.474609375 c 4,15,16
 167.5 98.625 167.5 98.625 167.5 135.337890625 c 4,0,1
EndSplineSet
EndChar

StartChar: colon
Encoding: 58 58 3
Width: 601
VWidth: 2351
GlyphClass: 2
Flags: W
LayerCount: 2
Fore
SplineSet
167.5 845.337890625 m 0,0,1
 167.5 900.962890625 167.5 900.962890625 207.549804688 939.900390625 c 0,2,3
 246.487304688 978.837890625 246.487304688 978.837890625 301 979.950195312 c 0,4,5
 356.625 979.950195312 356.625 979.950195312 395.5625 939.900390625 c 0,6,7
 434.5 900.962890625 434.5 900.962890625 434.5 845.337890625 c 128,-1,8
 434.5 789.712890625 434.5 789.712890625 395.5625 749.662109375 c 0,9,10
 356.625 710.724609375 356.625 710.724609375 301 710.724609375 c 0,11,12
 264.287109375 710.724609375 264.287109375 710.724609375 234.25 728.525390625 c 0,13,14
 203.099609375 746.325195312 203.099609375 746.325195312 186.412109375 777.474609375 c 0,15,16
 167.5 808.625 167.5 808.625 167.5 845.337890625 c 0,0,1
167.5 135.337890625 m 0,17,18
 167.5 190.962890625 167.5 190.962890625 207.549804688 229.900390625 c 0,19,20
 246.487304688 268.837890625 246.487304688 268.837890625 301 269.950195312 c 0,21,22
 356.625 269.950195312 356.625 269.950195312 395.5625 229.900390625 c 0,23,24
 434.5 190.962890625 434.5 190.962890625 434.5 135.337890625 c 128,-1,25
 434.5 79.712890625 434.5 79.712890625 395.5625 39.662109375 c 0,26,27
 356.625 0.724609375 356.625 0.724609375 301 0.724609375 c 0,28,29
 264.287109375 0.724609375 264.287109375 0.724609375 234.25 18.525390625 c 0,30,31
 203.099609375 36.3251953125 203.099609375 36.3251953125 186.412109375 67.474609375 c 0,32,33
 167.5 98.625 167.5 98.625 167.5 135.337890625 c 0,17,18
EndSplineSet
EndChar

StartChar: afii57388
Encoding: 1548 1548 5
Width: 682
VWidth: 2358
GlyphClass: 2
Flags: W
LayerCount: 2
Fore
SplineSet
347.7734375 0.01953125 m 4,0,1
 217.196289062 2.1435546875 217.196289062 2.1435546875 200.41015625 119.314453125 c 4,2,3
 191 185 191 185 210.592773438 273.217773438 c 4,4,5
 254.819335938 494.841796875 254.819335938 494.841796875 441.241210938 633.518554688 c 5,6,-1
 499.15234375 597.49609375 l 5,7,8
 349 468 349 468 335.248046875 271.416992188 c 5,9,10
 436 273 436 273 472.266601562 227.84375 c 4,11,12
 509 183 509 183 501.96875 105.373046875 c 4,13,14
 491 -2 491 -2 347.7734375 0.01953125 c 4,0,1
EndSplineSet
EndChar

StartChar: uni0615
Encoding: 1557 1557 6
Width: -28
VWidth: 2417
GlyphClass: 4
Flags: W
AnchorPoint: "Anchor-10" 585.395 1450.31 mark 0
AnchorPoint: "Anchor-9" 585.395 1450.31 mark 0
AnchorPoint: "Anchor-1" 597.995 2182.63 basemark 0
AnchorPoint: "Anchor-1" 585.395 1450.31 mark 0
LayerCount: 2
Fore
SplineSet
494.01171875 1603.07714844 m 1,0,-1
 602.741210938 1603.07714844 l 2,1,2
 693.794921875 1603.07714844 693.794921875 1603.07714844 751.09765625 1637.35009766 c 128,-1,3
 808.400390625 1671.62304688 808.400390625 1671.62304688 808.400390625 1711.10742188 c 128,-1,4
 808.400390625 1750.59179688 808.400390625 1750.59179688 782.1640625 1764.80273438 c 0,5,6
 690.48885131 1815.96866928 690.48885131 1815.96866928 494.01171875 1603.07714844 c 1,0,-1
887.03515625 1720.98046875 m 0,7,8
 887.34765625 1524.47753906 887.34765625 1524.47753906 630.028320312 1524.47753906 c 2,9,-1
 310.141601562 1524.47753906 l 1,10,-1
 310.141601562 1603.07714844 l 1,11,-1
 406.241210938 1603.07714844 l 1,12,-1
 406.241210938 2076.43164062 l 1,13,-1
 486.022460938 2075.43261719 l 1,14,-1
 485.189453125 1677.9453125 l 1,15,16
 670.331861654 1887.91070866 670.331861654 1887.91070866 803.60546875 1839.92382812 c 0,17,18
 887.344726562 1808.90917969 887.344726562 1808.90917969 887.03515625 1720.98046875 c 0,7,8
EndSplineSet
EndChar

StartChar: uni061B
Encoding: 1563 1563 7
Width: 682
VWidth: 2358
GlyphClass: 2
Flags: W
LayerCount: 2
Fore
SplineSet
219.5 135.337890625 m 0,0,1
 219.5 190.962890625 219.5 190.962890625 259.549804688 229.900390625 c 0,2,3
 298.487304688 268.837890625 298.487304688 268.837890625 353 269.950195312 c 0,4,5
 408.625 269.950195312 408.625 269.950195312 447.5625 229.900390625 c 0,6,7
 486.5 190.962890625 486.5 190.962890625 486.5 135.337890625 c 128,-1,8
 486.5 79.712890625 486.5 79.712890625 447.5625 39.662109375 c 0,9,10
 408.625 0.724609375 408.625 0.724609375 353 0.724609375 c 0,11,12
 316.287109375 0.724609375 316.287109375 0.724609375 286.25 18.525390625 c 0,13,14
 255.099609375 36.3251953125 255.099609375 36.3251953125 238.412109375 67.474609375 c 0,15,16
 219.5 98.625 219.5 98.625 219.5 135.337890625 c 0,0,1
347.7734375 480.01953125 m 0,17,18
 217.196289062 482.143554688 217.196289062 482.143554688 200.41015625 599.314453125 c 0,19,20
 191 665 191 665 210.592773438 753.217773438 c 0,21,22
 254.819335938 974.841796875 254.819335938 974.841796875 441.241210938 1113.51855469 c 1,23,-1
 499.15234375 1077.49609375 l 1,24,25
 349 948 349 948 335.248046875 751.416992188 c 1,26,27
 436 753 436 753 472.266601562 707.84375 c 0,28,29
 509 663 509 663 501.96875 585.373046875 c 0,30,31
 491 478 491 478 347.7734375 480.01953125 c 0,17,18
EndSplineSet
EndChar

StartChar: uni061F
Encoding: 1567 1567 8
Width: 1077
VWidth: 2351
GlyphClass: 2
Flags: W
LayerCount: 2
Fore
SplineSet
493.5 135.337890625 m 0,0,1
 493.5 190.962890625 493.5 190.962890625 533.549804688 229.900390625 c 0,2,3
 572.487304688 268.837890625 572.487304688 268.837890625 627 269.950195312 c 0,4,5
 682.625 269.950195312 682.625 269.950195312 721.5625 229.900390625 c 0,6,7
 760.5 190.962890625 760.5 190.962890625 760.5 135.337890625 c 128,-1,8
 760.5 79.712890625 760.5 79.712890625 721.5625 39.662109375 c 0,9,10
 682.625 0.724609375 682.625 0.724609375 627 0.724609375 c 0,11,12
 590.287109375 0.724609375 590.287109375 0.724609375 560.25 18.525390625 c 0,13,14
 529.099609375 36.3251953125 529.099609375 36.3251953125 512.412109375 67.474609375 c 0,15,16
 493.5 98.625 493.5 98.625 493.5 135.337890625 c 0,0,1
534.922851562 478.849609375 m 1,17,-1
 534.922851562 497.456054688 l 2,18,19
 535 533 535 533 510.404296875 578.677734375 c 132,-1,20
 485.807321936 624.35783069 485.807321936 624.35783069 417.157226562 691.447265625 c 6,21,-1
 321.70703125 784.727539062 l 6,22,23
 245 859 245 859 197 949.5 c 4,24,25
 158 1022 158 1022 158.879882812 1104.11914062 c 4,26,27
 159 1281 159 1281 272.5 1383 c 132,-1,28
 386 1485 386 1485 572.130859375 1486.15039062 c 4,29,30
 783 1487 783 1487 929.052734375 1360.2890625 c 5,31,-1
 862 1203.09277344 l 5,32,33
 734 1311 734 1311 580 1308.53222656 c 4,34,35
 487 1307 487 1307 424.416992188 1254.48828125 c 4,36,37
 350 1192 350 1192 350.041015625 1087.40527344 c 132,-1,38
 350 983 350 983 470.041992188 871.795898438 c 5,39,-1
 567.549804688 775.372070312 l 5,40,41
 722.924804688 627.071771438 722.924804688 627.071771438 722.924804688 499.58203125 c 2,42,-1
 722.924804688 478.849609375 l 1,43,-1
 534.922851562 478.849609375 l 1,17,-1
EndSplineSet
EndChar

StartChar: uni0621
Encoding: 1569 1569 9
Width: 888
VWidth: 2510
GlyphClass: 2
Flags: W
AnchorPoint: "Anchor-7" 333.895 -286.273 basechar 0
AnchorPoint: "Anchor-10" 362.147 1393.28 basechar 0
LayerCount: 2
Fore
SplineSet
136.95703125 4.349609375 m 1,0,-1
 136.95703125 170.4765625 l 1,1,-1
 411.251953125 268.857421875 l 1,2,-1
 376.490234375 275.243164062 l 2,3,4
 103.302734375 325.8671875 103.302734375 325.8671875 104.607421875 574.736328125 c 0,5,6
 105.59765625 762.736328125 105.59765625 762.736328125 270.17578125 852.263671875 c 128,-1,7
 434.560546875 941.684570312 434.560546875 941.684570312 667.012695312 876.828125 c 1,8,-1
 667.012695312 724.02734375 l 1,9,10
 371.202148438 781.833007812 371.202148438 781.833007812 287.166015625 664.915039062 c 0,11,12
 273.556640625 645.981445312 273.556640625 645.981445312 266.692382812 623.140625 c 128,-1,13
 259.829101562 600.299804688 259.829101562 600.299804688 259.697265625 573.591796875 c 0,14,15
 260.220703125 425.228515625 260.220703125 425.228515625 465.930664062 384.74609375 c 0,16,17
 555.197265625 367.283203125 555.197265625 367.283203125 634.758789062 377.439453125 c 128,-1,18
 714.3203125 387.594726562 714.3203125 387.594726562 784.282226562 425.236328125 c 1,19,-1
 784.282226562 253.719726562 l 1,20,-1
 136.95703125 4.349609375 l 1,0,-1
EndSplineSet
EndChar

StartChar: uni0627
Encoding: 1575 1575 15
Width: 494
VWidth: 2510
GlyphClass: 2
Flags: W
AnchorPoint: "Anchor-10" 246.259 1655.01 basechar 0
AnchorPoint: "Anchor-7" 249.719 -282.178 basechar 0
LayerCount: 2
Fore
SplineSet
169.936523438 1473.39160156 m 1,0,-1
 343.338867188 1473.39160156 l 5,1,-1
 343.338867188 0.6376953125 l 1,2,-1
 169.936523438 0.6376953125 l 1,3,-1
 169.936523438 1473.39160156 l 1,0,-1
EndSplineSet
Substitution2: "'fina' Terminal Forms in Arabic lookup 9 subtable" uniFE8E
EndChar

StartChar: uni062D
Encoding: 1581 1581 21
Width: 1351
VWidth: 2510
GlyphClass: 2
Flags: W
AnchorPoint: "Anchor-10" 500.733 1318.7 basechar 0
AnchorPoint: "Anchor-7" 431.936 -802.31 basechar 0
LayerCount: 2
Fore
SplineSet
1243.34765625 672.334960938 m 5,0,-1
 1236.24121094 483.584960938 l 5,1,2
 1106 489 1106 489 908.682617188 458.912109375 c 4,3,4
 578 409 578 409 416.795898438 251.942382812 c 4,5,6
 280 119 280 119 279.740234375 -69.212890625 c 4,7,8
 279 -441 279 -441 824.987304688 -439.571289062 c 4,9,10
 1032 -439 1032 -439 1202.52539062 -382.870117188 c 5,11,-1
 1246.35058594 -542.626953125 l 5,12,13
 1076 -610 1076 -610 821.807617188 -609.55078125 c 4,14,15
 103 -607 103 -607 104.8984375 -58.83203125 c 4,16,17
 106 204 106 204 322.354492188 395.315429688 c 4,18,19
 521 571 521 571 851.888671875 607.4765625 c 5,20,21
 585 728 585 728 481 727 c 4,22,23
 333 725 333 725 189.366210938 566.23828125 c 5,24,-1
 59.642578125 660.540039062 l 5,25,-1
 80.9580078125 689.200195312 l 6,26,27
 246 911 246 911 492.6953125 909.120117188 c 4,28,29
 598 908 598 908 825.958007812 808.200195312 c 4,30,31
 1109 683 1109 683 1243.34765625 672.334960938 c 5,0,-1
EndSplineSet
Substitution2: "'fina' Terminal Forms in Arabic lookup 9 subtable" uniFEA2
Substitution2: "'medi' Medial Forms in Arabic lookup 11 subtable" uniFEA4
Substitution2: "'init' Initial Forms in Arabic lookup 13 subtable" uniFEA3
EndChar

StartChar: uni062F
Encoding: 1583 1583 23
Width: 1022
VWidth: 2510
GlyphClass: 2
Flags: W
AnchorPoint: "Anchor-10" 317.388 1279.13 basechar 0
AnchorPoint: "Anchor-7" 369.188 -295.499 basechar 0
LayerCount: 2
Fore
SplineSet
104.544921875 211.442382812 m 1,0,1
 247 189 247 189 390.868164062 188.51953125 c 0,2,3
 741 189 741 189 740.890625 335.860351562 c 0,4,5
 741 397 741 397 684.422851562 480.084960938 c 0,6,7
 575 644 575 644 338.974609375 811.6796875 c 1,8,-1
 441.567382812 962.516601562 l 1,9,10
 912 619 912 619 914 338 c 0,11,12
 915 237 915 237 863.108242067 160 c 0,13,14
 757 2 757 2 403.916992188 1.9189453125 c 4,15,16
 216 2 216 2 104.544921875 23.44140625 c 1,17,-1
 104.544921875 211.442382812 l 1,0,1
EndSplineSet
Substitution2: "'fina' Terminal Forms in Arabic lookup 9 subtable" uniFEAA
EndChar

StartChar: uni0631
Encoding: 1585 1585 25
Width: 825
VWidth: 2510
GlyphClass: 2
Flags: W
AnchorPoint: "Anchor-10" 471.802 1061.76 basechar 0
AnchorPoint: "Anchor-7" 275.768 -750.082 basechar 0
LayerCount: 2
Fore
SplineSet
445 504 m 1,0,-1
 606.032226562 583.5546875 l 1,1,2
 730 363 730 363 728.385742188 123 c 0,3,4
 727 -79 727 -79 633 -218.09375 c 0,5,6
 463 -469 463 -469 32.9453125 -507.075195312 c 1,7,-1
 2.46484375 -337.939453125 l 1,8,9
 360 -307 360 -307 503 -105 c 0,10,11
 562 -21 562 -21 559.825195312 122 c 0,12,13
 557 313 557 313 445 504 c 1,0,-1
EndSplineSet
PairPos2: "'kern' Horizontal Kerning lookup 15-1" uniFEE7 dx=-150 dy=0 dh=-150 dv=0 dx=0 dy=0 dh=0 dv=0
PairPos2: "'kern' Horizontal Kerning lookup 15-2" uniFB90 dx=-190 dy=0 dh=-190 dv=0 dx=0 dy=0 dh=0 dv=0
PairPos2: "'kern' Horizontal Kerning lookup 15-2" uniFB8E dx=-190 dy=0 dh=-190 dv=0 dx=0 dy=0 dh=0 dv=0
PairPos2: "'kern' Horizontal Kerning lookup 15-2" uni06A9 dx=-190 dy=0 dh=-190 dv=0 dx=0 dy=0 dh=0 dv=0
PairPos2: "'kern' Horizontal Kerning lookup 15-2" uni064A dx=-50 dy=0 dh=-50 dv=0 dx=0 dy=0 dh=0 dv=0
PairPos2: "'kern' Horizontal Kerning lookup 15-2" afii57414 dx=-50 dy=0 dh=-50 dv=0 dx=0 dy=0 dh=0 dv=0
PairPos2: "'kern' Horizontal Kerning lookup 15-2" uni0649 dx=-50 dy=0 dh=-50 dv=0 dx=0 dy=0 dh=0 dv=0
PairPos2: "'kern' Horizontal Kerning lookup 15-2" uniFEEB dx=-150 dy=0 dh=-150 dv=0 dx=0 dy=0 dh=0 dv=0
PairPos2: "'kern' Horizontal Kerning lookup 15-2" uni0647 dx=-150 dy=0 dh=-150 dv=0 dx=0 dy=0 dh=0 dv=0
PairPos2: "'kern' Horizontal Kerning lookup 15-2" uni0646 dx=-50 dy=0 dh=-50 dv=0 dx=0 dy=0 dh=0 dv=0
PairPos2: "'kern' Horizontal Kerning lookup 15-2" uniFEE3 dx=-150 dy=0 dh=-150 dv=0 dx=0 dy=0 dh=0 dv=0
PairPos2: "'kern' Horizontal Kerning lookup 15-2" uni0645 dx=-150 dy=0 dh=-150 dv=0 dx=0 dy=0 dh=0 dv=0
PairPos2: "'kern' Horizontal Kerning lookup 15-2" uniFEFB dx=-120 dy=0 dh=-120 dv=0 dx=0 dy=0 dh=0 dv=0
PairPos2: "'kern' Horizontal Kerning lookup 15-2" uniFEDF dx=-120 dy=0 dh=-120 dv=0 dx=0 dy=0 dh=0 dv=0
PairPos2: "'kern' Horizontal Kerning lookup 15-2" uni0644 dx=-50 dy=0 dh=-50 dv=0 dx=0 dy=0 dh=0 dv=0
PairPos2: "'kern' Horizontal Kerning lookup 15-2" uniFEDB dx=-190 dy=0 dh=-190 dv=0 dx=0 dy=0 dh=0 dv=0
PairPos2: "'kern' Horizontal Kerning lookup 15-2" uni0643 dx=-120 dy=0 dh=-120 dv=0 dx=0 dy=0 dh=0 dv=0
PairPos2: "'kern' Horizontal Kerning lookup 15-2" uniFED7 dx=-150 dy=0 dh=-150 dv=0 dx=0 dy=0 dh=0 dv=0
PairPos2: "'kern' Horizontal Kerning lookup 15-2" uni0642 dx=-50 dy=0 dh=-50 dv=0 dx=0 dy=0 dh=0 dv=0
PairPos2: "'kern' Horizontal Kerning lookup 15-2" uniFED3 dx=-150 dy=0 dh=-150 dv=0 dx=0 dy=0 dh=0 dv=0
PairPos2: "'kern' Horizontal Kerning lookup 15-2" uni0641 dx=-150 dy=0 dh=-150 dv=0 dx=0 dy=0 dh=0 dv=0
PairPos2: "'kern' Horizontal Kerning lookup 15-2" uniFECF dx=-150 dy=0 dh=-150 dv=0 dx=0 dy=0 dh=0 dv=0
PairPos2: "'kern' Horizontal Kerning lookup 15-2" uniFECB dx=-150 dy=0 dh=-150 dv=0 dx=0 dy=0 dh=0 dv=0
PairPos2: "'kern' Horizontal Kerning lookup 15-2" uniFEC7 dx=-150 dy=0 dh=-150 dv=0 dx=0 dy=0 dh=0 dv=0
PairPos2: "'kern' Horizontal Kerning lookup 15-2" uni0638 dx=-150 dy=0 dh=-150 dv=0 dx=0 dy=0 dh=0 dv=0
PairPos2: "'kern' Horizontal Kerning lookup 15-2" uniFEC3 dx=-150 dy=0 dh=-150 dv=0 dx=0 dy=0 dh=0 dv=0
PairPos2: "'kern' Horizontal Kerning lookup 15-2" uni0637 dx=-150 dy=0 dh=-150 dv=0 dx=0 dy=0 dh=0 dv=0
PairPos2: "'kern' Horizontal Kerning lookup 15-2" uniFEBF dx=-150 dy=0 dh=-150 dv=0 dx=0 dy=0 dh=0 dv=0
PairPos2: "'kern' Horizontal Kerning lookup 15-2" uni0636 dx=-150 dy=0 dh=-150 dv=0 dx=0 dy=0 dh=0 dv=0
PairPos2: "'kern' Horizontal Kerning lookup 15-2" uniFEBB dx=-150 dy=0 dh=-150 dv=0 dx=0 dy=0 dh=0 dv=0
PairPos2: "'kern' Horizontal Kerning lookup 15-2" uni0635 dx=-150 dy=0 dh=-150 dv=0 dx=0 dy=0 dh=0 dv=0
PairPos2: "'kern' Horizontal Kerning lookup 15-2" uniFEB7 dx=-150 dy=0 dh=-150 dv=0 dx=0 dy=0 dh=0 dv=0
PairPos2: "'kern' Horizontal Kerning lookup 15-2" uni0634 dx=-150 dy=0 dh=-150 dv=0 dx=0 dy=0 dh=0 dv=0
PairPos2: "'kern' Horizontal Kerning lookup 15-2" uniFEB3 dx=-150 dy=0 dh=-150 dv=0 dx=0 dy=0 dh=0 dv=0
PairPos2: "'kern' Horizontal Kerning lookup 15-2" uni0633 dx=-150 dy=0 dh=-150 dv=0 dx=0 dy=0 dh=0 dv=0
PairPos2: "'kern' Horizontal Kerning lookup 15-2" uni0630 dx=-150 dy=0 dh=-150 dv=0 dx=0 dy=0 dh=0 dv=0
PairPos2: "'kern' Horizontal Kerning lookup 15-2" uni062F dx=-150 dy=0 dh=-150 dv=0 dx=0 dy=0 dh=0 dv=0
PairPos2: "'kern' Horizontal Kerning lookup 15-2" uniFEA7 dx=-150 dy=0 dh=-150 dv=0 dx=0 dy=0 dh=0 dv=0
PairPos2: "'kern' Horizontal Kerning lookup 15-2" uniFEA3 dx=-150 dy=0 dh=-150 dv=0 dx=0 dy=0 dh=0 dv=0
PairPos2: "'kern' Horizontal Kerning lookup 15-2" uniFE9F dx=-150 dy=0 dh=-150 dv=0 dx=0 dy=0 dh=0 dv=0
PairPos2: "'kern' Horizontal Kerning lookup 15-2" uniFE9B dx=-150 dy=0 dh=-150 dv=0 dx=0 dy=0 dh=0 dv=0
PairPos2: "'kern' Horizontal Kerning lookup 15-2" uni062B dx=-150 dy=0 dh=-150 dv=0 dx=0 dy=0 dh=0 dv=0
PairPos2: "'kern' Horizontal Kerning lookup 15-2" uniFE97 dx=-150 dy=0 dh=-150 dv=0 dx=0 dy=0 dh=0 dv=0
PairPos2: "'kern' Horizontal Kerning lookup 15-2" uni062A dx=-150 dy=0 dh=-150 dv=0 dx=0 dy=0 dh=0 dv=0
PairPos2: "'kern' Horizontal Kerning lookup 15-2" uni0629 dx=-150 dy=0 dh=-150 dv=0 dx=0 dy=0 dh=0 dv=0
PairPos2: "'kern' Horizontal Kerning lookup 15-2" uniFE91 dx=-50 dy=0 dh=-50 dv=0 dx=0 dy=0 dh=0 dv=0
PairPos2: "'kern' Horizontal Kerning lookup 15-2" uni0628 dx=-150 dy=0 dh=-150 dv=0 dx=0 dy=0 dh=0 dv=0
PairPos2: "'kern' Horizontal Kerning lookup 15-2" uni0627 dx=-120 dy=0 dh=-120 dv=0 dx=0 dy=0 dh=0 dv=0
PairPos2: "'kern' Horizontal Kerning lookup 15-2" uni0623 dx=-120 dy=0 dh=-120 dv=0 dx=0 dy=0 dh=0 dv=0
PairPos2: "'kern' Horizontal Kerning lookup 15-2" uni0622 dx=-120 dy=0 dh=-120 dv=0 dx=0 dy=0 dh=0 dv=0
PairPos2: "'kern' Horizontal Kerning lookup 15-2" uni0621 dx=-150 dy=0 dh=-150 dv=0 dx=0 dy=0 dh=0 dv=0
PairPos2: "'kern' Horizontal Kerning lookup 15-2" uniFB94 dx=-190 dy=0 dh=-190 dv=0 dx=0 dy=0 dh=0 dv=0
PairPos2: "'kern' Horizontal Kerning lookup 15-2" uniFB92 dx=-190 dy=0 dh=-190 dv=0 dx=0 dy=0 dh=0 dv=0
PairPos2: "'kern' Horizontal Kerning lookup 15-2" afii57509 dx=-190 dy=0 dh=-190 dv=0 dx=0 dy=0 dh=0 dv=0
PairPos2: "'kern' Horizontal Kerning lookup 15-2" afii57506 dx=-150 dy=0 dh=-150 dv=0 dx=0 dy=0 dh=0 dv=0
PairPos2: "'kern' Horizontal Kerning lookup 15-2" afii57440 dx=-150 dy=0 dh=-150 dv=0 dx=0 dy=0 dh=0 dv=0
PairPos2: "'kern' Horizontal Kerning lookup 15-2" uniFE8B dx=-150 dy=0 dh=-150 dv=0 dx=0 dy=0 dh=0 dv=0
Substitution2: "'fina' Terminal Forms in Arabic lookup 9 subtable" uniFEAE
EndChar

StartChar: uni0633
Encoding: 1587 1587 27
Width: 2451
VWidth: 2510
GlyphClass: 2
Flags: W
AnchorPoint: "Anchor-10" 611.535 972.391 basechar 0
AnchorPoint: "Anchor-7" 373.994 -773.742 basechar 0
LayerCount: 2
Fore
SplineSet
1341.61035156 63.21875 m 1,0,1
 1341 -82 1341 -82 1282.30078125 -201.794921875 c 0,2,3
 1131.94980959 -505.118694101 1131.94980959 -505.118694101 717.75 -503.880859375 c 0,4,5
 423 -503 423 -503 263.57421875 -360.970703125 c 0,6,7
 92 -208 92 -208 99.544921875 68 c 0,8,9
 106 308 106 308 214.888671875 501.734375 c 1,10,-1
 375.232421875 455.000976562 l 1,11,12
 274 259 274 259 275.689453125 61 c 0,13,14
 277 -128 277 -128 388.801757812 -224.43359375 c 0,15,16
 511 -330 511 -330 728 -329.329101562 c 0,17,18
 1173 -328 1173 -328 1170.79394531 93 c 0,19,20
 1170 254 1170 254 1076.51660156 516.947265625 c 1,21,-1
 1238.6484375 573.592773438 l 1,22,-1
 1318.45898438 327.78125 l 2,23,24
 1363 190 1363 190 1517.89648438 187.6015625 c 0,25,26
 1648.21410166 184.995718803 1648.21410166 184.995718803 1664.68359375 352.439453125 c 6,27,-1
 1688.06445312 590.150390625 l 5,28,-1
 1822.484375 590.150390625 l 5,29,-1
 1844.55078125 351.805664062 l 6,30,31
 1860 186 1860 186 2018.13964844 187.35546875 c 16,32,33
 2092 188 2092 188 2137.74121094 261 c 0,34,35
 2180 327 2180 327 2169.78222656 487.404296875 c 0,36,37
 2160 645 2160 645 2133.11914062 732.302734375 c 1,38,-1
 2303.39355469 771.515625 l 1,39,40
 2340 633 2340 633 2343.5859375 485.203125 c 0,41,42
 2350 225 2350 225 2248.74121094 111 c 0,43,44
 2150 0 2150 0 2008.74121094 0 c 0,45,46
 1816 -1 1816 -1 1746.36035156 156.634765625 c 1,47,48
 1692 0 1692 0 1515.8515625 0 c 0,49,50
 1404 0 1404 0 1341.61035156 63.21875 c 1,0,1
EndSplineSet
Substitution2: "'fina' Terminal Forms in Arabic lookup 9 subtable" uniFEB2
Substitution2: "'medi' Medial Forms in Arabic lookup 11 subtable" uniFEB4
Substitution2: "'init' Initial Forms in Arabic lookup 13 subtable" uniFEB3
EndChar

StartChar: uni0635
Encoding: 1589 1589 29
Width: 2539
VWidth: 2510
GlyphClass: 2
Flags: W
AnchorPoint: "Anchor-10" 545.807 972.391 basechar 0
LayerCount: 2
Fore
SplineSet
1318.45898438 327.78125 m 2,0,1
 1345.01207757 245.999373507 1345.01207757 245.999373507 1403.56835938 242.961914062 c 1,2,3
 1692 814 1692 814 2067.71582031 812.731445312 c 4,4,5
 2238 812 2238 812 2333.18847656 721 c 0,6,7
 2437 621 2437 621 2438.3125 435 c 0,8,9
 2441 0 2441 0 1679.41210938 0 c 2,10,-1
 1590.0078125 0 l 2,11,12
 1423.28668756 1.42108547152e-14 1423.28668756 1.42108547152e-14 1384.328125 63.86328125 c 2,13,-1
 1383.74609375 64.8173828125 l 1,14,-1
 1341.61035156 63.21875 l 1,15,16
 1341 -82 1341 -82 1282.30078125 -201.794921875 c 0,17,18
 1134 -505 1134 -505 722.75 -503.880859375 c 0,19,20
 423 -503 423 -503 263.57421875 -360.970703125 c 0,21,22
 92 -208 92 -208 99.544921875 68 c 0,23,24
 106 308 106 308 214.888671875 501.734375 c 1,25,-1
 375.232421875 455.000976562 l 1,26,27
 274 259 274 259 275.689453125 61 c 0,28,29
 277 -128 277 -128 388.801757812 -224.43359375 c 0,30,31
 511 -330 511 -330 728 -329.329101562 c 0,32,33
 1173 -328 1173 -328 1170.79394531 93 c 0,34,35
 1170 254 1170 254 1076.51660156 516.947265625 c 1,36,-1
 1238.6484375 573.592773438 l 1,37,-1
 1318.45898438 327.78125 l 2,0,1
1556.25878906 189.298828125 m 1,38,-1
 1782.33984375 189.298828125 l 2,39,40
 2261 189 2261 189 2261.43847656 424.434570312 c 0,41,42
 2261 627 2261 627 2053.15722656 627.348632812 c 0,43,44
 1822 627 1822 627 1556.25878906 189.298828125 c 1,38,-1
EndSplineSet
Substitution2: "'fina' Terminal Forms in Arabic lookup 9 subtable" uniFEBA
Substitution2: "'medi' Medial Forms in Arabic lookup 11 subtable" uniFEBC
Substitution2: "'init' Initial Forms in Arabic lookup 13 subtable" uniFEBB
EndChar

StartChar: uni0637
Encoding: 1591 1591 31
Width: 1448
VWidth: 2510
GlyphClass: 2
Flags: W
AnchorPoint: "Anchor-10" 402.779 1615.69 basechar 0
AnchorPoint: "Anchor-7" 678.281 -338.166 basechar 0
LayerCount: 2
Fore
SplineSet
509.997070312 538.314453125 m 17,0,1
 727 814 727 814 975.303710938 812.731445312 c 0,2,3
 1146 812 1146 812 1240.77636719 721 c 0,4,5
 1345 621 1345 621 1345.90039062 435 c 0,6,7
 1348 0 1348 0 587 0 c 2,8,-1
 104.625976562 0 l 1,9,-1
 104.625976562 187.249023438 l 1,10,-1
 277.7421875 187.3828125 l 1,11,12
 307 240 307 240 336.595703125 293.24609375 c 1,13,-1
 336.595703125 1474.00585938 l 5,14,-1
 509.997070312 1474.00585938 l 5,15,-1
 509.997070312 538.314453125 l 17,0,1
463.846679688 189.298828125 m 1,16,-1
 689.927734375 189.298828125 l 2,17,18
 1169 189 1169 189 1169.02636719 424.434570312 c 0,19,20
 1169 627 1169 627 960.745117188 627.348632812 c 0,21,22
 730 627 730 627 463.846679688 189.298828125 c 1,16,-1
EndSplineSet
Substitution2: "'fina' Terminal Forms in Arabic lookup 9 subtable" uniFEC2
Substitution2: "'medi' Medial Forms in Arabic lookup 11 subtable" uniFEC4
Substitution2: "'init' Initial Forms in Arabic lookup 13 subtable" uniFEC3
EndChar

StartChar: uni0639
Encoding: 1593 1593 33
Width: 1292
VWidth: 2510
GlyphClass: 2
Flags: W
AnchorPoint: "Anchor-10" 490.933 1505.86 basechar 0
AnchorPoint: "Anchor-7" 383.912 -831.729 basechar 0
LayerCount: 2
Fore
SplineSet
1166.69140625 -395.612304688 m 5,0,-1
 1210.52148438 -557.432617188 l 5,1,2
 1075 -611 1075 -611 816.616210938 -610.858398438 c 4,3,4
 103 -609 103 -609 104.87109375 -85.833984375 c 4,5,6
 106 313 106 313 502.813476562 471.43359375 c 5,7,8
 424 519 424 519 385.774414062 568.3125 c 4,9,10
 300 680 300 680 316.379882812 802.336914062 c 4,11,12
 345 1017 345 1017 522.649414062 1098.33886719 c 4,13,14
 762 1207 762 1207 1060.81542969 998.821289062 c 5,15,-1
 997.3828125 852.479492188 l 5,16,17
 937 889 937 889 907.668945312 903.787109375 c 4,18,19
 762 976 762 976 639.137695312 954.263671875 c 4,20,21
 498 929 498 929 483.479492188 799.708984375 c 4,22,23
 476 734 476 734 522.875 663.62109375 c 4,24,25
 569 595 569 595 653.771484375 534.142578125 c 5,26,27
 916 568 916 568 1135.08007812 550.935546875 c 5,28,-1
 1114.25195312 372.41015625 l 5,29,30
 860 384 860 384 700.033203125 350.16015625 c 4,31,32
 277 261 277 261 277.483398438 -89.947265625 c 4,33,34
 277 -438 277 -438 814 -438.907226562 c 4,35,36
 1040 -439 1040 -439 1166.69140625 -395.612304688 c 5,0,-1
EndSplineSet
Substitution2: "'fina' Terminal Forms in Arabic lookup 9 subtable" uniFECA
Substitution2: "'medi' Medial Forms in Arabic lookup 11 subtable" uniFECC
Substitution2: "'init' Initial Forms in Arabic lookup 13 subtable" uniFECB
EndChar

StartChar: afii57440
Encoding: 1600 1600 35
Width: 245
VWidth: 2510
GlyphClass: 2
Flags: W
AnchorPoint: "Anchor-10" 114.334 1351.94 basechar 0
AnchorPoint: "Anchor-7" 108.334 -174.094 basechar 0
LayerCount: 2
Fore
SplineSet
-5.8857421875 0 m 2,0,1
 -80 0 -80 0 -80 83 c 2,2,-1
 -80 103 l 2,3,4
 -80 188 -80 188 -5.8857421875 188 c 2,5,-1
 250 188 l 2,6,7
 325 188 325 188 325.114257812 103 c 2,8,-1
 325.114257812 83 l 2,9,10
 325.114257812 0 325.114257812 0 250 0 c 2,11,-1
 -5.8857421875 0 l 2,0,1
EndSplineSet
EndChar

StartChar: uni0643
Encoding: 1603 1603 38
Width: 1884
VWidth: 2510
GlyphClass: 2
Flags: W
AnchorPoint: "Anchor-10" 620.909 1427.46 basechar 0
AnchorPoint: "Anchor-7" 587.127 -289.157 basechar 0
LayerCount: 2
Fore
SplineSet
689.111798923 749.009278616 m 2,0,1
 782.492960701 736.998467692 782.492960701 736.998467692 857.086914062 736.766601562 c 0,2,3
 893 737 893 737 925.5 740 c 0,4,5
 953 743 953 743 985.189453125 753.849609375 c 0,6,7
 1023 767 1023 767 1055.24853516 799.248095029 c 0,8,9
 1078 822 1078 822 1078.33105469 846.543945312 c 0,10,11
 1078 903 1078 903 974.309313231 918.394754634 c 0,12,13
 886 932 886 932 840.40277347 981.977169655 c 128,-1,14
 795 1032 795 1032 796.838988851 1115.51043584 c 0,15,16
 802.01036653 1326.42279435 802.01036653 1326.42279435 1178.83693852 1352.7116771 c 2,17,-1
 1194.88085938 1353.83096322 l 1,18,-1
 1194.88085938 1228.68577214 l 1,19,-1
 1181.04921046 1227.60514101 l 2,20,21
 1097 1221 1097 1221 1039.83518754 1203.29032845 c 0,22,23
 981 1185 981 1185 948.293145436 1157.38503767 c 0,24,25
 926 1139 926 1139 925.99609375 1113.69238281 c 0,26,27
 926 1078 926 1078 952.282408297 1056.53442248 c 0,28,29
 979 1035 979 1035 1036.89281957 1026.20179276 c 0,30,31
 1091 1018 1091 1018 1129.0650617 998.934452306 c 128,-1,32
 1167 980 1167 980 1186.88601049 948.258212206 c 0,33,34
 1207 917 1207 917 1207.02636719 874.553710938 c 0,35,36
 1207 728 1207 728 1067.40722656 649.126953125 c 0,37,38
 936.063604405 575.035879311 936.063604405 575.035879311 684.798491968 615.758633989 c 2,39,-1
 672.198242188 617.800767398 l 1,40,-1
 672.198242188 751.184723085 l 1,41,-1
 689.111798923 749.009278616 l 2,0,1
900.962890625 0.349609375 m 24,42,43
 382 -1 382 -1 210.239257812 216.740234375 c 0,44,45
 103 353 103 353 102.80859375 553.34375 c 0,46,47
 103 682 103 682 139.721679688 786.572265625 c 1,48,-1
 296.5234375 747.97265625 l 1,49,50
 274 639 274 639 274.956054688 571 c 0,51,52
 279 278 279 278 605.264648438 212.235351562 c 0,53,54
 746 184 746 184 923.27734375 187.25 c 24,55,56
 1101 190 1101 190 1174.88964844 195.995117188 c 0,57,58
 1577 229 1577 229 1571.86035156 499.584960938 c 1,59,-1
 1571.86035156 1474.484375 l 1,60,-1
 1743.5625 1474.484375 l 5,61,-1
 1743.5625 465.356445312 l 1,62,63
 1747 153 1747 153 1417.96679688 49.69140625 c 0,64,65
 1264 1 1264 1 900.962890625 0.349609375 c 24,42,43
EndSplineSet
Substitution2: "'fina' Terminal Forms in Arabic lookup 9 subtable" uniFEDA
Substitution2: "'medi' Medial Forms in Arabic lookup 11 subtable" uniFEDC
Substitution2: "'init' Initial Forms in Arabic lookup 13 subtable" uniFEDB
EndChar

StartChar: uni0644
Encoding: 1604 1604 39
Width: 1434
VWidth: 2510
GlyphClass: 2
Flags: W
AnchorPoint: "Anchor-10" 496.417 1209.54 basechar 0
AnchorPoint: "Anchor-7" 459.678 -599.49 basechar 0
LayerCount: 2
Fore
SplineSet
708.75 -463.880859375 m 0,0,1
 434 -463 434 -463 273.57421875 -320.970703125 c 0,2,3
 102 -168 102 -168 109.544921875 108 c 0,4,5
 116 348 116 348 224.888671875 541.734375 c 1,6,-1
 385.232421875 495.000976562 l 1,7,8
 284 299 284 299 285.689453125 101 c 0,9,10
 287 -88 287 -88 398.801757812 -184.43359375 c 0,11,12
 520 -289 520 -289 718 -289.329101562 c 0,13,14
 1116.71196571 -290.998793794 1116.71196571 -290.998793794 1117.62304688 138.764648438 c 26,15,-1
 1120.45019531 1472.35058594 l 5,16,-1
 1292.69824219 1472.35058594 l 5,17,-1
 1292.01367188 155.74609375 l 2,18,19
 1292 -149 1292 -149 1143.41601562 -309.572265625 c 0,20,21
 999 -464 999 -464 708.75 -463.880859375 c 0,0,1
EndSplineSet
Substitution2: "'fina' Terminal Forms in Arabic lookup 9 subtable" uniFEDE
Substitution2: "'medi' Medial Forms in Arabic lookup 11 subtable" uniFEE0
Substitution2: "'init' Initial Forms in Arabic lookup 13 subtable" uniFEDF
EndChar

StartChar: uni0645
Encoding: 1605 1605 40
Width: 1172
VWidth: 2510
GlyphClass: 2
Flags: W
AnchorPoint: "Anchor-10" 620.632 1093.53 basechar 0
AnchorPoint: "Anchor-7" 185.783 -833.114 basechar 0
LayerCount: 2
Fore
SplineSet
490.38671875 288.1875 m 5,0,1
 670 267 670 267 761.306640625 266.934570312 c 4,2,3
 856.360351562 268.1796875 856.360351562 268.1796875 876 278 c 4,4,5
 949 312 949 312 903.530273438 417.700195312 c 4,6,7
 859 519 859 519 795.344726562 563.482421875 c 4,8,9
 732 608 732 608 647.564453125 607.586914062 c 4,10,11
 585 607 585 607 544.541015625 555.208984375 c 4,12,13
 486 481 486 481 490.38671875 288.1875 c 5,0,1
104.625976562 -186.325195312 m 6,14,15
 104.625976562 205.884765625 104.625976562 205.884765625 325.536132812 273.706054688 c 5,16,17
 325.579101562 305.327148438 l 6,18,19
 326 597 326 597 462.966796875 716.8046875 c 4,20,21
 539 783 539 783 641.821289062 782.819335938 c 4,22,23
 951 783 951 783 1060.16894531 435.087890625 c 4,24,25
 1096 321 1096 321 1065.85351562 257 c 4,26,27
 1005 130 1005 130 915.018554688 103.213867188 c 4,28,29
 855 85 855 85 690.407226562 98.7939453125 c 4,30,31
 603 106 603 106 501.294921875 110.326171875 c 4,32,33
 357 117 357 117 313.307617188 46.1650390625 c 4,34,35
 277.013671875 -10.978515625 277.013671875 -10.978515625 277.013671875 -205.96875 c 6,36,-1
 277.013671875 -653.0625 l 5,37,-1
 104.625976562 -653.0625 l 5,38,-1
 104.625976562 -186.325195312 l 6,14,15
EndSplineSet
Substitution2: "'init' Initial Forms in Arabic lookup 13 subtable" uniFEE3
Substitution2: "'medi' Medial Forms in Arabic lookup 11 subtable" uniFEE4
Substitution2: "'fina' Terminal Forms in Arabic lookup 9 subtable" uniFEE2
EndChar

StartChar: uni0647
Encoding: 1607 1607 42
Width: 922
VWidth: 2510
GlyphClass: 2
Flags: W
AnchorPoint: "Anchor-10" 415.402 1238.94 basechar 0
AnchorPoint: "Anchor-7" 306.214 -319.471 basechar 0
LayerCount: 2
Fore
SplineSet
458.143554688 645.361328125 m 1,0,1
 259 469 259 469 259.249023438 352.206054688 c 0,2,3
 260 185 260 185 476.350585938 184.556640625 c 0,4,5
 674 185 674 185 674.379882812 350.03515625 c 0,6,7
 674 473 674 473 458.143554688 645.361328125 c 1,0,1
380.375976562 944.212890625 m 5,8,9
 828 621 828 621 834.951171875 349.204101562 c 0,10,11
 840 147 840 147 691.665039062 56.9296875 c 0,12,13
 607 5 607 5 477.936523438 4.716796875 c 0,14,15
 349 5 349 5 262.298828125 47.4658203125 c 0,16,17
 98 129 98 129 98.5625 339.05078125 c 0,18,19
 99 537 99 537 340.704101562 772.84765625 c 1,20,-1
 286.505859375 818.54296875 l 1,21,-1
 380.375976562 944.212890625 l 5,8,9
EndSplineSet
Substitution2: "'fina' Terminal Forms in Arabic lookup 9 subtable" uniFEEA
Substitution2: "'medi' Medial Forms in Arabic lookup 11 subtable" uniFEEC
Substitution2: "'init' Initial Forms in Arabic lookup 13 subtable" uniFEEB
EndChar

StartChar: uni0648
Encoding: 1608 1608 43
Width: 910
VWidth: 2510
GlyphClass: 2
Flags: W
AnchorPoint: "Anchor-10" 391.958 1186.5 basechar 0
AnchorPoint: "Anchor-7" 351.257 -692.659 basechar 0
LayerCount: 2
Fore
SplineSet
799.889648438 249.153320312 m 16,0,1
 808 91 808 91 785.62109375 -24 c 4,2,3
 764 -133 764 -133 712.741210938 -212 c 4,4,5
 547 -468 547 -468 113.8671875 -509.260742188 c 5,6,-1
 82.8701171875 -338.7578125 l 5,7,8
 525 -303 525 -303 622.282226562 1.173828125 c 1,9,-1
 577.516601562 -4.3642578125 l 2,10,11
 290 -40 290 -40 185.217773438 93.234375 c 0,12,13
 123 172 123 172 117.75 279.465820312 c 0,14,15
 107 498 107 498 234.461914062 643.30859375 c 0,16,17
 316 735 316 735 432.55078125 741.231445312 c 0,18,19
 772 759 772 759 799.889648438 249.153320312 c 16,0,1
566.834960938 181.159179688 m 2,20,-1
 630.634765625 190.336914062 l 1,21,-1
 630.256835938 198.735351562 l 2,22,23
 614 563 614 563 441.712890625 551.073242188 c 0,24,25
 384 547 384 547 344.954101562 501.193359375 c 0,26,27
 280 425 280 425 284.811523438 315.120117188 c 0,28,29
 293 142 293 142 566.834960938 181.159179688 c 2,20,-1
EndSplineSet
Substitution2: "'fina' Terminal Forms in Arabic lookup 9 subtable" uniFEEE
EndChar

StartChar: uni0649
Encoding: 1609 1609 44
Width: 1477
VWidth: 2510
GlyphClass: 2
Flags: W
AnchorPoint: "Anchor-10" 486.366 1126.43 basechar 0
AnchorPoint: "Anchor-7" 462.959 -689.182 basechar 0
LayerCount: 2
Fore
SplineSet
708 -269.329101562 m 0,0,1
 1002 -269 1002 -269 1140 -120 c 0,2,3
 1199 -56 1199 -56 1199.01367188 18.1298828125 c 1,4,5
 1199 85 1199 85 1122.87304688 88.7890625 c 5,6,7
 927 99 927 99 874.247070312 121.267578125 c 28,8,9
 760 170 760 170 776.23828125 329.98046875 c 1,10,11
 806 613 806 613 1005.44921875 720 c 1,12,13
 1134 790 1134 790 1325.55175781 767.178710938 c 1,14,-1
 1312.01464844 581.881835938 l 1,15,-1
 1289.94433594 581.881835938 l 18,16,17
 949 582 949 582 944 282 c 1,18,19
 961 272 961 272 1095 263 c 1,20,21
 1370 246 1370 246 1371 55 c 1,22,23
 1371 -138 1371 -138 1213 -286 c 0,24,25
 1045 -444 1045 -444 702.75 -443.880859375 c 0,26,27
 423 -443 423 -443 263.57421875 -300.970703125 c 0,28,29
 92 -148 92 -148 99.544921875 128 c 0,30,31
 106 368 106 368 214.888671875 561.734375 c 1,32,-1
 375.232421875 515.000976562 l 1,33,34
 274 319 274 319 275.689453125 121 c 0,35,36
 277 -68 277 -68 388.801757812 -164.43359375 c 0,37,38
 509 -270 509 -270 708 -269.329101562 c 0,0,1
EndSplineSet
Substitution2: "'fina' Terminal Forms in Arabic lookup 9 subtable" uniFEF0
Substitution2: "'medi' Medial Forms in Arabic lookup 11 subtable" uniFBE9
Substitution2: "'init' Initial Forms in Arabic lookup 13 subtable" uniFBE8
EndChar

StartChar: uni064B
Encoding: 1611 1611 46
Width: -28
VWidth: 2417
GlyphClass: 4
Flags: W
AnchorPoint: "Anchor-10" 639.995 1165.41 mark 0
AnchorPoint: "Anchor-9" 639.995 1165.41 mark 0
AnchorPoint: "Anchor-1" 597.995 1741.82 basemark 0
AnchorPoint: "Anchor-1" 639.995 1165.41 mark 0
LayerCount: 2
Fore
SplineSet
319.116210938 1111.890625 m 1,0,-1
 319.116210938 1228.04589844 l 1,1,-1
 843.963867188 1442.65917969 l 1,2,-1
 843.963867188 1326.50390625 l 1,3,-1
 319.116210938 1111.890625 l 1,0,-1
319.116210938 1399.0703125 m 1,4,-1
 319.116210938 1515.22460938 l 1,5,-1
 843.963867188 1729.83886719 l 1,6,-1
 843.963867188 1613.68261719 l 1,7,-1
 319.116210938 1399.0703125 l 1,4,-1
EndSplineSet
EndChar

StartChar: uni064C
Encoding: 1612 1612 47
Width: -28
VWidth: 2417
GlyphClass: 4
Flags: W
AnchorPoint: "Anchor-10" 710.254 1274.95 mark 0
AnchorPoint: "Anchor-9" 710.254 1274.95 mark 0
AnchorPoint: "Anchor-1" 596.382 2001.77 basemark 0
AnchorPoint: "Anchor-1" 710.254 1274.95 mark 0
LayerCount: 2
Fore
SplineSet
685.288085938 1819.5078125 m 0,0,1
 595.9375 1819.5078125 595.9375 1819.5078125 595.9375 1739.57226562 c 0,2,3
 595.9375 1681.72051997 595.9375 1681.72051997 662.28515625 1655.1796875 c 0,4,5
 686.687378301 1645.42114025 686.687378301 1645.42114025 736.1640625 1630.18457031 c 1,6,-1
 750.583007812 1663.82714844 l 2,7,8
 762.92578125 1692.62792969 762.92578125 1692.62792969 762.92578125 1734.01855469 c 128,-1,9
 762.92578125 1775.40917969 762.92578125 1775.40917969 736.060546875 1797.53027344 c 128,-1,10
 709.370117188 1819.5078125 709.370117188 1819.5078125 685.288085938 1819.5078125 c 0,0,1
336.235351562 1587.265625 m 1,11,12
 339.259946179 1351.09135723 339.259946179 1351.09135723 472.029296875 1352.35449219 c 0,13,14
 544.714813637 1352.60203342 544.714813637 1352.60203342 623.791015625 1429.36132812 c 0,15,16
 669.557617188 1473.21484375 669.557617188 1473.21484375 696.685546875 1527.48046875 c 2,17,-1
 708.607421875 1551.33007812 l 1,18,-1
 682.51171875 1556.8671875 l 2,19,20
 575.508263572 1579.00307633 575.508263572 1579.00307633 537.61106538 1630.91804207 c 128,-1,21
 499.713867188 1682.83300781 499.713867188 1682.83300781 500.231933594 1720.2109375 c 0,22,23
 502.468059717 1881.54501368 502.468059717 1881.54501368 627.72265625 1905.23046875 c 0,24,25
 646.928710938 1908.86230469 646.928710938 1908.86230469 668.795898438 1908.78417969 c 0,26,27
 752.029296875 1909.09667969 752.029296875 1909.09667969 801.842915212 1860.3216725 c 128,-1,28
 851.65653355 1811.5466653 851.65653355 1811.5466653 852.204101562 1725.31152344 c 0,29,30
 852.693359375 1683.77539062 852.693359375 1683.77539062 838.922851562 1640.18457031 c 2,31,-1
 830.90234375 1614.79394531 l 1,32,-1
 857.495117188 1613.39746094 l 2,33,34
 883.252503362 1611.99376718 883.252503362 1611.99376718 922.202148438 1611.22363281 c 1,35,-1
 922.202148438 1521.82617188 l 1,36,37
 880.301757812 1522.55273438 880.301757812 1522.55273438 865.299804688 1523.99511719 c 2,38,-1
 788.586914062 1531.37011719 l 1,39,40
 744.629059448 1427.7015926 744.629059448 1427.7015926 651.124136922 1345.45160241 c 128,-1,41
 557.619214397 1263.20161221 557.619214397 1263.20161221 483.667029074 1263.15793501 c 0,42,43
 274.788614535 1263.03456848 274.788614535 1263.03456848 270.678710938 1587.265625 c 1,44,-1
 336.235351562 1587.265625 l 1,11,12
EndSplineSet
EndChar

StartChar: uni064D
Encoding: 1613 1613 48
Width: -28
VWidth: 2417
GlyphClass: 4
Flags: W
AnchorPoint: "Anchor-7" 580.254 77.5137 mark 0
AnchorPoint: "Anchor-6" 580.254 77.5137 mark 0
AnchorPoint: "Anchor-0" 667.295 -493.518 basemark 0
AnchorPoint: "Anchor-0" 580.254 77.5137 mark 0
LayerCount: 2
Fore
SplineSet
324.661132812 -540.221679688 m 1,0,-1
 324.661132812 -424.065429688 l 1,1,-1
 849.5078125 -209.453125 l 1,2,-1
 849.5078125 -325.607421875 l 1,3,-1
 324.661132812 -540.221679688 l 1,0,-1
324.661132812 -253.041992188 m 1,4,-1
 324.661132812 -136.88671875 l 1,5,-1
 849.5078125 77.7265625 l 1,6,-1
 849.5078125 -38.4287109375 l 1,7,-1
 324.661132812 -253.041992188 l 1,4,-1
EndSplineSet
EndChar

StartChar: uni064E
Encoding: 1614 1614 49
Width: -28
VWidth: 2417
GlyphClass: 4
Flags: W
AnchorPoint: "Anchor-10" 606.73 1427.21 mark 0
AnchorPoint: "Anchor-9" 606.73 1427.21 mark 0
AnchorPoint: "Anchor-1" 564.73 1768.44 basemark 0
AnchorPoint: "Anchor-1" 606.73 1427.21 mark 0
LayerCount: 2
Fore
SplineSet
286.9609375 1397.9609375 m 1,0,-1
 286.9609375 1514.11621094 l 1,1,-1
 811.80859375 1728.73046875 l 1,2,-1
 811.80859375 1612.57421875 l 1,3,-1
 286.9609375 1397.9609375 l 1,0,-1
EndSplineSet
EndChar

StartChar: uni064F
Encoding: 1615 1615 50
Width: -28
VWidth: 2417
GlyphClass: 4
Flags: W
AnchorPoint: "Anchor-10" 646.404 1343.06 mark 0
AnchorPoint: "Anchor-9" 646.404 1343.06 mark 0
AnchorPoint: "Anchor-1" 573.845 2017.36 basemark 0
AnchorPoint: "Anchor-1" 646.404 1343.06 mark 0
LayerCount: 2
Fore
SplineSet
861.864257812 1537.46484375 m 1,0,1
 802.75886905 1538.41223839 802.75886905 1538.41223839 724.322265625 1546.78320312 c 1,2,3
 629.317186411 1413.50269726 629.317186411 1413.50269726 463.555664062 1361.328125 c 0,4,5
 398.0546875 1340.7109375 398.0546875 1340.7109375 328.549804688 1337.78027344 c 1,6,-1
 328.549804688 1426.9453125 l 1,7,8
 495.004163258 1433.01725036 495.004163258 1433.01725036 599.6484375 1547.5859375 c 1,9,-1
 624.728515625 1574.00292969 l 1,10,-1
 589.142578125 1581.90332031 l 2,11,12
 582.368836763 1583.30467247 582.368836763 1583.30467247 542.280121506 1604.12987529 c 0,13,14
 444.15104034 1655.10576727 444.15104034 1655.10576727 444.099934232 1751.62905551 c 128,-1,15
 444.048828125 1848.15234375 444.048828125 1848.15234375 517.573242188 1903.58886719 c 0,16,17
 545.6171875 1924.84570312 545.6171875 1924.84570312 618.536473455 1924.68791998 c 0,18,19
 691.45575941 1924.53013683 691.45575941 1924.53013683 741.62827033 1875.39299811 c 128,-1,20
 791.80078125 1826.25585938 791.80078125 1826.25585938 791.865234375 1740.92871094 c 0,21,22
 791.800587063 1705.86929825 791.800587063 1705.86929825 776.185546875 1655.69335938 c 2,23,-1
 768.360351562 1630.54394531 l 1,24,-1
 794.662109375 1628.98925781 l 2,25,26
 833.15234375 1626.74023438 833.15234375 1626.74023438 861.864257812 1626.68066406 c 1,27,-1
 861.864257812 1537.46484375 l 1,0,1
675.825195312 1645.77636719 m 1,28,-1
 690.245117188 1679.41699219 l 2,29,30
 702.588867188 1708.22362417 702.588867188 1708.22362417 702.588867188 1749.61132381 c 128,-1,31
 702.588867188 1790.99902344 702.588867188 1790.99902344 675.719726562 1813.12011719 c 128,-1,32
 649.025390625 1835.09765625 649.025390625 1835.09765625 624.756347656 1835.09765625 c 0,33,34
 557.541189591 1835.09765625 557.541189591 1835.09765625 541.670898438 1790.02929688 c 0,35,36
 535.599609375 1772.78808594 535.599609375 1772.78808594 535.599609375 1747.84765625 c 0,37,38
 535.599609375 1697.30957031 535.599609375 1697.30957031 601.947265625 1670.76855469 c 0,39,40
 626.31667884 1661.02273973 626.31667884 1661.02273973 675.825195312 1645.77636719 c 1,28,-1
EndSplineSet
EndChar

StartChar: uni0650
Encoding: 1616 1616 51
Width: -28
VWidth: 2417
GlyphClass: 4
Flags: W
AnchorPoint: "Anchor-7" 595.761 -19.0098 mark 0
AnchorPoint: "Anchor-6" 595.761 -19.0098 mark 0
AnchorPoint: "Anchor-0" 645.774 -345.291 basemark 0
AnchorPoint: "Anchor-0" 595.761 -19.0098 mark 0
LayerCount: 2
Fore
SplineSet
335.749023438 -369.465820312 m 1,0,-1
 335.749023438 -253.310546875 l 1,1,-1
 860.595703125 -38.697265625 l 1,2,-1
 860.595703125 -154.853515625 l 1,3,-1
 335.749023438 -369.465820312 l 1,0,-1
EndSplineSet
EndChar

StartChar: uni0651
Encoding: 1617 1617 52
Width: -28
VWidth: 2417
GlyphClass: 4
Flags: W
AnchorPoint: "Anchor-10" 639.995 1457.73 mark 0
AnchorPoint: "Anchor-9" 639.995 1457.73 mark 0
AnchorPoint: "Anchor-1" 607.789 1930.36 basemark 0
AnchorPoint: "Anchor-1" 639.995 1457.73 mark 0
LayerCount: 2
Fore
SplineSet
639.284914329 1838.45410156 m 1,0,1
 641.409102893 1796.25557225 641.409102893 1796.25557225 641.701202211 1747.30475603 c 0,2,3
 641.406679055 1602.46921855 641.406679055 1602.46921855 767.646735784 1602.67770129 c 0,4,5
 842.267971938 1603.27569684 842.267971938 1603.27569684 842.766162133 1715.97473918 c 0,6,7
 843.284145919 1833.15142631 843.284145919 1833.15142631 830.45388851 1903.95214844 c 1,8,-1
 920.257786806 1903.95214844 l 1,9,10
 932.252800156 1816.7443248 932.252800156 1816.7443248 932.25 1727.7287937 c 0,11,12
 932.25 1506.71486246 932.25 1506.71486246 772.909969154 1501.75231118 c 0,13,14
 697.326443312 1498.55748693 697.326443312 1498.55748693 658.178922512 1527.17826643 c 128,-1,15
 619.031401712 1555.79904593 619.031401712 1555.79904593 606.671455284 1595.38898708 c 1,16,17
 566.95666639 1430.34352821 566.95666639 1430.34352821 422.60607923 1430.21972839 c 0,18,19
 243.075097112 1430.37313163 243.075097112 1430.37313163 271.057264981 1685.06180907 c 0,20,21
 275.145479388 1722.26309134 275.145479388 1722.26309134 283.767125861 1779.3203125 c 1,22,-1
 368.674350936 1779.3203125 l 1,23,24
 354.75 1681.5130598 354.75 1681.5130598 354.75 1652.79980469 c 0,25,26
 354.75 1537.15326196 354.75 1537.15326196 435.69978042 1537.23144409 c 0,27,28
 548.36426054 1537.15277366 548.36426054 1537.15277366 554.137869604 1685.93103661 c 0,29,30
 556.340436636 1748.41052142 556.340436636 1748.41052142 555.428602914 1838.45410156 c 1,31,-1
 639.284914329 1838.45410156 l 1,0,1
EndSplineSet
EndChar

StartChar: uni0652
Encoding: 1618 1618 53
Width: -28
VWidth: 2417
GlyphClass: 4
Flags: W
AnchorPoint: "Anchor-10" 617.953 1245.08 mark 0
AnchorPoint: "Anchor-9" 617.953 1245.08 mark 0
AnchorPoint: "Anchor-1" 602.43 1880.98 basemark 0
AnchorPoint: "Anchor-1" 617.953 1245.08 mark 0
LayerCount: 2
Fore
SplineSet
708.37890625 1438.96191406 m 128,-1,1
 744.711914062 1475.29394531 744.711914062 1475.29394531 744.711914062 1527.59716797 c 128,-1,2
 744.711914062 1579.90039062 744.711914062 1579.90039062 708.37890625 1616.23339844 c 128,-1,3
 672.049804688 1652.56640625 672.049804688 1652.56640625 619.015623832 1652.56640625 c 128,-1,4
 565.981442976 1652.56640625 565.981442976 1652.56640625 530.016601562 1616.59960938 c 128,-1,5
 494.048828125 1580.63379166 494.048828125 1580.63379166 494.048828125 1527.59765755 c 128,-1,6
 494.048828125 1474.56152344 494.048828125 1474.56152344 530.016601562 1438.59570312 c 128,-1,7
 565.982421875 1402.62890625 565.982421875 1402.62890625 619.017089844 1402.62890625 c 128,-1,0
 672.051757812 1402.62890625 672.051757812 1402.62890625 708.37890625 1438.96191406 c 128,-1,1
759.3359375 1388.00683594 m 128,-1,9
 702.325195312 1330.63671875 702.325195312 1330.63671875 608.184903419 1330.63671875 c 128,-1,10
 514.044611526 1330.63671875 514.044611526 1330.63671875 455.106445312 1418.32324219 c 0,11,12
 423.057617188 1466.0060017 423.057617188 1466.0060017 423.057617188 1538.35407507 c 128,-1,13
 423.057617188 1610.70214844 423.057617188 1610.70214844 480.07421875 1667.72949219 c 128,-1,14
 537.090820312 1724.74609375 537.090820312 1724.74609375 619.723632812 1724.74609375 c 0,15,16
 734.277048408 1724.74609375 734.277048408 1724.74609375 791.061523438 1626.8671875 c 0,17,18
 816.388671875 1583.20904919 816.388671875 1583.20904919 816.388671875 1514.31692694 c 128,-1,8
 816.388671875 1445.42480469 816.388671875 1445.42480469 759.3359375 1388.00683594 c 128,-1,9
EndSplineSet
EndChar

StartChar: uni0653
Encoding: 1619 1619 54
Width: -29
VWidth: 2510
GlyphClass: 4
Flags: W
AnchorPoint: "Anchor-10" 432.798 1448.66 mark 0
AnchorPoint: "Anchor-9" 432.798 1448.66 mark 0
AnchorPoint: "Anchor-1" 432.798 1848.71 basemark 0
AnchorPoint: "Anchor-1" 432.798 1448.66 mark 0
LayerCount: 2
Fore
SplineSet
356.66796875 1536.63867188 m 2,0,1
 247.7578125 1548.30664062 247.7578125 1548.30664062 156.54296875 1436.47265625 c 1,2,-1
 76.158203125 1548.20214844 l 1,3,4
 180.172851562 1701.09082031 180.172851562 1701.09082031 341.96484375 1680.55371094 c 2,5,-1
 519.15234375 1658.06445312 l 2,6,7
 639.6171875 1642.49804688 639.6171875 1642.49804688 726.374023438 1706.11523438 c 1,8,-1
 791.31640625 1587.02734375 l 1,9,10
 700.7265625 1499.77929688 700.7265625 1499.77929688 526.138671875 1518.48339844 c 2,11,-1
 356.66796875 1536.63867188 l 2,0,1
EndSplineSet
EndChar

StartChar: uni0657
Encoding: 1623 1623 57
Width: -28
VWidth: 2417
GlyphClass: 4
Flags: W
AnchorPoint: "Anchor-10" 597.995 1412.51 mark 0
AnchorPoint: "Anchor-9" 597.995 1412.51 mark 0
AnchorPoint: "Anchor-1" 597.995 2183.68 basemark 0
AnchorPoint: "Anchor-1" 597.995 1412.51 mark 0
LayerCount: 2
Fore
SplineSet
272.17578125 1890.02734375 m 1,0,1
 331.083198419 1888.99329785 331.083198419 1888.99329785 409.728515625 1880.71484375 c 1,2,3
 465.388627376 1959.94202573 465.388627376 1959.94202573 543.538085938 2007.14257812 c 0,4,5
 731.084960938 2121.84570312 731.084960938 2121.84570312 822.25 2128.15234375 c 1,6,-1
 822.25 2039.02636719 l 1,7,8
 724.508789062 2034.85449219 724.508789062 2034.85449219 586.485351562 1927.04785156 c 0,9,10
 558.302734375 1905.23632812 558.302734375 1905.23632812 534.405273438 1879.92480469 c 2,11,-1
 509.315429688 1853.51074219 l 1,12,-1
 544.92578125 1845.58691406 l 1,13,14
 573.18602373 1840.76886676 573.18602373 1840.76886676 607.377571456 1814.94330638 c 0,15,16
 689.848999464 1752.65098603 689.848999464 1752.65098603 690.090820312 1681.96777344 c 0,17,18
 689.952148438 1501.51855469 689.952148438 1501.51855469 515.640625 1503.12207031 c 0,19,20
 442.863563482 1503.59415462 442.863563482 1503.59415462 392.40234375 1552.3203125 c 0,21,22
 342.200195312 1601.14453125 342.200195312 1601.14453125 342.174804688 1686.5703125 c 0,23,24
 342.200195312 1721.49023438 342.200195312 1721.49023438 357.853515625 1771.80371094 c 2,25,-1
 365.678710938 1796.953125 l 1,26,-1
 339.37890625 1798.50683594 l 2,27,28
 302.862791879 1800.66429458 302.862791879 1800.66429458 272.17578125 1800.80957031 c 1,29,-1
 272.17578125 1890.02734375 l 1,0,1
504.17578125 1592.40039062 m 0,30,31
 598.440429688 1592.40039062 598.440429688 1592.40039062 598.440429688 1672.33496094 c 0,32,33
 598.440429688 1730.18652344 598.440429688 1730.18652344 532.094726562 1756.7265625 c 0,34,35
 507.766806249 1766.46320504 507.766806249 1766.46320504 458.215820312 1781.72265625 c 1,36,-1
 443.795898438 1748.08105469 l 2,37,38
 431.451171875 1719.27929688 431.451171875 1719.27929688 431.451171875 1677.89550781 c 128,-1,39
 431.451171875 1636.51171875 431.451171875 1636.51171875 458.31640625 1614.38378906 c 128,-1,40
 485.0078125 1592.40039062 485.0078125 1592.40039062 504.17578125 1592.40039062 c 0,30,31
EndSplineSet
EndChar

StartChar: uni065A
Encoding: 1626 1626 58
Width: 1185
VWidth: 2417
GlyphClass: 4
Flags: W
AnchorPoint: "Anchor-10" 597.995 1412.51 mark 0
AnchorPoint: "Anchor-9" 597.995 1412.51 mark 0
AnchorPoint: "Anchor-1" 595.622 1946.4 basemark 0
AnchorPoint: "Anchor-1" 597.995 1412.51 mark 0
LayerCount: 2
Fore
SplineSet
521.889648438 1506.68164062 m 1,0,-1
 315.200195312 1852.22460938 l 1,1,-1
 432.729492188 1852.22460938 l 1,2,-1
 597.994140625 1604.3203125 l 1,3,-1
 763.259765625 1852.22460938 l 1,4,-1
 880.790039062 1852.22460938 l 1,5,-1
 674.09765625 1506.68164062 l 1,6,-1
 521.889648438 1506.68164062 l 1,0,-1
EndSplineSet
EndChar

StartChar: afii57392
Encoding: 1632 1632 59
Width: 1004
VWidth: 2510
GlyphClass: 2
Flags: W
LayerCount: 2
Fore
SplineSet
428.998046875 672.803710938 m 132,-1,1
 395.703125 639.508789062 395.703125 639.508789062 395.703125 592.977539062 c 132,-1,2
 395.703125 546.446289062 395.703125 546.446289062 428.998046875 513.151367188 c 132,-1,3
 462.293945312 479.854492188 462.293945312 479.854492188 508.8203125 480.068359375 c 4,4,5
 555.354492188 479.854492188 555.354492188 479.854492188 588.650390625 513.151367188 c 132,-1,6
 621.946289062 546.447265625 621.946289062 546.447265625 621.946289062 592.9765625 c 132,-1,7
 621.946289062 639.506835938 621.946289062 639.506835938 588.650390625 672.803710938 c 132,-1,8
 555.353515625 706.099609375 555.353515625 706.099609375 508.82421875 706.099609375 c 132,-1,0
 462.293945312 706.099609375 462.293945312 706.099609375 428.998046875 672.803710938 c 132,-1,1
309.064453125 788.810546875 m 128,-1,10
 390.375 870.12109375 390.375 870.12109375 504.000488281 870.12109375 c 128,-1,11
 617.625976562 870.12109375 617.625976562 870.12109375 698.935546875 788.810546875 c 128,-1,12
 780.24609375 707.5 780.24609375 707.5 780.24609375 593.874511719 c 128,-1,13
 780.24609375 480.249023438 780.24609375 480.249023438 698.935546875 398.939453125 c 128,-1,14
 617.627446001 317.629400967 617.627446001 317.629400967 503.991210938 318.150390625 c 0,15,16
 390.374629931 317.629276319 390.374629931 317.629276319 309.064453125 398.939453125 c 128,-1,17
 227.7578125 480.24609375 227.7578125 480.24609375 227.757834442 593.875021942 c 128,-1,9
 227.757856384 707.503950134 227.757856384 707.503950134 309.064453125 788.810546875 c 128,-1,10
EndSplineSet
EndChar

StartChar: afii57393
Encoding: 1633 1633 60
Width: 723
VWidth: 2510
GlyphClass: 2
Flags: W
LayerCount: 2
Fore
SplineSet
499.854492188 9.8017578125 m 1,0,-1
 326.756835938 9.8017578125 l 1,1,2
 325 412 325 412 279.114257812 820.166992188 c 0,3,4
 240 1160 240 1160 117.185546875 1396.09667969 c 5,5,-1
 273.859375 1450.75292969 l 5,6,7
 404 1215 404 1215 460.750976562 735.022460938 c 0,8,9
 500 398 500 398 499.854492188 9.8017578125 c 1,0,-1
EndSplineSet
EndChar

StartChar: afii57394
Encoding: 1634 1634 61
Width: 1214
VWidth: 2510
GlyphClass: 2
Flags: W
LayerCount: 2
Fore
SplineSet
926.76953125 1334.4765625 m 4,0,1
 927 1421 927 1421 926.185546875 1452.7890625 c 5,2,-1
 1100.22949219 1452.26953125 l 5,3,4
 1101 1428 1101 1428 1100.91113281 1404.09179688 c 4,5,6
 1101 825 1101 825 689.114257812 825.006835938 c 4,7,8
 539 825 539 825 460.263671875 874.38671875 c 5,9,10
 509 728 509 728 530.780273438 459.49609375 c 0,11,12
 560 111 560 111 552.33984375 9.8017578125 c 1,13,-1
 378.890625 9.8017578125 l 1,14,15
 378 245 378 245 325.887695312 641.344726562 c 4,16,17
 274 1037 274 1037 116.295898438 1395.94824219 c 5,18,-1
 285.724609375 1450.49121094 l 5,19,-1
 375.215820312 1202.21191406 l 6,20,21
 448 1000 448 1000 682.963867188 999.90625 c 4,22,23
 926 1000 926 1000 926.76953125 1334.4765625 c 4,0,1
EndSplineSet
EndChar

StartChar: afii57395
Encoding: 1635 1635 62
Width: 1339
VWidth: 2510
GlyphClass: 2
Flags: W
LayerCount: 2
Fore
SplineSet
755.795898438 921.916992188 m 5,0,1
 668 814 668 814 468.555664062 833.565429688 c 5,2,3
 488 779 488 779 516.678710938 589.544921875 c 0,4,5
 550 366 550 366 551.7890625 9.8017578125 c 1,6,-1
 378.720703125 9.8017578125 l 1,7,8
 378 241 378 241 333.774414062 627.723632812 c 0,9,10
 294 986 294 986 116.520507812 1395.61816406 c 5,11,-1
 281.521484375 1450.35058594 l 5,12,-1
 369.198242188 1188.08496094 l 6,13,14
 427 1014 427 1014 548.895507812 1013.35058594 c 4,15,16
 659 1013 659 1013 663.758789062 1117.84375 c 4,17,18
 670 1254 670 1254 671.083007812 1398.21777344 c 5,19,-1
 820.6171875 1398.21777344 l 5,20,21
 821 1392 821 1392 820.874023438 1259.45019531 c 4,22,23
 821 1098 821 1098 835.087890625 1071.24609375 c 4,24,25
 870 1008 870 1008 957.641601562 1007.63183594 c 4,26,27
 1055 1007 1055 1007 1072.80371094 1121.49121094 c 4,28,29
 1091 1235 1091 1235 1085.84277344 1452.828125 c 5,30,-1
 1241.52148438 1452.98339844 l 5,31,32
 1239 1084 1239 1084 1177.40429688 954.8359375 c 4,33,34
 1116 826 1116 826 972.70703125 827.229492188 c 4,35,36
 829 829 829 829 755.795898438 921.916992188 c 5,0,1
EndSplineSet
EndChar

StartChar: afii57396
Encoding: 1636 1636 63
Width: 1032
VWidth: 2510
GlyphClass: 2
Flags: W
LayerCount: 2
Fore
SplineSet
114.348632812 347.829101562 m 0,0,1
 107 611 107 611 478.799804688 802.7265625 c 1,2,3
 190 867 190 867 194.469726562 1110.67773438 c 0,4,5
 201 1476 201 1476 709.42578125 1468.97070312 c 1,6,-1
 709.42578125 1291.33984375 l 1,7,8
 374 1279 374 1279 373.965820312 1105.109375 c 0,9,10
 374 903 374 903 744.005859375 901.190429688 c 1,11,-1
 746.1015625 751.538085938 l 5,12,13
 267 560 267 560 278.772460938 354.443359375 c 0,14,15
 286.980801917 181.404711543 286.980801917 181.404711543 601.708984375 182.479492188 c 2,16,-1
 916.55859375 183.5546875 l 1,17,-1
 918.62109375 0.0048828125 l 1,18,-1
 560.426757812 0.3974609375 l 2,19,20
 124 1 124 1 114.348632812 347.829101562 c 0,0,1
EndSplineSet
EndChar

StartChar: afii57397
Encoding: 1637 1637 64
Width: 1207
VWidth: 2510
GlyphClass: 2
Flags: W
LayerCount: 2
Fore
SplineSet
575.995117188 1066.48632812 m 1,0,1
 273 773 273 773 272.859375 506.549804688 c 0,2,3
 273 208 273 208 634.75390625 208.3046875 c 0,4,5
 934 209 934 209 933.35546875 498 c 0,6,7
 933 794 933 794 575.995117188 1066.48632812 c 1,0,1
391.606445312 1210.82226562 m 1,8,-1
 489.142578125 1358.60351562 l 1,9,10
 1093 975 1093 975 1093.01269531 493.012695312 c 4,11,12
 1093 286 1093 286 995.165039062 184.5859375 c 0,13,14
 860 42 860 42 609.729492188 42.8447265625 c 0,15,16
 248 43 248 43 130.826171875 300.755859375 c 0,17,18
 94 382 94 382 94.5888671875 483.057617188 c 0,19,20
 97 834 97 834 444.595703125 1177.97167969 c 1,21,-1
 391.606445312 1210.82226562 l 1,8,-1
EndSplineSet
EndChar

StartChar: afii57398
Encoding: 1638 1638 65
Width: 1261
VWidth: 2510
GlyphClass: 2
Flags: W
LayerCount: 2
Fore
SplineSet
784.137695312 1240.6015625 m 5,0,1
 704 1217 704 1217 449.326171875 1217.41113281 c 4,2,3
 227 1217 227 1217 65.2333984375 1263.54882812 c 5,4,-1
 65.2333984375 1459.15332031 l 5,5,6
 274 1405 274 1405 493.009765625 1404.50195312 c 4,7,8
 712 1405 712 1405 955.272460938 1460.18554688 c 5,9,10
 958 902 958 902 1050.875 426.655273438 c 0,11,12
 1089 233 1089 233 1144.99511719 9.8017578125 c 1,13,-1
 953.704101562 9.8017578125 l 1,14,15
 847 422 847 422 816.762207031 754.182617188 c 0,16,17
 786 1090 786 1090 784.137695312 1240.6015625 c 5,0,1
EndSplineSet
EndChar

StartChar: afii57399
Encoding: 1639 1639 66
Width: 1241
VWidth: 2510
GlyphClass: 2
Flags: W
LayerCount: 2
Fore
SplineSet
531.745117188 9.8017578125 m 1,0,1
 511 253 511 253 379 668.5 c 128,-1,2
 247 1084 247 1084 85.279296875 1396 c 1,3,-1
 253.208007812 1450.60546875 l 1,4,5
 538 887 538 887 620.072265625 342.092773438 c 1,6,7
 709 881 709 881 986.950195312 1450.61621094 c 1,8,-1
 1156.02734375 1395.97265625 l 1,9,10
 989 1062 989 1062 860 653.5 c 128,-1,11
 731 245 731 245 709.25 9.8017578125 c 1,12,-1
 531.745117188 9.8017578125 l 1,0,1
EndSplineSet
EndChar

StartChar: afii57400
Encoding: 1640 1640 67
Width: 1241
VWidth: 2510
GlyphClass: 2
Flags: W
LayerCount: 2
Fore
SplineSet
531.745117188 1451.07519531 m 1,0,-1
 709.25 1451.07519531 l 1,1,2
 735 1207 735 1207 847.708007812 824.671875 c 1,3,4
 965 442 965 442 1156.02832031 64.9033203125 c 1,5,-1
 986.950195312 10.2607421875 l 1,6,7
 710 577 710 577 620.072265625 1118.77929688 c 1,8,9
 539 575 539 575 253.208007812 10.2705078125 c 1,10,-1
 85.2783203125 64.876953125 l 1,11,12
 263 407 263 407 387 807.5 c 128,-1,13
 511 1208 511 1208 531.745117188 1451.07519531 c 1,0,-1
EndSplineSet
EndChar

StartChar: afii57401
Encoding: 1641 1641 68
Width: 1274
VWidth: 2510
GlyphClass: 2
Flags: W
LayerCount: 2
Fore
SplineSet
967.12109375 9.8017578125 m 1,0,1
 883 408 883 408 856.60546875 634.423828125 c 5,2,-1
 834.611328125 634.423828125 l 6,3,4
 577 634 577 634 420.89453125 669.5 c 4,5,6
 285 700 285 700 202.603515625 790.263671875 c 4,7,8
 115 887 115 887 115.092773438 1039.29980469 c 4,9,10
 115 1220 115 1220 227.140625 1332.07226562 c 4,11,12
 405 1512 405 1512 677.16015625 1458.59277344 c 4,13,14
 970.487986492 1401.52132154 970.487986492 1401.52132154 997.715820312 1031.32226562 c 4,15,16
 1040 472 1040 472 1157.66699219 9.8017578125 c 1,17,-1
 967.12109375 9.8017578125 l 1,0,1
840.173828125 808.736328125 m 5,18,-1
 830.5 940.72265625 l 6,19,20
 805 1292 805 1292 570.280273438 1292.37695312 c 4,21,22
 442 1293 442 1293 365.301757812 1218.34082031 c 4,23,24
 289 1144 289 1144 288.8515625 1040.9453125 c 4,25,26
 289 938 289 938 360.87890625 879.409179688 c 4,27,28
 448.3262555 808.736328125 448.3262555 808.736328125 815.45703125 808.736328125 c 6,29,-1
 840.173828125 808.736328125 l 5,18,-1
EndSplineSet
EndChar

StartChar: afii57381
Encoding: 1642 1642 69
Width: 1326
VWidth: 2510
GlyphClass: 2
Flags: W
LayerCount: 2
Fore
SplineSet
891.431640625 198.358398438 m 128,-1,1
 891.431640625 258.4296875 891.431640625 258.4296875 932.845703125 299.84375 c 128,-1,2
 974.259765625 341.2578125 974.259765625 341.2578125 1033.80664062 341.2578125 c 0,3,4
 1094.40429688 341.2578125 1094.40429688 341.2578125 1135.81835938 299.84375 c 128,-1,5
 1177.23242188 258.4296875 1177.23242188 258.4296875 1177.23242188 198.8828125 c 0,6,7
 1177.23242188 178.646484375 1177.23242188 178.646484375 1172.63476562 160.5859375 c 128,-1,8
 1168.03808594 142.526367188 1168.03808594 142.526367188 1158.83886719 126.610351562 c 128,-1,9
 1149.640625 110.694335938 1149.640625 110.694335938 1135.81835938 96.8720703125 c 0,10,11
 1115.08398438 76.1376953125 1115.08398438 76.1376953125 1089.87988281 65.7978515625 c 128,-1,12
 1064.67675781 55.4580078125 1064.67675781 55.4580078125 1034.85742188 55.4580078125 c 0,13,14
 974.259765625 55.4580078125 974.259765625 55.4580078125 932.845703125 96.8720703125 c 128,-1,0
 891.431640625 138.286132812 891.431640625 138.286132812 891.431640625 198.358398438 c 128,-1,1
159.606445312 1387.77734375 m 0,15,16
 159.606445312 1447.84960938 159.606445312 1447.84960938 201.020507812 1489.26367188 c 128,-1,17
 242.434570312 1530.67773438 242.434570312 1530.67773438 301.981445312 1530.67773438 c 0,18,19
 322.217773438 1530.67773438 322.217773438 1530.67773438 340.278320312 1526.08007812 c 128,-1,20
 358.337890625 1521.48339844 358.337890625 1521.48339844 374.25390625 1512.28417969 c 128,-1,21
 390.169921875 1503.0859375 390.169921875 1503.0859375 403.9921875 1489.26367188 c 0,22,23
 424.7265625 1468.52929688 424.7265625 1468.52929688 435.06640625 1443.32519531 c 128,-1,24
 445.40625 1418.12207031 445.40625 1418.12207031 445.40625 1388.30273438 c 0,25,26
 445.40625 1327.70605469 445.40625 1327.70605469 403.9921875 1286.29199219 c 128,-1,27
 362.578125 1244.87792969 362.578125 1244.87792969 303.03125 1244.87792969 c 0,28,29
 282.794921875 1244.87792969 282.794921875 1244.87792969 264.734375 1249.47558594 c 128,-1,30
 246.674804688 1254.07226562 246.674804688 1254.07226562 230.758789062 1263.27148438 c 128,-1,31
 214.842773438 1272.46972656 214.842773438 1272.46972656 201.020507812 1286.29199219 c 0,32,33
 180.288085938 1307.02539062 180.288085938 1307.02539062 169.947265625 1332.359375 c 128,-1,34
 159.606445312 1357.69335938 159.606445312 1357.69335938 159.606445312 1387.77734375 c 0,15,16
1002.62792969 1568.55761719 m 1,35,-1
 1128.75390625 1501.83203125 l 1,36,-1
 355.713867188 12.9150390625 l 1,37,-1
 229.74609375 75.7490234375 l 1,38,-1
 1002.62792969 1568.55761719 l 1,35,-1
EndSplineSet
EndChar

StartChar: uni066B
Encoding: 1643 1643 70
Width: 650
VWidth: 2510
GlyphClass: 2
Flags: W
LayerCount: 2
Fore
SplineSet
427.755859375 712.59375 m 5,0,-1
 554 659 l 5,1,-1
 153.685546875 -264.748046875 l 5,2,-1
 25.6611328125 -209.03125 l 5,3,-1
 427.755859375 712.59375 l 5,0,-1
EndSplineSet
EndChar

StartChar: uni066C
Encoding: 1644 1644 71
Width: 501
VWidth: 2417
GlyphClass: 2
Flags: W
LayerCount: 2
Fore
SplineSet
99.68359375 135.924804688 m 0,0,1
 101 267 101 267 246.481445312 267.423828125 c 0,2,3
 377 268 377 268 401.265625 152.063476562 c 0,4,5
 414 90 414 90 391.086914062 -1.748046875 c 0,6,7
 340 -197 340 -197 160.608398438 -342.108398438 c 5,8,-1
 103.810546875 -305.802734375 l 5,9,10
 255 -157 255 -157 266.3984375 -0.0244140625 c 1,11,12
 225 -1 225 -1 207.661132812 3.0732421875 c 0,13,14
 99 25 99 25 99.68359375 135.924804688 c 0,0,1
EndSplineSet
EndChar

StartChar: afii63167
Encoding: 1645 1645 72
Width: 1346
VWidth: 2510
GlyphClass: 2
Flags: W
LayerCount: 2
Fore
SplineSet
172.576171875 897.29296875 m 1,0,-1
 558.2265625 897.29296875 l 1,1,-1
 678.672851562 1264.01074219 l 1,2,-1
 799.120117188 897.29296875 l 1,3,-1
 1184.77050781 897.29296875 l 1,4,-1
 873.201171875 669.524414062 l 1,5,-1
 992.391601562 303.361328125 l 1,6,-1
 678.672851562 530.056640625 l 1,7,-1
 364.955078125 303.361328125 l 1,8,-1
 484.14453125 669.524414062 l 1,9,-1
 172.576171875 897.29296875 l 1,0,-1
EndSplineSet
EndChar

StartChar: uni066E
Encoding: 1646 1646 73
Width: 1875
VWidth: 2510
GlyphClass: 2
Flags: W
AnchorPoint: "Anchor-10" 872.464 1208.79 basechar 0
AnchorPoint: "Anchor-7" 872.464 -210.167 basechar 0
LayerCount: 2
Fore
SplineSet
605.264648438 212.235351562 m 0,0,1
 729 187 729 187 921 187.008789062 c 0,2,3
 1170 188 1170 188 1278.88769531 214.296875 c 0,4,5
 1590 288 1590 288 1588.27929688 574.0546875 c 4,6,7
 1588 621 1588 621 1562.81835938 758.001953125 c 5,8,-1
 1730.78125 793.293945312 l 5,9,10
 1766 681 1766 681 1766.24609375 557.760742188 c 4,11,12
 1766 341 1766 341 1650.99890086 208 c 0,13,14
 1471 0 1471 0 920 0 c 0,15,16
 381 0 381 0 210.239257812 216.740234375 c 0,17,18
 103 353 103 353 102.80859375 553.34375 c 4,19,20
 103 682 103 682 139.721679688 786.572265625 c 5,21,-1
 296.5234375 757.97265625 l 5,22,23
 274 648 274 648 274.956350772 571 c 4,24,25
 279 279 279 279 605.264648438 212.235351562 c 0,0,1
EndSplineSet
Substitution2: "'init' Initial Forms in Arabic lookup 13 subtable" uni066E.init
Substitution2: "'medi' Medial Forms in Arabic lookup 11 subtable" uni066E.medi
Substitution2: "'fina' Terminal Forms in Arabic lookup 9 subtable" uni066E.fina
EndChar

StartChar: uni066F
Encoding: 1647 1647 74
Width: 1460
VWidth: 2510
GlyphClass: 2
Flags: W
AnchorPoint: "Anchor-10" 150.965 1201.87 basechar 0
AnchorPoint: "Anchor-7" 332.011 -674.755 basechar 0
LayerCount: 2
Fore
SplineSet
1343.62597656 91.408203125 m 24,0,1
 1291 -414 1291 -414 726.051757812 -413.049804688 c 0,2,3
 114 -411 114 -411 114.599609375 187.633789062 c 4,4,5
 115 388 115 388 184.692382812 592.5703125 c 1,6,-1
 350.022460938 546.325195312 l 1,7,8
 287 360 287 360 286.677734375 180.392578125 c 0,9,10
 288 -238 288 -238 733.556640625 -237.618164062 c 0,11,12
 1153 -237 1153 -237 1178.97949219 111.87890625 c 1,13,-1
 1124.21386719 104.340820312 l 2,14,15
 827 63 827 63 731.915039062 183.939453125 c 0,16,17
 670 263 670 263 664.447265625 370.170898438 c 0,18,19
 654 591 654 591 781.159179688 734.013671875 c 0,20,21
 863 826 863 826 979.248046875 831.936523438 c 0,22,23
 1322 849 1322 849 1341.58691406 339.858398438 c 0,24,25
 1349 146 1349 146 1343.62597656 91.408203125 c 24,0,1
1113.53222656 271.864257812 m 2,26,-1
 1177.33203125 281.041992188 l 1,27,-1
 1176.95410156 289.440429688 l 2,28,29
 1161 652 1161 652 988.41015625 641.778320312 c 0,30,31
 931 638 931 638 891.651367188 591.8984375 c 0,32,33
 826 516 826 516 831.508789062 405.825195312 c 0,34,35
 840 232 840 232 1113.53222656 271.864257812 c 2,26,-1
EndSplineSet
Substitution2: "'init' Initial Forms in Arabic lookup 13 subtable" uni066F.init
Substitution2: "'medi' Medial Forms in Arabic lookup 11 subtable" uni066F.medi
Substitution2: "'fina' Terminal Forms in Arabic lookup 9 subtable" uni066F.fina
EndChar

StartChar: uni0670
Encoding: 1648 1648 75
Width: -28
VWidth: 2417
GlyphClass: 4
Flags: W
AnchorPoint: "Anchor-10" 597.995 1412.51 mark 0
AnchorPoint: "Anchor-9" 597.995 1412.51 mark 0
AnchorPoint: "Anchor-1" 597.995 1963.18 basemark 0
AnchorPoint: "Anchor-1" 597.995 1412.51 mark 0
LayerCount: 2
Fore
SplineSet
553.356445312 1472.27539062 m 1,0,-1
 553.356445312 1903.4140625 l 1,1,-1
 642.633789062 1903.4140625 l 1,2,-1
 642.633789062 1472.27539062 l 1,3,-1
 553.356445312 1472.27539062 l 1,0,-1
EndSplineSet
EndChar

StartChar: uni0674
Encoding: 1652 1652 76
Width: 705
VWidth: 2510
GlyphClass: 2
Flags: W
LayerCount: 2
Fore
SplineSet
242.40625 1772.83300781 m 1,0,1
 143.530273438 1838.63365769 143.530273438 1838.63365769 143.530273438 1943.38964844 c 128,-1,2
 143.530273438 2048.3203125 143.530273438 2048.3203125 212.212890625 2108.58886719 c 128,-1,3
 281.012695312 2168.9609375 281.012695312 2168.9609375 372.583496094 2169.27392578 c 128,-1,4
 464.154296875 2169.58691406 464.154296875 2169.58691406 537.651367188 2128.6796875 c 1,5,-1
 537.651367188 2008.49902344 l 1,6,7
 391.4453125 2074.63476562 391.4453125 2074.63476562 306.977539062 2025.67089844 c 0,8,9
 263.099575745 2000.23794896 263.099575745 2000.23794896 258.971679688 1952.97167969 c 0,10,11
 250.940429688 1861.01074219 250.940429688 1861.01074219 375.109375 1823.39648438 c 0,12,13
 408.862304688 1811.94238281 408.862304688 1811.94238281 563.563476562 1846.54589844 c 1,14,-1
 563.563476562 1721.64355469 l 1,15,-1
 141.063476562 1626.79003906 l 1,16,-1
 141.063476562 1749.44824219 l 1,17,-1
 242.40625 1772.83300781 l 1,0,1
EndSplineSet
EndChar

StartChar: uni06A1
Encoding: 1697 1697 80
Width: 1842
VWidth: 2510
GlyphClass: 2
Flags: W
AnchorPoint: "Anchor-10" 586.985 1409.19 basechar 0
AnchorPoint: "Anchor-7" 571.995 -290.748 basechar 0
LayerCount: 2
Fore
SplineSet
1513.5625 531.63671875 m 2,0,-1
 1577.36230469 540.814453125 l 1,1,-1
 1576.984375 549.212890625 l 2,2,3
 1561 912 1561 912 1388.44042969 901.55078125 c 0,4,5
 1331 898 1331 898 1291.68164062 851.670898438 c 0,6,7
 1227 776 1227 776 1231.5390625 665.59765625 c 0,8,9
 1240 492 1240 492 1513.5625 531.63671875 c 2,0,-1
1741.6171875 599.630859375 m 24,10,11
 1764 154 1764 154 1389.75390625 51.8125 c 0,12,13
 1197 -1 1197 -1 900.962890625 0.349609375 c 24,14,15
 379 3 379 3 210.239257812 216.740234375 c 0,16,17
 103 353 103 353 102.80859375 553.34375 c 0,18,19
 103 682 103 682 139.721679688 786.572265625 c 1,20,-1
 296.5234375 747.97265625 l 1,21,22
 274 639 274 639 274.956054688 571 c 0,23,24
 279 279 279 279 605.264648438 212.235351562 c 0,25,26
 729 187 729 187 923.27734375 187.25 c 0,27,28
 1083 187 1083 187 1108.52246094 188.484375 c 0,29,30
 1277 198 1277 198 1359.95214844 218.7421875 c 0,31,32
 1522 259 1522 259 1579.00976562 369.651367188 c 1,33,-1
 1524.24414062 362.11328125 l 2,34,35
 1236 322 1236 322 1131.9453125 453.711914062 c 0,36,37
 1069 534 1069 534 1064.47753906 629.943359375 c 0,38,39
 1054 849 1054 849 1181.18945312 993.786132812 c 0,40,41
 1263 1086 1263 1086 1379.27832031 1091.70898438 c 0,42,43
 1716 1108 1716 1108 1741.6171875 599.630859375 c 24,10,11
EndSplineSet
Substitution2: "'init' Initial Forms in Arabic lookup 13 subtable" uni06A1.init
Substitution2: "'medi' Medial Forms in Arabic lookup 11 subtable" uni06A1.medi
Substitution2: "'fina' Terminal Forms in Arabic lookup 9 subtable" uni06A1.fina
EndChar

StartChar: uni06A9
Encoding: 1705 1705 81
Width: 1897
VWidth: 2510
GlyphClass: 2
Flags: W
AnchorPoint: "Anchor-10" 436.442 1382.73 basechar 0
AnchorPoint: "Anchor-7" 555.216 -298.591 basechar 0
LayerCount: 2
Fore
SplineSet
923.27734375 187.25 m 4,0,-1
 1204.19335938 187.3828125 l 5,1,2
 1515 186 1515 186 1522.26757812 338.1953125 c 4,3,4
 1523 354 1523 354 1519.89746094 370.532226562 c 4,5,6
 1489 551 1489 551 1022.62011719 849.668945312 c 4,7,8
 936 905 936 905 935.500799206 1027.29961009 c 4,9,10
 935.000843785 1159.77641622 935.000843785 1159.77641622 1060.84863281 1204.74511719 c 6,11,-1
 1852.97070312 1487.79101562 l 5,12,-1
 1852.97070312 1305.15722656 l 5,13,-1
 1088.67480469 1039.31054688 l 5,14,15
 1448 778 1448 778 1522.38476562 698.171875 c 4,16,17
 1673 535 1673 535 1685.83984375 401.127929688 c 4,18,19
 1698 269 1698 269 1642.08872605 178.843201541 c 4,20,21
 1529.82639891 -0.276989276704 1529.82639891 -0.276989276704 1251.8359375 0 c 6,22,-1
 900.962890625 0.349609375 l 4,23,24
 382 -1 382 -1 210.239257812 216.740234375 c 4,25,26
 103 353 103 353 102.80859375 553.34375 c 4,27,28
 103 682 103 682 139.721679688 786.572265625 c 5,29,-1
 296.5234375 747.97265625 l 5,30,31
 274 639 274 639 274.956054688 571 c 4,32,33
 279 279 279 279 605.264648438 212.235351562 c 4,34,35
 729 187 729 187 923.27734375 187.25 c 4,0,-1
EndSplineSet
Substitution2: "'init' Initial Forms in Arabic lookup 13 subtable" uniFB90
Substitution2: "'medi' Medial Forms in Arabic lookup 11 subtable" uniFB91
Substitution2: "'fina' Terminal Forms in Arabic lookup 9 subtable" uniFB8F
EndChar

StartChar: afii57514
Encoding: 1722 1722 83
Width: 1456
VWidth: 2510
GlyphClass: 2
Flags: W
AnchorPoint: "Anchor-10" 679.275 1015.7 basechar 0
AnchorPoint: "Anchor-7" 705.188 -613.792 basechar 0
LayerCount: 2
Fore
SplineSet
1347.61035156 183.21875 m 0,0,1
 1347 40 1347 40 1282.30078125 -91.794921875 c 4,2,3
 1134 -393 1134 -393 717.75 -393.880859375 c 0,4,5
 423 -393 423 -393 263.57421875 -250.970703125 c 0,6,7
 92 -98 92 -98 99.544921875 178 c 0,8,9
 106 418 106 418 214.888671875 611.734375 c 1,10,-1
 375.232421875 565.000976562 l 1,11,12
 274 369 274 369 275.689453125 171 c 0,13,14
 277 -18 277 -18 388.801757812 -114.43359375 c 0,15,16
 511 -220 511 -220 728 -219.329101562 c 0,17,18
 1173 -218 1173 -218 1170.79394531 203 c 0,19,20
 1170 364 1170 364 1076.51660156 626.947265625 c 1,21,-1
 1242.6484375 683.592773438 l 1,22,23
 1348 432 1348 432 1347.61035156 183.21875 c 0,0,1
EndSplineSet
Substitution2: "'init' Initial Forms in Arabic lookup 13 subtable" uni06BA.init
Substitution2: "'medi' Medial Forms in Arabic lookup 11 subtable" uni06BA.medi
Substitution2: "'fina' Terminal Forms in Arabic lookup 9 subtable" uniFB9F
EndChar

StartChar: uni06F4
Encoding: 1780 1780 90
Width: 1239
VWidth: 2510
GlyphClass: 2
Flags: W
LayerCount: 2
Fore
SplineSet
1055.23535156 1265.31640625 m 1,0,1
 973 1289 973 1289 873.9921875 1288.95214844 c 0,2,3
 699 1289 699 1289 625.412109375 1207.94238281 c 0,4,5
 510 1081 510 1081 575.309570312 970.677734375 c 0,6,7
 603 924 603 924 678.52734375 899.461914062 c 128,-1,8
 754 875 754 875 841.178710938 875.150390625 c 0,9,10
 929 875 929 875 1121.68554688 903.359375 c 1,11,-1
 1124 733.396484375 l 1,12,13
 664 648 664 648 452.963867188 830.166992188 c 1,14,15
 491.361241801 745.608849585 491.361241801 745.608849585 524.55078125 531.182617188 c 0,16,17
 556 329 556 329 552.094726562 9.8017578125 c 1,18,-1
 378.706054688 9.8017578125 l 1,19,20
 377 504 377 504 290.95703125 856.369140625 c 0,21,22
 232 1096 232 1096 117.083984375 1375.54101562 c 1,23,-1
 284.629882812 1430.38476562 l 1,24,25
 350.221195599 1244.21055636 350.221195599 1244.21055636 395.813476562 1104.15625 c 2,26,-1
 407.088867188 1069.51953125 l 1,27,-1
 414.200195312 1105.24609375 l 2,28,29
 488 1476 488 1476 890.340820312 1458.19921875 c 0,30,31
 987 1454 987 1454 1055.23535156 1428.75976562 c 1,32,-1
 1055.23535156 1265.31640625 l 1,0,1
EndSplineSet
EndChar

StartChar: uni06F5
Encoding: 1781 1781 91
Width: 1354
VWidth: 2510
GlyphClass: 2
Flags: W
LayerCount: 2
Fore
SplineSet
428.5 184 m 132,-1,1
 567 184 567 184 622.086914062 451.010742188 c 5,2,-1
 740.935546875 450.91015625 l 5,3,4
 786 181 786 181 932.319335938 180.840820312 c 4,5,6
 1070.99325853 181.474747741 1070.99325853 181.474747741 1070.25488281 343 c 4,7,8
 1070 443 1070 443 1048.05078125 519.296875 c 4,9,10
 950 867 950 867 645.677734375 1139.4296875 c 5,11,12
 407 867 407 867 312.831054688 539.8671875 c 4,13,14
 289.385619337 458.264337462 289.385619337 458.264337462 289.241210938 355.556640625 c 4,15,16
 290 184 290 184 428.5 184 c 132,-1,1
681.7265625 190.489257812 m 5,17,18
 613 1 613 1 391.661132812 10.169921875 c 4,19,20
 110 23 110 23 124.516601562 376.831054688 c 4,21,22
 142 794 142 794 520.755859375 1261.57128906 c 5,23,-1
 472.9453125 1306.32519531 l 5,24,-1
 588.651367188 1447.71582031 l 5,25,26
 601 1436 601 1436 701.212890625 1340.9375 c 4,27,28
 1231 845 1231 845 1230.72070312 351.224609375 c 4,29,30
 1231 11 1231 11 942.3515625 10.146484375 c 4,31,32
 747 9 747 9 681.7265625 190.489257812 c 5,17,18
EndSplineSet
EndChar

StartChar: uni06F6
Encoding: 1782 1782 92
Width: 1059
VWidth: 2510
GlyphClass: 2
Flags: W
LayerCount: 2
Fore
SplineSet
479.52734375 680.559570312 m 1,0,1
 117 742 117 742 118.549804688 1051.57519531 c 0,2,3
 119 1143 119 1143 155.950195312 1219.5234375 c 0,4,5
 271 1453 271 1453 606.344726562 1449.55859375 c 0,6,7
 655 1449 655 1449 736.951171875 1435.80175781 c 1,8,-1
 712.741210938 1269.84960938 l 1,9,10
 696 1275 696 1275 608.458984375 1275.31152344 c 0,11,12
 451 1275 451 1275 368 1212.48434453 c 0,13,14
 286 1150 286 1150 286 1044 c 0,15,16
 286 923 286 923 413 864.372245893 c 0,17,18
 501 824 501 824 595.779296875 825.9921875 c 1,19,20
 800 926 800 926 955.817382812 976.177734375 c 1,21,-1
 963 792 l 1,22,23
 512 618 512 618 306.840820312 9.8017578125 c 1,24,-1
 138 63 l 5,25,26
 251 425 251 425 479.52734375 680.559570312 c 1,0,1
EndSplineSet
EndChar

StartChar: uniFB8F
Encoding: 64399 64399 107
Width: 1955
VWidth: 2510
GlyphClass: 2
Flags: W
AnchorPoint: "Anchor-10" 489.487 1350.62 basechar 0
AnchorPoint: "Anchor-7" 578.279 -245.914 basechar 0
LayerCount: 2
Fore
SplineSet
1960 0 m 2,0,-1
 1935.37597656 0 l 6,1,2
 1717 0 1717 0 1632.56835938 159.765625 c 1,3,4
 1507.79905095 0.743885185076 1507.79905095 0.743885185076 1251.171875 0.5771484375 c 2,5,-1
 900.962890625 0.349609375 l 0,6,7
 382 -1 382 -1 210.239257812 216.740234375 c 0,8,9
 103 353 103 353 102.80859375 553.34375 c 0,10,11
 103 682 103 682 139.721679688 786.572265625 c 1,12,-1
 296.5234375 747.97265625 l 1,13,14
 274 639 274 639 274.956054688 571 c 0,15,16
 279 279 279 279 605.264648438 212.235351562 c 0,17,18
 729 187 729 187 923.27734375 187.25 c 0,19,-1
 1203.53125 187.958984375 l 2,20,21
 1553 189 1553 189 1519.21679688 371.208007812 c 0,22,23
 1484 567 1484 567 1022.02441406 850.208007812 c 0,24,25
 936 903 936 903 936 1028.90625 c 0,26,27
 936 1160.94817037 936 1160.94817037 1060.18359375 1205.32226562 c 2,28,-1
 1852.3046875 1488.36816406 l 1,29,-1
 1852.3046875 1305.73242188 l 1,30,-1
 1088.01855469 1039.89257812 l 1,31,32
 1383 826 1383 826 1472 742.65234375 c 0,33,34
 1655 572 1655 572 1702.06542969 377.854492188 c 0,35,36
 1748.11839876 190.518372766 1748.11839876 190.518372766 1926.97070312 188.392578125 c 2,37,-1
 1960 188 l 2,38,39
 2035.11425781 186.998476563 2035.11425781 186.998476563 2035.11425781 103 c 2,40,-1
 2035.11425781 83 l 2,41,42
 2035 0 2035 0 1960 0 c 2,0,-1
EndSplineSet
EndChar

StartChar: uniFB9F
Encoding: 64415 64415 115
Width: 1535
VWidth: 2510
GlyphClass: 2
Flags: W
AnchorPoint: "Anchor-10" 627.731 787.311 basechar 0
AnchorPoint: "Anchor-7" 536.003 -688.148 basechar 0
LayerCount: 2
Fore
SplineSet
1540 0 m 2,0,-1
 1519.03027344 0 l 2,1,2
 1410 0 1410 0 1341.61035156 63.21875 c 1,3,4
 1341 -82 1341 -82 1282.30078125 -201.794921875 c 4,5,6
 1134 -503 1134 -503 717.75 -503.880859375 c 4,7,8
 423 -503 423 -503 263.57421875 -360.970703125 c 0,9,10
 92 -208 92 -208 99.544921875 68 c 0,11,12
 106 308 106 308 214.888671875 501.734375 c 1,13,-1
 375.232421875 455.000976562 l 1,14,15
 274 259 274 259 275.689453125 61 c 0,16,17
 277 -128 277 -128 388.801757812 -224.43359375 c 0,18,19
 509 -330 509 -330 728 -329.329101562 c 0,20,21
 1173 -329 1173 -329 1170.79394531 93 c 0,22,23
 1170 254 1170 254 1076.51660156 516.947265625 c 1,24,-1
 1238.6484375 573.592773438 l 1,25,-1
 1318.45898438 327.78125 l 2,26,27
 1364 188 1364 188 1523.78222656 188 c 2,28,-1
 1540 188 l 2,29,30
 1615.11425781 188 1615.11425781 188 1615.11425781 103 c 2,31,-1
 1615.11425781 83 l 2,32,33
 1615 0 1615 0 1540 0 c 2,0,-1
EndSplineSet
EndChar

StartChar: uniFBE8
Encoding: 64488 64488 118
Width: 669
VWidth: 2510
GlyphClass: 2
Flags: W
AnchorPoint: "Anchor-10" 329.875 1200.71 basechar 0
AnchorPoint: "Anchor-7" 321.046 -411.391 basechar 0
LayerCount: 2
Fore
SplineSet
-5.8857421875 0 m 6,0,1
 -80 0 -80 0 -80 83 c 6,2,-1
 -80 103 l 6,3,4
 -80 188 -80 188 -5.8857421875 188 c 6,5,-1
 112.87890625 188 l 2,6,7
 267 188 267 188 330.42578125 258.59765625 c 0,8,9
 387 322 387 322 385.521484375 510.201171875 c 0,10,11
 385 644 385 644 352.858398438 755.099609375 c 1,12,-1
 522.1328125 794.3125 l 1,13,14
 560 649 560 649 559.325195312 508 c 0,15,16
 558 193 558 193 417 82 c 0,17,18
 314 0 314 0 103.48046875 0 c 2,19,-1
 -5.8857421875 0 l 6,0,1
EndSplineSet
EndChar

StartChar: uniFBE9
Encoding: 64489 64489 119
Width: 749
VWidth: 2510
GlyphClass: 2
Flags: W
AnchorPoint: "Anchor-10" 325.108 1108.46 basechar 0
AnchorPoint: "Anchor-7" 374.693 -142.707 basechar 0
LayerCount: 2
Fore
SplineSet
-6.8857421875 0 m 2,0,1
 -80 0 -80 0 -80 83 c 2,2,-1
 -80 103 l 2,3,4
 -80 188 -80 188 -6.8857421875 188 c 2,5,-1
 100.640625 188 l 2,6,7
 337.557078964 188 337.557078964 188 352.759765625 360.98828125 c 6,8,-1
 376.166015625 627.323242188 l 5,9,-1
 505.649414062 627.323242188 l 5,10,-1
 531.135742188 361.001953125 l 6,11,12
 548 188 548 188 734.943359375 188 c 2,13,-1
 754 188 l 2,14,15
 829.114257812 188 829.114257812 188 829.114257812 103 c 2,16,-1
 829.114257812 83 l 2,17,18
 829 0 829 0 754 0 c 2,19,-1
 736.430664062 0 l 2,20,21
 556.821305481 -5.68434188608e-14 556.821305481 -5.68434188608e-14 441.536132812 126.25390625 c 2,22,-1
 440.047851562 127.883789062 l 1,23,-1
 438.572265625 126.2421875 l 2,24,25
 325 0 325 0 104.668945312 0 c 2,26,-1
 -6.8857421875 0 l 2,0,1
EndSplineSet
EndChar

StartChar: uniFE73
Encoding: 65139 65139 127
Width: 631
VWidth: 2510
GlyphClass: 2
Flags: W
AnchorPoint: "Anchor-10" 233.246 1465.94 basechar 0
AnchorPoint: "Anchor-7" 233.246 -138.094 basechar 0
LayerCount: 2
Fore
SplineSet
322.252929688 394.939453125 m 2,0,1
 322.252929688 316.92578125 322.252929688 316.92578125 389.891601562 249.286132812 c 0,2,3
 420.680664062 218.494140625 420.680664062 218.494140625 469.145507812 203.155273438 c 128,-1,4
 517.610351562 187.815429688 517.610351562 187.815429688 583.665039062 187.815429688 c 2,5,-1
 651.697265625 187.815429688 l 1,6,-1
 651.697265625 9.8017578125 l 1,7,-1
 515.80078125 9.8017578125 l 2,8,9
 350.745117188 9.8017578125 350.745117188 9.8017578125 244.40625 116.139648438 c 0,10,11
 144.237304688 216.30859375 144.237304688 216.30859375 144.237304688 380.1328125 c 2,12,-1
 144.237304688 408.6796875 l 1,13,-1
 322.252929688 408.6796875 l 1,14,-1
 322.252929688 394.939453125 l 2,0,1
EndSplineSet
EndChar

StartChar: uniFE8E
Encoding: 65166 65166 153
Width: 554
VWidth: 2510
GlyphClass: 2
Flags: W
AnchorPoint: "Anchor-10" 251.453 1627.04 basechar 0
AnchorPoint: "Anchor-7" 272.208 -285.697 basechar 0
LayerCount: 2
Fore
SplineSet
559 0 m 2,0,-1
 541.2890625 0 l 2,1,2
 344 0 344 0 245 142 c 0,3,4
 169.362304688 249.500416228 169.362304688 249.500416228 169.362304688 482.065429688 c 2,5,-1
 169.362304688 1473.41113281 l 5,6,-1
 342.764648438 1473.41113281 l 5,7,-1
 342.764648438 466.896484375 l 2,8,9
 343 314 343 314 395 253 c 0,10,11
 451 188 451 188 543.879882812 188 c 2,12,-1
 559 188 l 2,13,14
 634.114257812 188 634.114257812 188 634.114257812 103 c 2,15,-1
 634.114257812 83 l 2,16,17
 634 0 634 0 559 0 c 2,0,-1
EndSplineSet
EndChar

StartChar: uniFEA2
Encoding: 65186 65186 173
Width: 1397
VWidth: 2510
GlyphClass: 2
Flags: W
AnchorPoint: "Anchor-10" 594.412 1312.73 basechar 0
AnchorPoint: "Anchor-7" 451.916 -748.029 basechar 0
LayerCount: 2
Fore
SplineSet
1402 0 m 2,0,-1
 1382.99414062 0 l 6,1,2
 940 0 940 0 938.62109375 462.928710938 c 5,3,4
 926 461 926 461 908.67578125 458.911132812 c 0,5,6
 574 407 574 407 415.745117188 251.942382812 c 0,7,8
 280 120 280 120 279.740234375 -69.212890625 c 0,9,10
 279 -441 279 -441 824.987304688 -439.571289062 c 0,11,12
 1032 -439 1032 -439 1202.52539062 -382.870117188 c 1,13,-1
 1246.35058594 -542.626953125 l 1,14,15
 1076 -610 1076 -610 821.807617188 -609.55078125 c 0,16,17
 103 -608 103 -608 104.8984375 -58.83203125 c 0,18,19
 106 200 106 200 322.287109375 396.625 c 0,20,21
 514 571 514 571 851.888671875 607.4765625 c 1,22,23
 585 728 585 728 481 727 c 0,24,25
 333 725 333 725 189.366210938 566.23828125 c 1,26,-1
 59.642578125 660.540039062 l 1,27,-1
 80.9580078125 689.200195312 l 2,28,29
 246 911 246 911 492.6953125 909.120117188 c 0,30,31
 598 908 598 908 825.958007812 808.200195312 c 0,32,33
 1109 683 1109 683 1243.34765625 672.334960938 c 1,34,-1
 1236.25097656 483.813476562 l 1,35,36
 1203 489 1203 489 1093.50878906 479.606445312 c 1,37,38
 1093.99977946 185.13227048 1093.99977946 185.13227048 1382.17675781 187.815429688 c 2,39,-1
 1402 188 l 2,40,41
 1477.11425781 189.001523437 1477.11425781 189.001523437 1477.11425781 103 c 2,42,-1
 1477.11425781 83 l 2,43,44
 1477 0 1477 0 1402 0 c 2,0,-1
EndSplineSet
EndChar

StartChar: uniFEA3
Encoding: 65187 65187 174
Width: 1392
VWidth: 2510
GlyphClass: 2
Flags: W
AnchorPoint: "Anchor-10" 504.964 1260.95 basechar 0
AnchorPoint: "Anchor-7" 643.343 -293.77 basechar 0
LayerCount: 2
Fore
SplineSet
-5.8857421875 0 m 6,0,1
 -80 0 -80 0 -80 83 c 6,2,-1
 -80 103 l 6,3,4
 -80 188 -80 188 -5.8857421875 188 c 6,5,-1
 97.4736328125 188 l 2,6,7
 616 188 616 188 1010.38476562 506.609375 c 1,8,9
 860 574 860 574 707.787109375 623.801757812 c 0,10,11
 607 657 607 657 519.041992188 655.799804688 c 0,12,13
 371 654 371 654 227.408203125 495.038085938 c 1,14,-1
 97.6845703125 589.33984375 l 1,15,-1
 119 618 l 2,16,17
 283.363242252 838.998416347 283.363242252 838.998416347 530.737304688 837.919921875 c 0,18,19
 682 837 682 837 864 757 c 0,20,21
 1210 605 1210 605 1300.18554688 597.379882812 c 1,22,-1
 1285.54296875 433.174804688 l 1,23,24
 1221 437 1221 437 1037.22558594 314.689453125 c 0,25,26
 866 201 866 201 745 143.129882812 c 0,27,28
 448 0 448 0 76.2861328125 0 c 2,29,-1
 -5.8857421875 0 l 6,0,1
EndSplineSet
EndChar

StartChar: uniFEA4
Encoding: 65188 65188 175
Width: 1485
VWidth: 2510
GlyphClass: 2
Flags: W
AnchorPoint: "Anchor-10" 481.256 1279.42 basechar 0
AnchorPoint: "Anchor-7" 611.161 -284.047 basechar 0
LayerCount: 2
Fore
SplineSet
1490 0 m 6,0,-1
 1454.82617188 0 l 2,1,2
 1032 0 1032 0 1009 303 c 1,3,4
 823 181 823 181 745 143.129882812 c 0,5,6
 450 0 450 0 76.2861328125 0 c 2,7,-1
 -5.8857421875 0 l 2,8,9
 -80 0 -80 0 -80 83 c 2,10,-1
 -80 103 l 2,11,12
 -80 188 -80 188 -5.8857421875 188 c 2,13,-1
 97.4736328125 188 l 2,14,15
 615 188 615 188 1010.38476562 506.609375 c 1,16,17
 860 574 860 574 707.787109375 623.801757812 c 0,18,19
 607 657 607 657 519.041992188 655.799804688 c 0,20,21
 371 654 371 654 227.408203125 495.038085938 c 1,22,-1
 97.6845703125 589.33984375 l 1,23,-1
 119 618 l 2,24,25
 283 839 283 839 530.737304688 837.919921875 c 0,26,27
 682 837 682 837 864 757 c 0,28,29
 1210 605 1210 605 1300.18554688 597.379882812 c 1,30,-1
 1285.54296875 433.174804688 l 1,31,32
 1225 434 1225 434 1135.77441406 380.048828125 c 1,33,34
 1140 188 1140 188 1459.50292969 188 c 2,35,-1
 1490 188 l 6,36,37
 1565.11425781 188 1565.11425781 188 1565.11425781 103 c 6,38,-1
 1565.11425781 83 l 6,39,40
 1565 0 1565 0 1490 0 c 6,0,-1
EndSplineSet
EndChar

StartChar: uniFEAA
Encoding: 65194 65194 181
Width: 1144
VWidth: 2510
GlyphClass: 2
Flags: W
AnchorPoint: "Anchor-10" 415.655 1369.25 basechar 0
AnchorPoint: "Anchor-7" 373.577 -279.355 basechar 0
LayerCount: 2
Fore
SplineSet
1149 0 m 2,0,-1
 1121.75292969 0 l 6,1,2
 979 0 979 0 869.87890625 142.797851562 c 1,3,4
 753 0 753 0 407.844726562 -1.1025390625 c 0,5,6
 221 -2 221 -2 105.491210938 26.6171875 c 1,7,-1
 105.491210938 217.153320312 l 1,8,9
 262 183 262 183 422.994140625 183.424804688 c 0,10,11
 614 183 614 183 689.7578125 218.796875 c 0,12,13
 766 255 766 255 727.510742188 357.5 c 0,14,15
 700.959134823 427.554159277 700.959134823 427.554159277 660.673828125 520.884765625 c 2,16,-1
 497.586914062 898.71484375 l 1,17,-1
 658.567382812 978.857421875 l 1,18,-1
 893.3671875 440.466796875 l 2,19,20
 1003 188 1003 188 1132.34082031 188 c 2,21,-1
 1149 188 l 2,22,23
 1224.11425781 188 1224.11425781 188 1224.11425781 103 c 2,24,-1
 1224.11425781 83 l 2,25,26
 1224 0 1224 0 1149 0 c 2,0,-1
EndSplineSet
EndChar

StartChar: uniFEAE
Encoding: 65198 65198 185
Width: 897
VWidth: 2510
GlyphClass: 2
Flags: W
AnchorPoint: "Anchor-10" 501.018 933.76 basechar 0
AnchorPoint: "Anchor-7" 324.5 -737.548 basechar 0
LayerCount: 2
Fore
SplineSet
902 0 m 6,0,-1
 888.465820312 0 l 2,1,2
 775 0 775 0 730 56 c 1,3,4
 717 -86 717 -86 630 -217.09375 c 0,5,6
 463 -469 463 -469 32.9453125 -507.075195312 c 1,7,-1
 2.46484375 -337.939453125 l 1,8,9
 353 -308 353 -308 503 -95 c 0,10,11
 562 -11 562 -11 559.825195312 122 c 0,12,13
 557 313 557 313 445 504 c 1,14,-1
 606.032226562 583.5546875 l 1,15,-1
 695.124023438 362.569335938 l 2,16,17
 726 286 726 286 745 250 c 0,18,19
 778 188 778 188 870.202148438 188 c 2,20,-1
 902 188 l 6,21,22
 977.114257812 188 977.114257812 188 977.114257812 103 c 6,23,-1
 977.114257812 83 l 6,24,25
 977 0 977 0 902 0 c 6,0,-1
EndSplineSet
PairPos2: "'kern' Horizontal Kerning lookup 15-1" uniFEE7 dx=-150 dy=0 dh=-150 dv=0 dx=0 dy=0 dh=0 dv=0
PairPos2: "'kern' Horizontal Kerning lookup 15-2" uniFB90 dx=-190 dy=0 dh=-190 dv=0 dx=0 dy=0 dh=0 dv=0
PairPos2: "'kern' Horizontal Kerning lookup 15-2" uniFB8E dx=-190 dy=0 dh=-190 dv=0 dx=0 dy=0 dh=0 dv=0
PairPos2: "'kern' Horizontal Kerning lookup 15-2" uni06A9 dx=-190 dy=0 dh=-190 dv=0 dx=0 dy=0 dh=0 dv=0
PairPos2: "'kern' Horizontal Kerning lookup 15-2" uni064A dx=-50 dy=0 dh=-50 dv=0 dx=0 dy=0 dh=0 dv=0
PairPos2: "'kern' Horizontal Kerning lookup 15-2" afii57414 dx=-50 dy=0 dh=-50 dv=0 dx=0 dy=0 dh=0 dv=0
PairPos2: "'kern' Horizontal Kerning lookup 15-2" uni0649 dx=-50 dy=0 dh=-50 dv=0 dx=0 dy=0 dh=0 dv=0
PairPos2: "'kern' Horizontal Kerning lookup 15-2" uniFEEB dx=-150 dy=0 dh=-150 dv=0 dx=0 dy=0 dh=0 dv=0
PairPos2: "'kern' Horizontal Kerning lookup 15-2" uni0647 dx=-150 dy=0 dh=-150 dv=0 dx=0 dy=0 dh=0 dv=0
PairPos2: "'kern' Horizontal Kerning lookup 15-2" uni0646 dx=-50 dy=0 dh=-50 dv=0 dx=0 dy=0 dh=0 dv=0
PairPos2: "'kern' Horizontal Kerning lookup 15-2" uniFEE3 dx=-150 dy=0 dh=-150 dv=0 dx=0 dy=0 dh=0 dv=0
PairPos2: "'kern' Horizontal Kerning lookup 15-2" uni0645 dx=-150 dy=0 dh=-150 dv=0 dx=0 dy=0 dh=0 dv=0
PairPos2: "'kern' Horizontal Kerning lookup 15-2" uniFEFB dx=-120 dy=0 dh=-120 dv=0 dx=0 dy=0 dh=0 dv=0
PairPos2: "'kern' Horizontal Kerning lookup 15-2" uniFEDF dx=-120 dy=0 dh=-120 dv=0 dx=0 dy=0 dh=0 dv=0
PairPos2: "'kern' Horizontal Kerning lookup 15-2" uni0644 dx=-50 dy=0 dh=-50 dv=0 dx=0 dy=0 dh=0 dv=0
PairPos2: "'kern' Horizontal Kerning lookup 15-2" uniFEDB dx=-190 dy=0 dh=-190 dv=0 dx=0 dy=0 dh=0 dv=0
PairPos2: "'kern' Horizontal Kerning lookup 15-2" uni0643 dx=-120 dy=0 dh=-120 dv=0 dx=0 dy=0 dh=0 dv=0
PairPos2: "'kern' Horizontal Kerning lookup 15-2" uniFED7 dx=-150 dy=0 dh=-150 dv=0 dx=0 dy=0 dh=0 dv=0
PairPos2: "'kern' Horizontal Kerning lookup 15-2" uni0642 dx=-50 dy=0 dh=-50 dv=0 dx=0 dy=0 dh=0 dv=0
PairPos2: "'kern' Horizontal Kerning lookup 15-2" uniFED3 dx=-150 dy=0 dh=-150 dv=0 dx=0 dy=0 dh=0 dv=0
PairPos2: "'kern' Horizontal Kerning lookup 15-2" uni0641 dx=-150 dy=0 dh=-150 dv=0 dx=0 dy=0 dh=0 dv=0
PairPos2: "'kern' Horizontal Kerning lookup 15-2" uniFECF dx=-150 dy=0 dh=-150 dv=0 dx=0 dy=0 dh=0 dv=0
PairPos2: "'kern' Horizontal Kerning lookup 15-2" uniFECB dx=-150 dy=0 dh=-150 dv=0 dx=0 dy=0 dh=0 dv=0
PairPos2: "'kern' Horizontal Kerning lookup 15-2" uniFEC7 dx=-150 dy=0 dh=-150 dv=0 dx=0 dy=0 dh=0 dv=0
PairPos2: "'kern' Horizontal Kerning lookup 15-2" uni0638 dx=-150 dy=0 dh=-150 dv=0 dx=0 dy=0 dh=0 dv=0
PairPos2: "'kern' Horizontal Kerning lookup 15-2" uniFEC3 dx=-150 dy=0 dh=-150 dv=0 dx=0 dy=0 dh=0 dv=0
PairPos2: "'kern' Horizontal Kerning lookup 15-2" uni0637 dx=-150 dy=0 dh=-150 dv=0 dx=0 dy=0 dh=0 dv=0
PairPos2: "'kern' Horizontal Kerning lookup 15-2" uniFEBF dx=-150 dy=0 dh=-150 dv=0 dx=0 dy=0 dh=0 dv=0
PairPos2: "'kern' Horizontal Kerning lookup 15-2" uni0636 dx=-150 dy=0 dh=-150 dv=0 dx=0 dy=0 dh=0 dv=0
PairPos2: "'kern' Horizontal Kerning lookup 15-2" uniFEBB dx=-150 dy=0 dh=-150 dv=0 dx=0 dy=0 dh=0 dv=0
PairPos2: "'kern' Horizontal Kerning lookup 15-2" uni0635 dx=-150 dy=0 dh=-150 dv=0 dx=0 dy=0 dh=0 dv=0
PairPos2: "'kern' Horizontal Kerning lookup 15-2" uniFEB7 dx=-150 dy=0 dh=-150 dv=0 dx=0 dy=0 dh=0 dv=0
PairPos2: "'kern' Horizontal Kerning lookup 15-2" uni0634 dx=-150 dy=0 dh=-150 dv=0 dx=0 dy=0 dh=0 dv=0
PairPos2: "'kern' Horizontal Kerning lookup 15-2" uniFEB3 dx=-150 dy=0 dh=-150 dv=0 dx=0 dy=0 dh=0 dv=0
PairPos2: "'kern' Horizontal Kerning lookup 15-2" uni0633 dx=-150 dy=0 dh=-150 dv=0 dx=0 dy=0 dh=0 dv=0
PairPos2: "'kern' Horizontal Kerning lookup 15-2" uni0630 dx=-150 dy=0 dh=-150 dv=0 dx=0 dy=0 dh=0 dv=0
PairPos2: "'kern' Horizontal Kerning lookup 15-2" uni062F dx=-150 dy=0 dh=-150 dv=0 dx=0 dy=0 dh=0 dv=0
PairPos2: "'kern' Horizontal Kerning lookup 15-2" uniFEA7 dx=-150 dy=0 dh=-150 dv=0 dx=0 dy=0 dh=0 dv=0
PairPos2: "'kern' Horizontal Kerning lookup 15-2" uniFEA3 dx=-150 dy=0 dh=-150 dv=0 dx=0 dy=0 dh=0 dv=0
PairPos2: "'kern' Horizontal Kerning lookup 15-2" uniFE9F dx=-150 dy=0 dh=-150 dv=0 dx=0 dy=0 dh=0 dv=0
PairPos2: "'kern' Horizontal Kerning lookup 15-2" uniFE9B dx=-150 dy=0 dh=-150 dv=0 dx=0 dy=0 dh=0 dv=0
PairPos2: "'kern' Horizontal Kerning lookup 15-2" uni062B dx=-150 dy=0 dh=-150 dv=0 dx=0 dy=0 dh=0 dv=0
PairPos2: "'kern' Horizontal Kerning lookup 15-2" uniFE97 dx=-150 dy=0 dh=-150 dv=0 dx=0 dy=0 dh=0 dv=0
PairPos2: "'kern' Horizontal Kerning lookup 15-2" uni062A dx=-150 dy=0 dh=-150 dv=0 dx=0 dy=0 dh=0 dv=0
PairPos2: "'kern' Horizontal Kerning lookup 15-2" uni0629 dx=-150 dy=0 dh=-150 dv=0 dx=0 dy=0 dh=0 dv=0
PairPos2: "'kern' Horizontal Kerning lookup 15-2" uniFE91 dx=-50 dy=0 dh=-50 dv=0 dx=0 dy=0 dh=0 dv=0
PairPos2: "'kern' Horizontal Kerning lookup 15-2" uni0628 dx=-150 dy=0 dh=-150 dv=0 dx=0 dy=0 dh=0 dv=0
PairPos2: "'kern' Horizontal Kerning lookup 15-2" uni0627 dx=-120 dy=0 dh=-120 dv=0 dx=0 dy=0 dh=0 dv=0
PairPos2: "'kern' Horizontal Kerning lookup 15-2" uni0623 dx=-120 dy=0 dh=-120 dv=0 dx=0 dy=0 dh=0 dv=0
PairPos2: "'kern' Horizontal Kerning lookup 15-2" uni0622 dx=-120 dy=0 dh=-120 dv=0 dx=0 dy=0 dh=0 dv=0
PairPos2: "'kern' Horizontal Kerning lookup 15-2" uni0621 dx=-150 dy=0 dh=-150 dv=0 dx=0 dy=0 dh=0 dv=0
PairPos2: "'kern' Horizontal Kerning lookup 15-2" uniFB94 dx=-190 dy=0 dh=-190 dv=0 dx=0 dy=0 dh=0 dv=0
PairPos2: "'kern' Horizontal Kerning lookup 15-2" uniFB92 dx=-190 dy=0 dh=-190 dv=0 dx=0 dy=0 dh=0 dv=0
PairPos2: "'kern' Horizontal Kerning lookup 15-2" afii57509 dx=-190 dy=0 dh=-190 dv=0 dx=0 dy=0 dh=0 dv=0
PairPos2: "'kern' Horizontal Kerning lookup 15-2" afii57506 dx=-150 dy=0 dh=-150 dv=0 dx=0 dy=0 dh=0 dv=0
PairPos2: "'kern' Horizontal Kerning lookup 15-2" afii57440 dx=-150 dy=0 dh=-150 dv=0 dx=0 dy=0 dh=0 dv=0
PairPos2: "'kern' Horizontal Kerning lookup 15-2" uniFE8B dx=-150 dy=0 dh=-150 dv=0 dx=0 dy=0 dh=0 dv=0
EndChar

StartChar: uniFEB2
Encoding: 65202 65202 189
Width: 2575
VWidth: 2510
GlyphClass: 2
Flags: W
AnchorPoint: "Anchor-10" 731.649 1012.75 basechar 0
AnchorPoint: "Anchor-7" 455.68 -746.958 basechar 0
LayerCount: 2
Fore
SplineSet
2580 0 m 2,0,-1
 2543.71875 0 l 2,1,2
 2339 0 2339 0 2256.37402344 150.440429688 c 1,3,4
 2189 -1 2189 -1 2023.29199219 0 c 0,5,6
 1822 1 1822 1 1750.07617188 156.103515625 c 1,7,8
 1681 -1 1681 -1 1516.72753906 -0.5244140625 c 0,9,10
 1394 -0 1394 -0 1341.61035156 63.21875 c 1,11,12
 1341 -82 1341 -82 1282.30078125 -201.794921875 c 0,13,14
 1133 -505 1133 -505 716.75 -503.880859375 c 0,15,16
 423 -503 423 -503 263.57421875 -360.970703125 c 0,17,18
 92 -208 92 -208 99.544921875 68 c 0,19,20
 106 308 106 308 214.888671875 501.734375 c 1,21,-1
 375.232421875 455.000976562 l 1,22,23
 274 259 274 259 275.689453125 61 c 0,24,25
 277 -128 277 -128 388.801757812 -224.43359375 c 0,26,27
 511 -330 511 -330 728 -329.329101562 c 0,28,29
 1173 -328 1173 -328 1170.79394531 93 c 0,30,31
 1170 254 1170 254 1076.51660156 516.947265625 c 1,32,-1
 1238.6484375 573.592773438 l 1,33,-1
 1318.45898438 327.78125 l 2,34,35
 1364 189 1364 189 1515.80566406 188.063476562 c 0,36,37
 1653.7840827 187.001661595 1653.7840827 187.001661595 1668.140625 352.611328125 c 2,38,-1
 1688.60253906 588.649414062 l 1,39,-1
 1822.55175781 588.649414062 l 1,40,-1
 1846.71972656 355.260742188 l 6,41,42
 1864 186 1864 186 2020.60253906 187.288085938 c 0,43,44
 2148.55676538 187.997542436 2148.55676538 187.997542436 2160.19042969 365.215820312 c 2,45,-1
 2178.05273438 637.31640625 l 1,46,-1
 2308.09179688 637.31640625 l 1,47,-1
 2328.23144531 367.904296875 l 2,48,49
 2342 188 2342 188 2546.6328125 188 c 2,50,-1
 2580 188 l 2,51,52
 2655.11425781 188 2655.11425781 188 2655.11425781 103 c 2,53,-1
 2655.11425781 83 l 2,54,55
 2655 0 2655 0 2580 0 c 2,0,-1
EndSplineSet
EndChar

StartChar: uniFEB3
Encoding: 65203 65203 190
Width: 1643
VWidth: 2510
GlyphClass: 2
Flags: W
AnchorPoint: "Anchor-10" 844.089 1095.79 basechar 0
AnchorPoint: "Anchor-7" 909.978 -310.491 basechar 0
LayerCount: 2
Fore
SplineSet
-5.8857421875 0 m 2,0,1
 -80 0 -80 0 -80 83 c 2,2,-1
 -80 103 l 2,3,4
 -80 188 -80 188 -5.8857421875 188 c 2,5,-1
 111.588867188 188 l 2,6,7
 326.698355344 188 326.698355344 188 345.669921875 356.890625 c 6,8,-1
 371.499023438 586.829101562 l 5,9,-1
 497.431640625 586.829101562 l 5,10,-1
 519.797851562 362.229492188 l 6,11,12
 537 188 537 188 706.546875 187.197265625 c 0,13,14
 838.877001663 187.000183184 838.877001663 187.000183184 859.109375 357.370117188 c 6,15,-1
 886.458984375 587.671875 l 5,16,-1
 1013.640625 587.671875 l 5,17,-1
 1039.85839844 356.553710938 l 6,18,19
 1059 186 1059 186 1211.3984375 187.35546875 c 0,20,21
 1285 188 1285 188 1331 261 c 0,22,23
 1373 327 1373 327 1363.04101562 487.404296875 c 0,24,25
 1354 640 1354 640 1326.37792969 732.302734375 c 1,26,-1
 1496.65234375 771.515625 l 1,27,28
 1533 633 1533 633 1536.84472656 485.203125 c 0,29,30
 1544 226 1544 226 1442 111 c 0,31,32
 1343 0 1343 0 1202 0 c 0,33,34
 1001 0 1001 0 941.5390625 156.373046875 c 1,35,36
 874 -1 874 -1 701.0078125 -0.0419921875 c 0,37,38
 517 1 517 1 430.810546875 157.375 c 1,39,40
 354 0 354 0 111.403320312 0 c 2,41,-1
 -5.8857421875 0 l 2,0,1
EndSplineSet
EndChar

StartChar: uniFEB4
Encoding: 65204 65204 191
Width: 1766
VWidth: 2504
GlyphClass: 2
Flags: W
AnchorPoint: "Anchor-10" 732.828 1090.02 basechar 0
AnchorPoint: "Anchor-7" 818.752 -280.508 basechar 0
LayerCount: 2
Fore
SplineSet
-5.8857421875 0 m 2,0,1
 -80 0 -80 0 -80 83 c 2,2,-1
 -80 103 l 2,3,4
 -80 188 -80 188 -5.8857421875 188 c 2,5,-1
 111.588867188 188 l 2,6,7
 326.698355344 188 326.698355344 188 345.669921875 356.890625 c 6,8,-1
 371.499023438 586.829101562 l 5,9,-1
 497.431640625 586.829101562 l 5,10,-1
 519.797851562 362.229492188 l 6,11,12
 537 187 537 187 706.546875 187.197265625 c 0,13,14
 838.877001663 187.000183184 838.877001663 187.000183184 859.109375 357.370117188 c 6,15,-1
 886.458984375 587.671875 l 5,16,-1
 1013.640625 587.671875 l 5,17,-1
 1039.85839844 356.553710938 l 6,18,19
 1059 187 1059 187 1211.02441406 187.6640625 c 0,20,21
 1339.21093307 188.000553702 1339.21093307 188.000553702 1354.0859375 351.583984375 c 6,22,-1
 1379.21679688 627.953125 l 5,23,-1
 1504.984375 627.953125 l 5,24,-1
 1530.47363281 347.951171875 l 6,25,26
 1545 188 1545 188 1746.25976562 188 c 2,27,-1
 1771 188 l 2,28,29
 1846.11425781 188 1846.11425781 188 1846.11425781 103 c 2,30,-1
 1846.11425781 83 l 2,31,32
 1846 0 1846 0 1771 0 c 2,33,-1
 1727.76171875 0 l 2,34,35
 1515 0 1515 0 1444.55859375 151.69140625 c 1,36,37
 1374 1 1374 1 1199.91796875 1.025390625 c 0,38,39
 1009 1 1009 1 941.5390625 158.373046875 c 1,40,41
 874 -1 874 -1 701.0078125 -0.0419921875 c 0,42,43
 517 1 517 1 430.810546875 157.375 c 1,44,45
 354 0 354 0 111.403320312 0 c 2,46,-1
 -5.8857421875 0 l 2,0,1
EndSplineSet
EndChar

StartChar: uniFEBA
Encoding: 65210 65210 197
Width: 2641
VWidth: 2510
GlyphClass: 2
Flags: W
AnchorPoint: "Anchor-10" 545.807 972.391 basechar 0
AnchorPoint: "Anchor-7" 426.683 -667.994 basechar 0
LayerCount: 2
Fore
SplineSet
2646 0 m 2,0,-1
 2625.33496094 0 l 2,1,2
 2401 0 2401 0 2297.85351562 137.422851562 c 1,3,4
 2109 0 2109 0 1679.41210938 0 c 2,5,-1
 1590.0078125 0 l 2,6,7
 1423.28668756 1.42108547152e-14 1423.28668756 1.42108547152e-14 1384.328125 63.86328125 c 2,8,-1
 1383.74609375 64.8173828125 l 1,9,-1
 1341.61035156 63.21875 l 1,10,11
 1341 -82 1341 -82 1282.30078125 -201.794921875 c 4,12,13
 1134 -503 1134 -503 716.75 -503.880859375 c 4,14,15
 423 -503 423 -503 263.57421875 -360.970703125 c 0,16,17
 92 -208 92 -208 99.544921875 68 c 0,18,19
 106 308 106 308 214.888671875 501.734375 c 1,20,-1
 375.232421875 455.000976562 l 1,21,22
 274 259 274 259 275.689453125 61 c 0,23,24
 277 -128 277 -128 388.801757812 -224.43359375 c 0,25,26
 511 -330 511 -330 728 -329.329101562 c 0,27,28
 1173 -328 1173 -328 1170.79394531 93 c 0,29,30
 1170 254 1170 254 1076.51660156 516.947265625 c 1,31,-1
 1238.6484375 573.592773438 l 1,32,-1
 1318.45898438 327.78125 l 2,33,34
 1345 246 1345 246 1403.56835938 242.961914062 c 1,35,36
 1692 814 1692 814 2067.71582031 812.731445312 c 0,37,38
 2238 812 2238 812 2333.18847656 721 c 0,39,40
 2437 621 2437 621 2438.3125 435 c 0,41,42
 2439 347 2439 347 2408.41308594 276.163085938 c 1,43,44
 2500 188 2500 188 2628.01074219 188 c 2,45,-1
 2646 188 l 2,46,47
 2721.11425781 188 2721.11425781 188 2721.11425781 103 c 2,48,-1
 2721.11425781 83 l 2,49,50
 2721 0 2721 0 2646 0 c 2,0,-1
1556.25878906 189.298828125 m 1,51,-1
 1782.33984375 189.298828125 l 2,52,53
 2261 189 2261 189 2261.43847656 424.434570312 c 0,54,55
 2261 627 2261 627 2053.15722656 627.348632812 c 0,56,57
 1822 627 1822 627 1556.25878906 189.298828125 c 1,51,-1
EndSplineSet
EndChar

StartChar: uniFEBB
Encoding: 65211 65211 198
Width: 1650
VWidth: 2510
GlyphClass: 2
Flags: W
AnchorPoint: "Anchor-10" 630.956 1187.3 basechar 0
AnchorPoint: "Anchor-7" 608.025 -259.753 basechar 0
LayerCount: 2
Fore
SplineSet
-5.8857421875 0 m 2,0,1
 -80 0 -80 0 -80 83 c 2,2,-1
 -80 103 l 2,3,4
 -80 188 -80 188 -5.8857421875 188 c 2,5,-1
 35.892578125 188 l 2,6,7
 253.774383042 188 253.774383042 188 269.40625 379.240234375 c 2,8,-1
 290.552734375 637.946289062 l 5,9,-1
 419.814453125 637.946289062 l 1,10,-1
 440.583007812 386.646484375 l 2,11,12
 449 281 449 281 514.379882812 242.961914062 c 1,13,14
 803 814 803 814 1178.52734375 812.731445312 c 0,15,16
 1349 812 1349 812 1444 721 c 0,17,18
 1548 621 1548 621 1549.12402344 435 c 0,19,20
 1551 0 1551 0 790.223632812 0 c 2,21,-1
 700.819335938 0 l 2,22,23
 444 0 444 0 357.080078125 143.163085938 c 1,24,25
 254 0 254 0 36.6337890625 0 c 2,26,-1
 -5.8857421875 0 l 2,0,1
667.0703125 189.298828125 m 1,27,-1
 893.151367188 189.298828125 l 2,28,29
 1372 189 1372 189 1372.25 424.434570312 c 0,30,31
 1372 627 1372 627 1163.96875 627.348632812 c 0,32,33
 933 627 933 627 667.0703125 189.298828125 c 1,27,-1
EndSplineSet
EndChar

StartChar: uniFEBC
Encoding: 65212 65212 199
Width: 1751
VWidth: 2510
GlyphClass: 2
Flags: W
AnchorPoint: "Anchor-10" 718.544 1219.32 basechar 0
AnchorPoint: "Anchor-7" 730.715 -296.653 basechar 0
LayerCount: 2
Fore
SplineSet
1756 0 m 2,0,-1
 1735.48144531 0 l 2,1,2
 1514 0 1514 0 1408 138 c 1,3,4
 1222 0 1222 0 790.223632812 0 c 2,5,-1
 700.819335938 0 l 2,6,7
 444 0 444 0 357.080078125 143.163085938 c 1,8,9
 254 0 254 0 36.6337890625 0 c 2,10,-1
 -5.8857421875 0 l 2,11,12
 -80 0 -80 0 -80 83 c 2,13,-1
 -80 103 l 2,14,15
 -80 188 -80 188 -5.8857421875 188 c 2,16,-1
 35.892578125 188 l 2,17,18
 253.774383042 188 253.774383042 188 269.40625 379.240234375 c 2,19,-1
 290.552734375 637.946289062 l 5,20,-1
 419.814453125 637.946289062 l 1,21,-1
 440.583007812 386.646484375 l 2,22,23
 449 282 449 282 514.379882812 242.961914062 c 1,24,25
 803 814 803 814 1178.52734375 812.731445312 c 0,26,27
 1350 812 1350 812 1444 722 c 0,28,29
 1549 621 1549 621 1549.12402344 435 c 0,30,31
 1549 348 1549 348 1518.55957031 276.740234375 c 1,32,33
 1609 188 1609 188 1740.15722656 188 c 2,34,-1
 1756 188 l 2,35,36
 1831.11425781 188 1831.11425781 188 1831.11425781 103 c 2,37,-1
 1831.11425781 83 l 2,38,39
 1831 0 1831 0 1756 0 c 2,0,-1
667.0703125 189.298828125 m 1,40,-1
 893.151367188 189.298828125 l 2,41,42
 1372 189 1372 189 1372.25 424.434570312 c 0,43,44
 1372 627 1372 627 1163.96875 627.348632812 c 0,45,46
 933 627 933 627 667.0703125 189.298828125 c 1,40,-1
EndSplineSet
EndChar

StartChar: uniFEC2
Encoding: 65218 65218 205
Width: 1547
VWidth: 2510
GlyphClass: 2
Flags: W
AnchorPoint: "Anchor-7" 600.286 -302 basechar 0
AnchorPoint: "Anchor-10" 399.92 1652.6 basechar 0
LayerCount: 2
Fore
SplineSet
1552 0 m 2,0,-1
 1530.48144531 0 l 2,1,2
 1310 0 1310 0 1203 138 c 1,3,4
 1016 0 1016 0 587 0 c 2,5,-1
 104.625976562 0 l 1,6,-1
 104.625976562 187.249023438 l 1,7,-1
 277.7421875 187.3828125 l 1,8,9
 307 240 307 240 336.595703125 293.24609375 c 1,10,-1
 336.595703125 1474.00585938 l 5,11,-1
 509.997070312 1474.00585938 l 5,12,-1
 509.997070312 538.314453125 l 17,13,14
 727 814 727 814 975.303710938 812.731445312 c 0,15,16
 1146 812 1146 812 1240.77636719 721 c 0,17,18
 1345 621 1345 621 1345.90039062 435 c 0,19,20
 1346 346 1346 346 1315 275.623046875 c 1,21,22
 1405 188 1405 188 1529.15722656 188 c 2,23,-1
 1552 188 l 2,24,25
 1627.11425781 188 1627.11425781 188 1627.11425781 103 c 2,26,-1
 1627.11425781 83 l 2,27,28
 1627 0 1627 0 1552 0 c 2,0,-1
463.846679688 189.298828125 m 1,29,-1
 689.927734375 189.298828125 l 2,30,31
 1169 189 1169 189 1169.02636719 424.434570312 c 0,32,33
 1169 627 1169 627 960.745117188 627.348632812 c 0,34,35
 730 627 730 627 463.846679688 189.298828125 c 1,29,-1
EndSplineSet
EndChar

StartChar: uniFEC3
Encoding: 65219 65219 206
Width: 1331
VWidth: 2510
GlyphClass: 2
Flags: W
AnchorPoint: "Anchor-10" 282.183 1658.58 basechar 0
AnchorPoint: "Anchor-7" 475.014 -296.653 basechar 0
LayerCount: 2
Fore
SplineSet
-5.8857421875 0 m 2,0,1
 -80 0 -80 0 -80 83 c 2,2,-1
 -80 103 l 2,3,4
 -80 188.279551257 -80 188.279551257 -5.8857421875 188 c 2,5,-1
 157.7421875 187.3828125 l 1,6,7
 187 240 187 240 216.595703125 293.24609375 c 1,8,-1
 216.595703125 1474.00585938 l 5,9,-1
 389.997070312 1474.00585938 l 5,10,-1
 389.997070312 538.314453125 l 17,11,12
 607 814 607 814 855.303710938 812.731445312 c 0,13,14
 1026 812 1026 812 1120.77636719 721 c 0,15,16
 1225 621 1225 621 1225.90039062 435 c 0,17,18
 1228 0 1228 0 467 0 c 2,19,-1
 -5.8857421875 0 l 2,0,1
343.846679688 189.298828125 m 1,20,-1
 569.927734375 189.298828125 l 2,21,22
 1049 189 1049 189 1049.02636719 424.434570312 c 0,23,24
 1049 627 1049 627 840.745117188 627.348632812 c 0,25,26
 610 627 610 627 343.846679688 189.298828125 c 1,20,-1
EndSplineSet
EndChar

StartChar: uniFEC4
Encoding: 65220 65220 207
Width: 1431
VWidth: 2510
GlyphClass: 2
Flags: W
AnchorPoint: "Anchor-10" 300.418 1654.05 basechar 0
AnchorPoint: "Anchor-7" 560.531 -315.103 basechar 0
LayerCount: 2
Fore
SplineSet
1436 0 m 2,0,-1
 1415.48144531 0 l 2,1,2
 1193 0 1193 0 1088 138 c 1,3,4
 901 0 901 0 472 0 c 2,5,-1
 -5.8857421875 0 l 2,6,7
 -80 0 -80 0 -80 83 c 2,8,-1
 -80 103 l 2,9,10
 -80 188 -80 188 -5.8857421875 188 c 2,11,-1
 162.7421875 188 l 1,12,13
 192 241 192 241 221.595703125 293.24609375 c 1,14,-1
 221.595703125 1472.00585938 l 5,15,-1
 394.997070312 1472.00585938 l 5,16,-1
 394.997070312 538.314453125 l 17,17,18
 612 814 612 814 860.303710938 812.731445312 c 0,19,20
 1031 812 1031 812 1125.77636719 721 c 0,21,22
 1230 621 1230 621 1230.90039062 435 c 0,23,24
 1231 346 1231 346 1200 275.623046875 c 1,25,26
 1290 188 1290 188 1420.15722656 188 c 2,27,-1
 1436 188 l 2,28,29
 1511.11425781 188 1511.11425781 188 1511.11425781 103 c 2,30,-1
 1511.11425781 83 l 2,31,32
 1511 0 1511 0 1436 0 c 2,0,-1
348.846679688 189.298828125 m 1,33,-1
 574.927734375 189.298828125 l 2,34,35
 1054 189 1054 189 1054.02636719 424.434570312 c 0,36,37
 1054 627 1054 627 845.745117188 627.348632812 c 0,38,39
 615 627 615 627 348.846679688 189.298828125 c 1,33,-1
EndSplineSet
EndChar

StartChar: uniFECA
Encoding: 65226 65226 213
Width: 1279
VWidth: 2510
GlyphClass: 2
Flags: W
AnchorPoint: "Anchor-10" 726.544 1197.42 basechar 0
AnchorPoint: "Anchor-7" 446.707 -791.129 basechar 0
LayerCount: 2
Fore
SplineSet
1284 0 m 2,0,-1
 1271.13085938 0 l 2,1,2
 905 0 905 0 622.387695312 327.051757812 c 1,3,4
 278 141 278 141 278.348632812 -98.916015625 c 0,5,6
 278 -439 278 -439 773 -439.047851562 c 0,7,8
 991 -439 991 -439 1091.74511719 -404.052734375 c 1,9,-1
 1135.58203125 -566.930664062 l 1,10,11
 1000 -615 1000 -615 777.688476562 -614.9453125 c 0,12,13
 104 -614 104 -614 104.516601562 -109.21875 c 0,14,15
 105 234 105 234 502.7578125 449.138671875 c 1,16,17
 315 604 315 604 314.115234375 744.465820312 c 0,18,19
 312.975747352 881.925672117 312.975747352 881.925672117 447.540039062 941.887695312 c 4,20,21
 560 992 560 992 720.848632812 992.112304688 c 0,22,23
 883.646912207 992.112304688 883.646912207 992.112304688 1003.34863281 935.529296875 c 0,24,25
 1114 883 1114 883 1116.83398438 761.029296875 c 0,26,27
 1120 586 1120 586 765.7578125 408.938476562 c 1,28,29
 977 188 977 188 1251.38867188 188 c 6,30,-1
 1284 188 l 2,31,32
 1359.11425781 188 1359.11425781 188 1359.11425781 103 c 2,33,-1
 1359.11425781 83 l 2,34,35
 1359 0 1359 0 1284 0 c 2,0,-1
913.178710938 736.061523438 m 0,36,37
 913 818 913 818 718.348632812 818.029296875 c 0,38,39
 524 818 524 818 523.471679688 726.077148438 c 0,40,41
 523 635 523 635 658.325195312 528.21875 c 1,42,43
 914 670 914 670 913.178710938 736.061523438 c 0,36,37
EndSplineSet
EndChar

StartChar: uniFECB
Encoding: 65227 65227 214
Width: 1131
VWidth: 2510
GlyphClass: 2
Flags: W
AnchorPoint: "Anchor-10" 489.792 1299.57 basechar 0
AnchorPoint: "Anchor-7" 454.432 -307.607 basechar 0
LayerCount: 2
Fore
SplineSet
-5.8857421875 0 m 6,0,1
 -80 0 -80 0 -80 83 c 6,2,-1
 -80 103 l 6,3,4
 -80 188 -80 188 -5.8857421875 188 c 6,5,-1
 340.051757812 187.396484375 l 1,6,7
 181 296 181 296 177.685546875 462.744140625 c 0,8,9
 173 687 173 687 355.322265625 810.494140625 c 0,10,11
 474 891 474 891 612 889.453608862 c 0,12,13
 824 888 824 888 947.901367188 756.094726562 c 1,14,-1
 884.665039062 613.815429688 l 1,15,16
 771 698 771 698 638 705 c 128,-1,17
 505 712 505 712 411.650390625 613.3359375 c 0,18,19
 355 553 355 553 353.028320312 467.581054688 c 0,20,21
 349 314 349 314 633.547851562 222.930664062 c 1,22,-1
 1027.59375 306.703125 l 1,23,-1
 1027.59375 119.073242188 l 1,24,25
 649 -0 649 -0 300.606445312 -0.0185546875 c 2,26,-1
 -5.8857421875 0 l 6,0,1
EndSplineSet
EndChar

StartChar: uniFECC
Encoding: 65228 65228 215
Width: 1074
VWidth: 2510
GlyphClass: 2
Flags: W
AnchorPoint: "Anchor-10" 535.732 1219.17 basechar 0
AnchorPoint: "Anchor-7" 518.435 -307.607 basechar 0
LayerCount: 2
Fore
SplineSet
1079 0 m 2,0,-1
 1024.328125 0.5771484375 l 2,1,2
 714 4 714 4 537.624023438 140.07421875 c 1,3,4
 374 0 374 0 47.1181640625 0 c 2,5,-1
 -5.8857421875 0 l 2,6,7
 -80 0 -80 0 -80 83 c 2,8,-1
 -80 103 l 2,9,10
 -80 188 -80 188 -5.8857421875 188 c 2,11,-1
 49.970703125 188 l 2,12,13
 317 188 317 188 402.229492188 243.651367188 c 1,14,15
 131 379 131 379 130.266601562 562.436523438 c 0,16,17
 129.999149539 698.432448345 129.999149539 698.432448345 263.69140625 759.858398438 c 0,18,19
 375 810 375 810 537 810.083007812 c 4,20,21
 701.707491435 809.081746466 701.707491435 809.081746466 819.5 753.5 c 0,22,23
 930 701 930 701 932.985351562 579 c 0,24,25
 937 415 937 415 671.909179688 246.909179688 c 1,26,27
 772 188 772 188 1019 188 c 2,28,-1
 1079 188 l 2,29,30
 1154.11425781 188 1154.11425781 188 1154.11425781 103 c 2,31,-1
 1154.11425781 83 l 2,32,33
 1154 -1 1154 -1 1079 0 c 2,0,-1
729.330078125 554.032226562 m 0,34,35
 729 636 729 636 534.5 636 c 128,-1,36
 340 636 340 636 339.623046875 544.047851562 c 0,37,38
 339 459 339 459 534.4765625 352.189453125 c 1,39,40
 730 459 730 459 729.330078125 554.032226562 c 0,34,35
EndSplineSet
EndChar

StartChar: uniFEDA
Encoding: 65242 65242 229
Width: 1977
VWidth: 2510
GlyphClass: 2
Flags: W
AnchorPoint: "Anchor-10" 669.378 1559.35 basechar 0
AnchorPoint: "Anchor-7" 901.162 -261.481 basechar 0
LayerCount: 2
Fore
SplineSet
689.111798923 749.009278616 m 2,0,1
 782.492960701 736.998467692 782.492960701 736.998467692 857.086914062 736.766601562 c 0,2,3
 893 737 893 737 925.5 740.5 c 0,4,5
 953 743 953 743 985.189453125 754.849609375 c 0,6,7
 1025 769 1025 769 1055.24853516 799.248095029 c 0,8,9
 1078 822 1078 822 1078.33105469 846.543945312 c 0,10,11
 1078 903 1078 903 974.309313231 918.394754634 c 0,12,13
 886 932 886 932 840.40277347 981.977169655 c 128,-1,14
 795 1032 795 1032 796.838988851 1115.51043584 c 0,15,16
 802.01036653 1326.42279435 802.01036653 1326.42279435 1178.83693852 1352.7116771 c 2,17,-1
 1194.88085938 1353.83096322 l 1,18,-1
 1194.88085938 1228.68577214 l 1,19,-1
 1181.04921046 1227.60514101 l 2,20,21
 1097 1221 1097 1221 1039.83518754 1203.29032845 c 0,22,23
 981 1185 981 1185 948.293145436 1157.38503767 c 0,24,25
 926 1139 926 1139 925.99609375 1113.69238281 c 0,26,27
 926 1078 926 1078 952.282408297 1056.53442248 c 0,28,29
 979 1035 979 1035 1036.89281957 1026.20179276 c 0,30,31
 1091 1018 1091 1018 1129.0650617 998.934452306 c 128,-1,32
 1167 980 1167 980 1186.88601049 948.258212206 c 0,33,34
 1207 917 1207 917 1207.02636719 874.553710938 c 0,35,36
 1207 724 1207 724 1071.40722656 649.126953125 c 0,37,38
 937.612723753 574.784812195 937.612723753 574.784812195 684.798491968 615.758633989 c 2,39,-1
 672.198242188 617.800767398 l 1,40,-1
 672.198242188 751.184723085 l 1,41,-1
 689.111798923 749.009278616 l 2,0,1
1982 0 m 2,42,-1
 1919.43945312 0 l 18,43,44
 1725 0 1725 0 1588.29003906 126.745117188 c 1,45,46
 1521 82 1521 82 1417.96679688 49.69140625 c 0,47,48
 1264 1 1264 1 900.962890625 0.349609375 c 24,49,50
 382 -1 382 -1 210.239257812 216.740234375 c 0,51,52
 103 353 103 353 102.80859375 553.34375 c 0,53,54
 103 682 103 682 139.721679688 786.572265625 c 1,55,-1
 296.5234375 747.97265625 l 1,56,57
 274 639 274 639 274.956054688 571 c 0,58,59
 279 278 279 278 605.264648438 212.235351562 c 0,60,61
 746 184 746 184 923.27734375 187.25 c 24,62,63
 1101 190 1101 190 1174.88964844 195.995117188 c 0,64,65
 1577 229 1577 229 1571.86035156 499.584960938 c 1,66,-1
 1571.86035156 1474.484375 l 5,67,-1
 1743.5625 1474.484375 l 5,68,-1
 1743.5625 465.356445312 l 1,69,70
 1745 361 1745 361 1707.73828125 281.631835938 c 1,71,72
 1777 188 1777 188 1916.8984375 188 c 10,73,-1
 1982 188 l 2,74,75
 2057.11425781 188 2057.11425781 188 2057.11425781 103 c 2,76,-1
 2057.11425781 83 l 2,77,78
 2057 0 2057 0 1982 0 c 2,42,-1
EndSplineSet
EndChar

StartChar: uniFEDB
Encoding: 65243 65243 230
Width: 985
VWidth: 2510
GlyphClass: 2
Flags: W
AnchorPoint: "Anchor-10" 244.923 1573.77 basechar 0
AnchorPoint: "Anchor-7" 353.896 -268.978 basechar 0
LayerCount: 2
Fore
SplineSet
-5.8857421875 0 m 6,0,1
 -80 0 -80 0 -80 83 c 6,2,-1
 -80 103 l 6,3,4
 -80 188 -80 188 -5.8857421875 188 c 6,5,-1
 293.221679688 188 l 2,6,7
 643 188 643 188 608.907226562 370.647460938 c 0,8,9
 574 556 574 556 111.73046875 849.624023438 c 0,10,11
 26 904 26 904 25.8955078125 1022.19628906 c 0,12,13
 26 1160 26 1160 149.877929688 1204.74511719 c 2,14,-1
 941.998046875 1487.79101562 l 1,15,-1
 941.998046875 1305.15722656 l 1,16,-1
 177.67578125 1039.29882812 l 1,17,18
 534 782 534 782 611.409179688 698.173828125 c 0,19,20
 876 410 876 410 720.736328125 164.681640625 c 0,21,22
 616 0 616 0 340.865234375 0 c 2,23,-1
 -5.8857421875 0 l 6,0,1
EndSplineSet
EndChar

StartChar: uniFEDC
Encoding: 65244 65244 231
Width: 1034
VWidth: 2510
GlyphClass: 2
Flags: W
AnchorPoint: "Anchor-10" 254.148 1541.47 basechar 0
AnchorPoint: "Anchor-7" 372.346 -345.085 basechar 0
LayerCount: 2
Fore
SplineSet
1039 0 m 2,0,-1
 1025.0546875 0 l 6,1,2
 808 0 808 0 722.263671875 159.180664062 c 1,3,4
 599 0 599 0 340.865234375 0 c 2,5,-1
 -5.8857421875 0 l 2,6,7
 -80 0 -80 0 -80 83 c 2,8,-1
 -80 103 l 2,9,10
 -80 188 -80 188 -5.8857421875 188 c 2,11,-1
 293.221679688 188 l 2,12,13
 642 188 642 188 608.913085938 370.611328125 c 0,14,15
 573 565 573 565 111.72265625 849.627929688 c 0,16,17
 27 902 27 902 25.7900390625 1022.40429688 c 0,18,19
 25 1085 25 1085 57.2037764751 1133.30531062 c 0,20,21
 90.3015008468 1183.4568511 90.3015008468 1183.4568511 149.877929688 1204.74511719 c 2,22,-1
 941.998046875 1487.79101562 l 1,23,-1
 941.998046875 1305.15722656 l 1,24,-1
 177.6875 1039.30371094 l 1,25,26
 455 839 455 839 560 742 c 0,27,28
 736 579 736 579 791.200351273 377.905277653 c 0,29,30
 843 188 843 188 1016.66308594 188 c 2,31,-1
 1039 188 l 2,32,33
 1114.11425781 188 1114.11425781 188 1114.11425781 103 c 2,34,-1
 1114.11425781 83 l 2,35,36
 1114 0 1114 0 1039 0 c 2,0,-1
EndSplineSet
EndChar

StartChar: uniFEDE
Encoding: 65246 65246 233
Width: 1531
VWidth: 2510
GlyphClass: 2
Flags: W
AnchorPoint: "Anchor-10" 511.974 1011.6 basechar 0
AnchorPoint: "Anchor-7" 412.617 -808.998 basechar 0
LayerCount: 2
Fore
SplineSet
1536 0 m 2,0,-1
 1505.23632812 0 l 2,1,2
 1359.28391164 5.68434188608e-14 1359.28391164 5.68434188608e-14 1294.12988281 65.40234375 c 2,3,-1
 1290.79882812 68.74609375 l 1,4,-1
 1290.71289062 64.02734375 l 2,5,6
 1285 -227 1285 -227 1136.61621094 -386.153320312 c 0,7,8
 987.699644812 -544.381666637 987.699644812 -544.381666637 708.75 -543.880859375 c 0,9,10
 434 -543 434 -543 273.57421875 -400.970703125 c 4,11,12
 102 -248 102 -248 109.544921875 28 c 0,13,14
 116 268 116 268 224.888671875 461.734375 c 1,15,-1
 385.232421875 415.000976562 l 1,16,17
 284 219 284 219 285.689453125 21 c 0,18,19
 287 -168 287 -168 398.801757812 -264.43359375 c 4,20,21
 520 -369 520 -369 718 -369.329101562 c 0,22,23
 1118.61414952 -369.999354448 1118.61414952 -369.999354448 1118.05175781 49.537109375 c 2,24,-1
 1117.55566406 419.616210938 l 1,25,-1
 1117.55566406 1473.2421875 l 1,26,-1
 1289.8046875 1473.2421875 l 1,27,-1
 1289.8046875 457.866210938 l 2,28,29
 1290 188 1290 188 1488.92871094 188 c 2,30,-1
 1536 188 l 2,31,32
 1611.11425781 188 1611.11425781 188 1611.11425781 103 c 2,33,-1
 1611.11425781 83 l 2,34,35
 1611 0 1611 0 1536 0 c 2,0,-1
EndSplineSet
EndChar

StartChar: uniFEDF
Encoding: 65247 65247 234
Width: 572
VWidth: 2510
GlyphClass: 2
Flags: W
AnchorPoint: "Anchor-10" 354.5 1631.96 basechar 0
AnchorPoint: "Anchor-7" 265.464 -288.004 basechar 0
LayerCount: 2
Fore
SplineSet
-5.8857421875 0 m 2,0,1
 -80 0 -80 0 -80 83 c 2,2,-1
 -80 103 l 2,3,4
 -80 188 -80 188 -5.8857421875 188 c 2,5,-1
 53.1201171875 188 l 2,6,7
 149 188 149 188 205 253 c 0,8,9
 257.235351562 314.248628416 257.235351562 314.248628416 257.235351562 466.896484375 c 2,10,-1
 257.235351562 1473.41113281 l 5,11,-1
 430.637695312 1473.41113281 l 5,12,-1
 430.637695312 482.065429688 l 2,13,14
 431 265 431 265 365 162 c 0,15,16
 263 0 263 0 58.7109375 0 c 2,17,-1
 -5.8857421875 0 l 2,0,1
EndSplineSet
EndChar

StartChar: uniFEE0
Encoding: 65248 65248 235
Width: 670
VWidth: 2510
GlyphClass: 2
Flags: W
AnchorPoint: "Anchor-10" 336.985 1607.44 basechar 0
AnchorPoint: "Anchor-7" 281.058 -285.697 basechar 0
LayerCount: 2
Fore
SplineSet
675 0 m 2,0,-1
 639.173828125 0 l 2,1,2
 464 0 464 0 347.13671875 127.892578125 c 1,3,4
 233 0 233 0 54.060546875 0 c 2,5,-1
 -5.8857421875 0 l 2,6,7
 -80 0 -80 0 -80 83 c 2,8,-1
 -80 103 l 2,9,10
 -80 188 -80 188 -5.8857421875 188 c 2,11,-1
 46.1953125 188 l 2,12,13
 260.663085938 187.954589067 260.663085938 187.954589067 260.663085938 426.366210938 c 2,14,-1
 260.663085938 1473.33007812 l 5,15,-1
 434.06640625 1473.33007812 l 5,16,-1
 434.06640625 426.374023438 l 2,17,18
 434 188 434 188 647.036132812 188 c 2,19,-1
 675 188 l 2,20,21
 750.114257812 188 750.114257812 188 750.114257812 103 c 2,22,-1
 750.114257812 83 l 2,23,24
 750 0 750 0 675 0 c 2,0,-1
EndSplineSet
EndChar

StartChar: uniFEE2
Encoding: 65250 65250 237
Width: 1286
VWidth: 2230
GlyphClass: 2
Flags: W
AnchorPoint: "Anchor-10" 481.799 1220.89 basechar 0
AnchorPoint: "Anchor-7" 194.841 -729.328 basechar 0
LayerCount: 2
Fore
SplineSet
1291 0 m 2,0,-1
 1272.29589844 0 l 2,1,2
 1140 0 1140 0 1048.0234375 106.630859375 c 1,3,4
 960 -50 960 -50 781.295898438 -44.7744140625 c 0,5,6
 541 -39 541 -39 489 172.203125 c 0,7,8
 474 234 474 234 471.5859375 330 c 4,9,10
 471 350 471 350 469.483398438 472.247070312 c 5,11,12
 277.678710938 407.892200154 277.678710938 407.892200154 277.678710938 83.302734375 c 2,13,-1
 277.678710938 -545.462890625 l 1,14,-1
 104.521484375 -545.462890625 l 1,15,-1
 104.521484375 99.681640625 l 2,16,17
 105 682 105 682 731.329101562 679.662109375 c 0,18,19
 902 679 902 679 998.127929688 623.163085938 c 0,20,21
 1127 548 1127 548 1109.02441406 290.403320312 c 0,22,-1
 1109.29492188 289.068359375 l 1,23,24
 1169 188 1169 188 1273.38769531 188 c 2,25,-1
 1291 188 l 2,26,27
 1366.11425781 188 1366.11425781 188 1366.11425781 103 c 2,28,-1
 1366.11425781 83 l 2,29,30
 1366 0 1366 0 1291 0 c 2,0,-1
624.71484375 495.41015625 m 5,31,-1
 623.56640625 413.791992188 l 6,32,33
 621 223 621 223 680.891601562 158.86328125 c 0,34,35
 719 119 719 119 800 119.158159859 c 0,36,37
 926 120 926 120 944.8515625 267.487304688 c 0,38,39
 953.465811798 338.59072345 953.465811798 338.59072345 943.872070312 404.59375 c 4,40,41
 928 511 928 511 742 506.484375 c 4,42,43
 671 505 671 505 624.71484375 495.41015625 c 5,31,-1
EndSplineSet
EndChar

StartChar: uniFEE3
Encoding: 65251 65251 238
Width: 964
VWidth: 2510
GlyphClass: 2
Flags: W
AnchorPoint: "Anchor-10" 368.806 1047.35 basechar 0
AnchorPoint: "Anchor-7" 395.725 -246.491 basechar 0
LayerCount: 2
Fore
SplineSet
-6.8857421875 188 m 2,0,-1
 16.4921875 188 l 2,1,2
 130 188 130 188 153.015625 288.12890625 c 0,3,4
 251 716 251 716 527.5 716 c 0,5,6
 701 716 701 716 789 592.356445312 c 0,7,8
 870 479 870 479 869.928710938 322 c 0,9,10
 870 163 870 163 786 66 c 0,11,12
 715.946733681 -15.06163674 715.946733681 -15.06163674 575.291992188 -15.490234375 c 0,13,14
 408 -16 408 -16 254 122 c 1,15,16
 174 0 174 0 20.220703125 0 c 2,17,-1
 -6.8857421875 0 l 2,18,19
 -80 0 -80 0 -80 83 c 2,20,-1
 -80 103 l 2,21,22
 -80 188 -80 188 -6.8857421875 188 c 2,0,-1
325.352539062 275.014648438 m 1,23,24
 452 156 452 156 560 158.731445312 c 4,25,26
 741 163 741 163 697.23046875 385 c 0,27,28
 668 535 668 535 527 533 c 0,29,30
 382 531 382 531 325.352539062 275.014648438 c 1,23,24
EndSplineSet
EndChar

StartChar: uniFEE4
Encoding: 65252 65252 239
Width: 1035
VWidth: 2510
GlyphClass: 2
Flags: W
AnchorPoint: "Anchor-10" 478.015 1171.31 basechar 0
AnchorPoint: "Anchor-7" 510.757 -268.4 basechar 0
LayerCount: 2
Fore
SplineSet
-6.8857421875 188 m 6,0,-1
 16.4921875 188 l 2,1,2
 130 188 130 188 153.015625 288.12890625 c 0,3,4
 249 706 249 706 527.5 706 c 0,5,6
 698 706 698 706 786 582.356445312 c 0,7,8
 831 520 831 520 857.59375 398 c 0,9,10
 881 292 881 292 918 241 c 0,11,12
 956 188 956 188 1026.94238281 188 c 2,13,-1
 1040 188 l 2,14,15
 1115.11425781 188 1115.11425781 188 1115.11425781 103 c 2,16,-1
 1115.11425781 83 l 2,17,18
 1115 0 1115 0 1040 0 c 2,19,-1
 1026.6875 0 l 2,20,21
 887 0 887 0 815 108 c 1,22,23
 744 -16 744 -16 575.291992188 -15.490234375 c 0,24,25
 378 -15 378 -15 252 120 c 1,26,27
 172 0 172 0 20.220703125 0 c 2,28,-1
 -6.8857421875 0 l 6,29,30
 -80 0 -80 0 -80 83 c 6,31,-1
 -80 103 l 6,32,33
 -80 188 -80 188 -6.8857421875 188 c 6,0,-1
323.352539062 273.014648438 m 1,34,35
 439 158 439 158 560 158.731445312 c 0,36,37
 740 160 740 160 697.23046875 375 c 0,38,39
 668 525 668 525 527 523 c 0,40,41
 380 521 380 521 323.352539062 273.014648438 c 1,34,35
EndSplineSet
EndChar

StartChar: uniFEEA
Encoding: 65258 65258 245
Width: 1048
VWidth: 2510
GlyphClass: 2
Flags: W
AnchorPoint: "Anchor-10" 654.109 1238.7 basechar 0
AnchorPoint: "Anchor-7" 400.556 -268.978 basechar 0
LayerCount: 2
Fore
SplineSet
1053 0 m 2,0,-1
 1032.69921875 0 l 2,1,2
 824 0 824 0 716 227 c 5,3,4
 411 133 411 133 244.411132812 229 c 0,5,6
 137 291 137 291 114.538580321 409 c 0,7,8
 108 444 108 444 107.90625 473.7890625 c 0,9,10
 109 795 109 795 607.955078125 880.01171875 c 1,11,-1
 603.270507812 918.736328125 l 1,12,-1
 769.86328125 940.3125 l 1,13,-1
 840.62890625 407.623046875 l 2,14,15
 870 188 870 188 1035.37597656 188 c 2,16,-1
 1053 188 l 2,17,18
 1128.11425781 188 1128.11425781 188 1128.11425781 103 c 2,19,-1
 1128.11425781 83 l 2,20,21
 1128 0 1128 0 1053 0 c 2,0,-1
674 394 m 5,22,-1
 629.024414062 715.086914062 l 1,23,24
 422 680 422 680 335 603.828891422 c 0,25,26
 280 555 280 555 279.872070312 490.971679688 c 0,27,28
 280 386 280 386 388 353 c 0,29,30
 499 319 499 319 674 394 c 5,22,-1
EndSplineSet
EndChar

StartChar: uniFEEB
Encoding: 65259 65259 246
Width: 1344
VWidth: 2510
GlyphClass: 2
Flags: W
AnchorPoint: "Anchor-10" 474.268 1439.1 basechar 0
AnchorPoint: "Anchor-7" 391.085 -273.528 basechar 0
LayerCount: 2
Fore
SplineSet
-5.8857421875 0 m 2,0,1
 -80 0 -80 0 -80 83 c 2,2,-1
 -80 103 l 2,3,4
 -80 188 -80 188 -5.8857421875 188 c 2,5,-1
 271 188 l 1,6,7
 146 280 146 280 147.737304688 463.619140625 c 0,8,9
 149 597 149 597 241.045898438 705.481445312 c 128,-1,10
 333 814 333 814 479 816 c 0,11,12
 639 818 639 818 735 724 c 0,13,14
 805 656 805 656 822.560546875 587.873046875 c 0,15,16
 884 348 884 348 671.137695312 188.061523438 c 1,17,18
 769 172 769 172 849.393554688 172.975585938 c 0,19,20
 1052 175 1052 175 1073.86035156 330.568359375 c 0,21,22
 1092 458 1092 458 981 570.631835938 c 0,23,24
 762 793 762 793 468.211914062 921.685546875 c 1,25,-1
 556.76171875 1076.87207031 l 1,26,27
 694 1005 694 1005 938.606445312 824.278320312 c 0,28,29
 1159 661 1159 661 1221.140625 486.25 c 0,30,31
 1252 398 1252 398 1237.60839844 291.052734375 c 0,32,33
 1214 120 1214 120 1074.75878906 51.3525390625 c 0,34,35
 861 -55 861 -55 490.125 60.8486328125 c 1,36,-1
 488.705078125 60.76171875 l 1,37,38
 354 0 354 0 -9.029296875 0 c 2,39,-1
 -5.8857421875 0 l 2,0,1
491.29296875 232.645507812 m 1,40,41
 636 281 636 281 675.067382812 436.091796875 c 0,42,43
 682 463 682 463 682.439453125 488 c 0,44,45
 684 561 684 561 631 618 c 0,46,47
 588 664 588 664 508 666.242376511 c 0,48,49
 408 669 408 669 351.590820312 580.7109375 c 0,50,51
 309 515 309 515 314.310546875 434.3515625 c 4,52,53
 324 264 324 264 480.555664062 232.654296875 c 1,54,-1
 491.29296875 232.645507812 l 1,40,41
EndSplineSet
EndChar

StartChar: uniFEEC
Encoding: 65260 65260 247
Width: 1035
VWidth: 2510
GlyphClass: 2
Flags: W
AnchorPoint: "Anchor-7" 390.415 -699.103 basechar 0
AnchorPoint: "Anchor-10" 456.007 1144.99 basechar 0
LayerCount: 2
Fore
SplineSet
1040 0 m 2,0,-1
 1019.36035156 0 l 6,1,2
 723 0 723 0 722.471679688 -467.1953125 c 1,3,-1
 601.690429688 -554.094726562 l 1,4,5
 261 -396 261 -396 195.337890625 -0 c 1,6,-1
 -5.8857421875 0 l 2,7,8
 -80 0 -80 0 -80 83 c 2,9,-1
 -80 103 l 2,10,11
 -80 187.814742049 -80 187.814742049 -5.8857421875 188 c 2,12,-1
 183.595703125 188.473632812 l 1,13,14
 202 844 202 844 563.15625 843.216796875 c 0,15,16
 660 843 660 843 727 795.221679688 c 0,17,18
 840 715 840 715 838.950195312 511.961914062 c 0,19,20
 838 318 838 318 732.333984375 191.403320312 c 0,21,22
 697 149 697 149 648.390272726 106.366653262 c 0,23,24
 600 64 600 64 521.927681472 33.9720082491 c 128,-1,25
 444 4 444 4 350.100585938 -0.615234375 c 1,26,27
 396 -227 396 -227 577.69921875 -333.840820312 c 1,28,29
 663 188 663 188 1011.37792969 188 c 2,30,-1
 1040 188 l 2,31,32
 1115.11425781 188 1115.11425781 188 1115.11425781 103 c 2,33,-1
 1115.11425781 83 l 2,34,35
 1115 0 1115 0 1040 0 c 2,0,-1
341.448242188 187.196289062 m 1,36,-1
 387.377929688 188.204101562 l 2,37,38
 501 191 501 191 579.86328125 260.2265625 c 0,39,40
 683 351 683 351 684.1484375 507.140625 c 0,41,42
 684 586 684 586 655.428710938 626.325195312 c 0,43,44
 627 667 627 667 568.677734375 667.743164062 c 0,45,46
 461 670 461 670 406.322265625 549.5078125 c 0,47,48
 352.240811269 430.529779598 352.240811269 430.529779598 341.54296875 189.33203125 c 2,49,-1
 341.448242188 187.196289062 l 1,36,-1
EndSplineSet
EndChar

StartChar: uniFEEE
Encoding: 65262 65262 249
Width: 928
VWidth: 2510
GlyphClass: 2
Flags: W
AnchorPoint: "Anchor-10" 456.208 1217.43 basechar 0
AnchorPoint: "Anchor-7" 403.113 -709.438 basechar 0
LayerCount: 2
Fore
SplineSet
933 0 m 2,0,-1
 787.640625 0.5771484375 l 0,1,2
 760 -139 760 -139 712.741210938 -212 c 0,3,4
 544 -468 544 -468 113.8671875 -509.260742188 c 1,5,-1
 82.8701171875 -338.7578125 l 1,6,7
 525 -303 525 -303 622.282226562 1.173828125 c 1,8,-1
 532.41796875 1.34375 l 2,9,10
 268 2 268 2 185.890625 115.166992188 c 0,11,12
 126 198 126 198 126.16796875 311.27734375 c 0,13,14
 126 536 126 536 252.104492188 669.827148438 c 0,15,16
 336 759 336 759 451.393554688 758.892578125 c 0,17,18
 654 759 654 759 737.794921875 582.704101562 c 0,19,20
 795.054030858 462.886938091 795.054030858 462.886938091 800.859375 241.602539062 c 2,21,-1
 802.265625 188 l 1,22,-1
 933 188 l 6,23,24
 1008.11425781 188 1008.11425781 188 1008.11425781 103 c 2,25,-1
 1008.11425781 83 l 2,26,27
 1008 -0 1008 -0 933 0 c 2,0,-1
490.166992188 189.158203125 m 0,28,29
 555 189 555 189 634.12890625 190.219726562 c 1,30,-1
 634.12890625 198.626953125 l 2,31,32
 633.999553964 570.281549068 633.999553964 570.281549068 452.008789062 568.514648438 c 0,33,34
 399 568 399 568 356.104492188 522.89453125 c 0,35,36
 295 458 295 458 294.661132812 339.395507812 c 0,37,38
 295 189 295 189 490.166992188 189.158203125 c 0,28,29
EndSplineSet
EndChar

StartChar: uniFEF0
Encoding: 65264 65264 251
Width: 1477
VWidth: 2510
GlyphClass: 2
Flags: W
AnchorPoint: "Anchor-10" 639.464 630.846 basechar 0
AnchorPoint: "Anchor-7" 403.31 -778.533 basechar 0
LayerCount: 2
Fore
SplineSet
1482 0 m 2,0,-1
 1317.61523438 0.6337890625 l 1,1,2
 1385 -41 1385 -41 1384.80566406 -131.421875 c 0,3,4
 1384 -219 1384 -219 1315.51757812 -298 c 0,5,6
 1109 -536 1109 -536 710 -534.842773438 c 0,7,8
 430 -534 430 -534 270.82421875 -391.932617188 c 0,9,10
 99 -239 99 -239 106.794921875 37.0380859375 c 0,11,12
 112 214 112 214 193.65625 378.700195312 c 1,13,-1
 354 331.966796875 l 1,14,15
 282 175 282 175 282.939453125 30.0380859375 c 0,16,17
 284 -159 284 -159 396.051757812 -255.395507812 c 0,18,19
 514 -357 514 -357 715.25 -360.291015625 c 24,20,21
 929 -364 929 -364 1092 -272 c 0,22,23
 1227 -195 1227 -195 1226.86035156 -102.284179688 c 0,24,25
 1227 -52 1227 -52 1147.58007812 0.56640625 c 1,26,-1
 924.04296875 0.7958984375 l 1,27,28
 869 7 869 7 847.104453204 93.3095157461 c 0,29,30
 825 180 825 180 856.848632812 188 c 1,31,-1
 1482 188 l 2,32,33
 1557.11425781 188 1557.11425781 188 1557.11425781 103 c 2,34,-1
 1557.11425781 83 l 6,35,36
 1557 -0 1557 -0 1482 0 c 2,0,-1
EndSplineSet
EndChar

StartChar: uniFEFB
Encoding: 65275 65275 262
Width: 1256
VWidth: 2510
GlyphClass: 3
Flags: W
AnchorPoint: "Anchor-9" 1010.38 1607.71 baselig 0
AnchorPoint: "Anchor-6" 879.233 -198.06 baselig 0
AnchorPoint: "Anchor-6" 143.881 -259.753 baselig 1
AnchorPoint: "Anchor-9" 94.599 1542.49 baselig 1
LayerCount: 2
Fore
SplineSet
1115.49316406 735.622070312 m 2,0,1
 1115.49316406 1.02865728996 1115.49316406 1.02865728996 387.234375 1 c 0,2,3
 276 1 276 1 192 10.2275390625 c 1,4,-1
 192 193.669921875 l 1,5,6
 337 174 337 174 495.732421875 188.5546875 c 1,7,8
 352 825 352 825 87.62109375 1344.5390625 c 1,9,-1
 234.063476562 1434.7265625 l 1,10,11
 501 937 501 937 660.538085938 220.198242188 c 1,12,13
 826 277 826 277 897 452 c 0,14,15
 942.927363292 565.819987288 942.927363292 565.819987288 943.014648438 818.258789062 c 2,16,-1
 943.241210938 1473.50390625 l 1,17,-1
 1115.49316406 1473.50390625 l 1,18,-1
 1115.49316406 735.622070312 l 2,0,1
EndSplineSet
LCarets2: 1 0
Ligature2: "'rlig' Required Ligatures in Arabic lookup 16 subtable" uniFEDF uniFE8E
EndChar

StartChar: uniFEFC
Encoding: 65276 65276 263
Width: 1332
VWidth: 2510
GlyphClass: 3
Flags: W
AnchorPoint: "Anchor-9" 993.27 1624.89 baselig 0
AnchorPoint: "Anchor-6" 838.101 -224.58 baselig 0
AnchorPoint: "Anchor-6" 105.052 -286.273 baselig 1
AnchorPoint: "Anchor-9" 108.064 1547.59 baselig 1
LayerCount: 2
Fore
SplineSet
1337 0 m 2,0,-1
 1303.90332031 0 l 2,1,2
 1029 0 1029 0 971.546875 269.5859375 c 1,3,4
 862 0 862 0 377.234375 1 c 0,5,6
 266 1 266 1 182 10.2275390625 c 1,7,-1
 182 193.669921875 l 1,8,9
 327 174 327 174 485.732421875 188.5546875 c 1,10,11
 342 825 342 825 77.62109375 1344.5390625 c 1,12,-1
 224.063476562 1433.7265625 l 1,13,14
 491 936 491 936 650.538085938 219.198242188 c 1,15,16
 816 276 816 276 887 452 c 0,17,18
 932.927363292 565.819987288 932.927363292 565.819987288 933.014648438 818.258789062 c 2,19,-1
 933.241210938 1473.50390625 l 5,20,-1
 1105.49316406 1473.50390625 l 5,21,-1
 1105.49316406 555.622070312 l 2,22,23
 1105 188 1105 188 1295.37988281 188 c 2,24,-1
 1337 188 l 2,25,26
 1412.11425781 188 1412.11425781 188 1412.11425781 103 c 2,27,-1
 1412.11425781 83 l 2,28,29
 1412 0 1412 0 1337 0 c 2,0,-1
EndSplineSet
LCarets2: 1 0
Ligature2: "'rlig' Required Ligatures in Arabic lookup 16 subtable" uniFEE0 uniFE8E
EndChar

StartChar: arabic_dot
Encoding: 65536 -1 264
Width: 172
VWidth: 2355
GlyphClass: 2
Flags: W
LayerCount: 2
Fore
SplineSet
129.313878317 186.600486308 m 6,0,-1
 182.752583904 133.16177922 l 6,1,2
 225.885504227 89.9398896024 225.885504227 89.9398896024 181.373197937 45.4275833126 c 6,3,-1
 127.933648554 -8.01196310548 l 6,4,5
 85.8489500737 -49.9749532948 85.8489500737 -49.9749532948 46.457844165 -10.5831462896 c 6,6,-1
 -8.41503825875 44.2907285761 l 6,7,8
 -53.9569612938 90.1388922387 -53.9569612938 90.1388922387 -9.78236442131 134.312664266 c 6,9,-1
 42.5219130354 186.615950975 l 6,10,11
 86.003020799 229.822513465 86.003020799 229.822513465 129.313878317 186.600486308 c 6,0,-1
EndSplineSet
EndChar

StartChar: arabic_2dots
Encoding: 65537 -1 265
Width: 459
VWidth: 2355
GlyphClass: 2
Flags: W
LayerCount: 2
Fore
SplineSet
415.58984375 186.600585938 m 6,0,-1
 469.029296875 133.162109375 l 6,1,2
 512.162109375 89.939453125 512.162109375 89.939453125 467.649414062 45.427734375 c 6,3,-1
 414.209960938 -8.01171875 l 6,4,5
 372.125 -49.974609375 372.125 -49.974609375 332.734375 -10.5830078125 c 6,6,-1
 277.861328125 44.291015625 l 6,7,8
 232.319335938 90.138671875 232.319335938 90.138671875 276.494140625 134.3125 c 6,9,-1
 328.797851562 186.616210938 l 6,10,11
 372.279296875 229.822265625 372.279296875 229.822265625 415.58984375 186.600585938 c 6,0,-1
129.590820312 186.600585938 m 2,12,-1
 183.029296875 133.162109375 l 2,13,14
 226.162109375 89.939453125 226.162109375 89.939453125 181.649414062 45.427734375 c 2,15,-1
 128.209960938 -8.01171875 l 2,16,17
 86.1259765625 -49.974609375 86.1259765625 -49.974609375 46.734375 -10.5830078125 c 2,18,-1
 -8.138671875 44.291015625 l 2,19,20
 -53.6806640625 90.138671875 -53.6806640625 90.138671875 -9.505859375 134.3125 c 2,21,-1
 42.798828125 186.616210938 l 2,22,23
 86.279296875 229.822265625 86.279296875 229.822265625 129.590820312 186.600585938 c 2,12,-1
EndSplineSet
EndChar

StartChar: arabic_3dots
Encoding: 65538 -1 266
Width: 459
VWidth: 2355
GlyphClass: 2
Flags: W
LayerCount: 2
Fore
SplineSet
272.58984375 421.514648438 m 2,0,-1
 326.029296875 368.076171875 l 2,1,2
 369.162109375 324.853515625 369.162109375 324.853515625 324.649414062 280.341796875 c 2,3,-1
 271.209960938 226.90234375 l 2,4,5
 229.125 184.939453125 229.125 184.939453125 189.734375 224.331054688 c 2,6,-1
 134.861328125 279.205078125 l 2,7,8
 89.3193359375 325.052734375 89.3193359375 325.052734375 133.494140625 369.2265625 c 2,9,-1
 185.797851562 421.530273438 l 2,10,11
 229.279296875 464.736328125 229.279296875 464.736328125 272.58984375 421.514648438 c 2,0,-1
415.58984375 170.600585938 m 6,12,-1
 469.029296875 117.162109375 l 6,13,14
 512.162109375 73.939453125 512.162109375 73.939453125 467.649414062 29.427734375 c 6,15,-1
 414.209960938 -24.01171875 l 6,16,17
 372.125 -65.974609375 372.125 -65.974609375 332.734375 -26.5830078125 c 6,18,-1
 277.861328125 28.291015625 l 6,19,20
 232.319335938 74.138671875 232.319335938 74.138671875 276.494140625 118.3125 c 6,21,-1
 328.797851562 170.616210938 l 6,22,23
 372.279296875 213.822265625 372.279296875 213.822265625 415.58984375 170.600585938 c 6,12,-1
129.58984375 170.600585938 m 2,24,-1
 183.029296875 117.162109375 l 2,25,26
 226.162109375 73.939453125 226.162109375 73.939453125 181.649414062 29.427734375 c 2,27,-1
 128.209960938 -24.01171875 l 2,28,29
 86.125 -65.974609375 86.125 -65.974609375 46.734375 -26.5830078125 c 2,30,-1
 -8.138671875 28.291015625 l 2,31,32
 -53.6806640625 74.138671875 -53.6806640625 74.138671875 -9.505859375 118.3125 c 2,33,-1
 42.7978515625 170.616210938 l 2,34,35
 86.279296875 213.822265625 86.279296875 213.822265625 129.58984375 170.600585938 c 2,24,-1
EndSplineSet
EndChar

StartChar: arabic_3dots_a
Encoding: 65539 -1 267
Width: 459
VWidth: 2355
GlyphClass: 2
Flags: W
LayerCount: 2
Fore
SplineSet
272.58984375 -245.567382812 m 2,0,1
 229.279296875 -288.7890625 229.279296875 -288.7890625 185.797851562 -245.583007812 c 2,2,-1
 133.494140625 -193.279296875 l 2,3,4
 89.3193359375 -149.10546875 89.3193359375 -149.10546875 134.861328125 -103.2578125 c 2,5,-1
 189.734375 -48.3837890625 l 2,6,7
 229.125 -8.9921875 229.125 -8.9921875 271.209960938 -50.955078125 c 2,8,-1
 324.649414062 -104.39453125 l 2,9,10
 369.162109375 -148.90625 369.162109375 -148.90625 326.029296875 -192.12890625 c 2,11,-1
 272.58984375 -245.567382812 l 2,0,1
415.58984375 5.3466796875 m 6,12,13
 372.279296875 -37.875 372.279296875 -37.875 328.797851562 5.3310546875 c 6,14,-1
 276.494140625 57.634765625 l 6,15,16
 232.319335938 101.80859375 232.319335938 101.80859375 277.861328125 147.65625 c 6,17,-1
 332.734375 202.530273438 l 6,18,19
 372.125 241.921875 372.125 241.921875 414.209960938 199.958984375 c 6,20,-1
 467.649414062 146.51953125 l 6,21,22
 512.162109375 102.0078125 512.162109375 102.0078125 469.029296875 58.78515625 c 6,23,-1
 415.58984375 5.3466796875 l 6,12,13
129.58984375 5.3466796875 m 2,24,25
 86.279296875 -37.875 86.279296875 -37.875 42.7978515625 5.3310546875 c 2,26,-1
 -9.505859375 57.634765625 l 2,27,28
 -53.6806640625 101.80859375 -53.6806640625 101.80859375 -8.138671875 147.65625 c 2,29,-1
 46.734375 202.530273438 l 2,30,31
 86.125 241.921875 86.125 241.921875 128.209960938 199.958984375 c 2,32,-1
 181.649414062 146.51953125 l 2,33,34
 226.162109375 102.0078125 226.162109375 102.0078125 183.029296875 58.78515625 c 2,35,-1
 129.58984375 5.3466796875 l 2,24,25
EndSplineSet
EndChar

StartChar: uni066E.fina
Encoding: 65540 -1 268
Width: 1952
VWidth: 2510
GlyphClass: 2
Flags: W
AnchorPoint: "Anchor-10" 803.022 1219.17 basechar 0
AnchorPoint: "Anchor-7" 803.022 -210.167 basechar 0
LayerCount: 2
Fore
SplineSet
1957 0 m 2,0,-1
 1916.55175781 0 l 2,1,2
 1687 0 1687 0 1616.02636719 201.373046875 c 1,3,4
 1482 2 1482 2 900.962890625 0.349609375 c 0,5,6
 382 -1 382 -1 210.239257812 216.740234375 c 0,7,8
 103 353 103 353 102.80859375 553.34375 c 0,9,10
 103 682 103 682 139.721679688 786.572265625 c 1,11,-1
 296.5234375 747.97265625 l 1,12,13
 274 639 274 639 274.956350772 571 c 0,14,15
 279 279 279 279 605.264648438 212.235351562 c 0,16,17
 729 187 729 187 923.27734375 187.25 c 0,18,19
 1259 187 1259 187 1399 256 c 0,20,21
 1552.58053606 330.795715613 1552.58053606 330.795715613 1560.44628906 466.73046875 c 2,22,-1
 1569.46875 622.655273438 l 5,23,-1
 1707.90332031 622.655273438 l 5,24,-1
 1718.15429688 457.771484375 l 2,25,26
 1729 284 1729 284 1802.59179688 225.984375 c 0,27,28
 1850 188 1850 188 1936.46289062 188 c 2,29,-1
 1957 188 l 2,30,31
 2032.11425781 188 2032.11425781 188 2032.11425781 103 c 2,32,-1
 2032.11425781 83 l 2,33,34
 2032 0 2032 0 1957 0 c 2,0,-1
EndSplineSet
EndChar

StartChar: uni06A1.fina
Encoding: 65543 -1 269
Width: 2056
VWidth: 2510
GlyphClass: 2
Flags: W
AnchorPoint: "Anchor-10" 688.982 1342.56 basechar 0
AnchorPoint: "Anchor-7" 584.045 -254.562 basechar 0
LayerCount: 2
Fore
SplineSet
2061 0 m 2,0,-1
 1995.05078125 0.5771484375 l 2,1,2
 1699 3 1699 3 1524.89746094 110.259765625 c 1,3,4
 1368.51622995 1.35949060739 1368.51622995 1.35949060739 1006.30859375 0.5771484375 c 2,5,-1
 900.962890625 0.349609375 l 1,6,7
 382 -1 382 -1 210.239257812 216.740234375 c 0,8,9
 103 353 103 353 102.80859375 553.34375 c 0,10,11
 103 682 103 682 139.721679688 786.572265625 c 1,12,-1
 296.5234375 747.97265625 l 1,13,14
 274 639 274 639 274.956350772 571 c 0,15,16
 279 279 279 279 605.264648438 212.235351562 c 0,17,18
 729 187 729 187 954.9765625 188.727539062 c 1,19,-1
 1017.98242188 188.727539062 l 2,20,21
 1221 189 1221 189 1342.16894531 217.44921875 c 1,22,23
 1175 341 1175 341 1173.77246094 540.048828125 c 0,24,25
 1173 698 1173 698 1294.79589844 790.577148438 c 0,26,27
 1393 865 1393 865 1526.79589844 865.600585938 c 0,28,29
 1670 866 1670 866 1765.79589844 794.577148438 c 0,30,31
 1880 708 1880 708 1880.39160156 547.485351562 c 0,32,33
 1881 334 1881 334 1700.03320312 215.481445312 c 5,34,35
 1829 190 1829 190 1992.2734375 188.727539062 c 6,36,-1
 2061 188 l 2,37,38
 2136.11425781 186.998476563 2136.11425781 186.998476563 2136.11425781 103 c 2,39,-1
 2136.11425781 83 l 2,40,41
 2136 -1 2136 -1 2061 0 c 2,0,-1
1392.79589844 387.965820312 m 0,42,43
 1469 299 1469 299 1528.38671875 298.96484375 c 0,44,45
 1590 299 1590 299 1666.97558594 395.45703125 c 0,46,47
 1714 455 1714 455 1713.06542969 524.577148438 c 0,48,49
 1712 585 1712 585 1658.10351562 638.221679688 c 0,50,51
 1603 692 1603 692 1527.08984375 691.196289062 c 0,52,53
 1447 691 1447 691 1394.0859375 640.223632812 c 0,54,55
 1342 589 1342 589 1341.56347656 518.487304688 c 0,56,57
 1342 448 1342 448 1392.79589844 387.965820312 c 0,42,43
EndSplineSet
EndChar

StartChar: uni06A1.init
Encoding: 65544 -1 270
Width: 899
VWidth: 2510
GlyphClass: 2
Flags: W
AnchorPoint: "Anchor-10" 455.302 1399.06 basechar 0
AnchorPoint: "Anchor-7" 405.974 -199.787 basechar 0
LayerCount: 2
Fore
SplineSet
-5.8857421875 0 m 2,0,1
 -80 0 -80 0 -80 83 c 2,2,-1
 -80 103 l 2,3,4
 -80 188 -80 188 -5.8857421875 188 c 2,5,-1
 195.728515625 187.35546875 l 2,6,7
 633.000151162 185.957575382 633.000151162 185.957575382 632.359375 365.795898438 c 2,8,-1
 632.319335938 372.677734375 l 1,9,-1
 577.553710938 365.139648438 l 2,10,11
 513.171342742 356.277888451 513.171342742 356.277888451 458 355.917088284 c 4,12,13
 265.643147976 354.659145649 265.643147976 354.659145649 185.254882812 456.73828125 c 0,14,15
 122 537 122 537 117.787109375 632.969726562 c 0,16,17
 108 853 108 853 234.499023438 996.8125 c 0,18,19
 316 1089 316 1089 432.587890625 1094.73535156 c 0,20,21
 769 1111 769 1111 794.926757812 602.657226562 c 0,22,23
 814 234 814 234 661.966796875 107.361328125 c 0,24,25
 534 0 534 0 213.947265625 0 c 2,26,-1
 -5.8857421875 0 l 2,0,1
566.872070312 534.663085938 m 2,27,-1
 630.671875 543.840820312 l 1,28,-1
 630.293945312 552.239257812 l 2,29,30
 614 915 614 915 441.75 904.577148438 c 0,31,32
 384 901 384 901 344.991210938 854.697265625 c 0,33,34
 280 779 280 779 284.848632812 668.624023438 c 0,35,36
 291.444062485 528.141450427 291.444062485 528.141450427 472 527.292460448 c 0,37,38
 514.595216788 527.092173973 514.595216788 527.092173973 566.872070312 534.663085938 c 2,27,-1
EndSplineSet
EndChar

StartChar: uni06A1.medi
Encoding: 65545 -1 271
Width: 1083
VWidth: 2510
GlyphClass: 2
Flags: W
AnchorPoint: "Anchor-10" 552.007 1157.47 basechar 0
AnchorPoint: "Anchor-7" 532.007 -199.787 basechar 0
LayerCount: 2
Fore
SplineSet
1088 0 m 2,0,-1
 992.254882812 0 l 2,1,2
 695 0 695 0 552.1015625 109.682617188 c 1,3,4
 407 0 407 0 113.512695312 0 c 2,5,-1
 -5.8857421875 0 l 2,6,7
 -80 0 -80 0 -80 83 c 2,8,-1
 -80 103 l 2,9,10
 -80 187.889721582 -80 187.889721582 -5.8857421875 188 c 2,11,-1
 95.1865234375 188.150390625 l 2,12,13
 312 188 312 188 369.373046875 216.872070312 c 1,14,15
 202 340 202 340 200.9765625 539.471679688 c 0,16,17
 200 699 200 699 322 790 c 0,18,19
 421 865 421 865 554 865.0234375 c 0,20,21
 697 865 697 865 793 794 c 0,22,23
 908 708 908 708 907.595703125 536.908203125 c 0,24,25
 908 333 908 333 727.237304688 214.904296875 c 1,26,27
 816 188 816 188 999.477539062 188 c 6,28,-1
 1088 188 l 2,29,30
 1163.11425781 188 1163.11425781 188 1163.11425781 103 c 2,31,-1
 1163.11425781 83 l 2,32,33
 1163 0 1163 0 1088 0 c 2,0,-1
420 387.388671875 m 0,34,35
 496 298 496 298 555.590820312 298.387695312 c 0,36,37
 617 298 617 298 694.1796875 394.879882812 c 0,38,39
 741 454 741 454 740.26953125 524 c 0,40,41
 739 584 739 584 685.307617188 637.64453125 c 0,42,43
 630 691 630 691 554.293945312 690.619140625 c 0,44,45
 474 690 474 690 421.290039062 639.646484375 c 0,46,47
 369 588 369 588 368.767578125 517.91015625 c 0,48,49
 369 447 369 447 420 387.388671875 c 0,34,35
EndSplineSet
EndChar

StartChar: uni066F.fina
Encoding: 65546 -1 272
Width: 1471
VWidth: 2510
GlyphClass: 2
Flags: W
AnchorPoint: "Anchor-10" 378.834 1034.08 basechar 0
AnchorPoint: "Anchor-7" 493.74 -685.058 basechar 0
LayerCount: 2
Fore
SplineSet
1476 0 m 6,0,-1
 1333.82421875 0.5771484375 l 1,1,2
 1281 -505 1281 -505 716.25 -503.880859375 c 0,3,4
 104 -502 104 -502 104.797851562 96.802734375 c 0,5,6
 105 297 105 297 174.890625 501.739257812 c 1,7,-1
 340.220703125 455.494140625 l 1,8,9
 277 269 277 269 276.875976562 89.5615234375 c 0,10,11
 278 -328 278 -328 723.754882812 -328.44921875 c 0,12,13
 1145 -328 1145 -328 1169.17773438 1.0478515625 c 1,14,-1
 1064.31347656 1.2177734375 l 2,15,16
 810 2 810 2 727.786132812 115.041015625 c 0,17,18
 668 198 668 198 668.063476562 311.151367188 c 0,19,20
 668 536 668 536 794 669.701171875 c 0,21,22
 878 759 878 759 993.2890625 758.766601562 c 0,23,24
 1196 759 1196 759 1279.69042969 582.578125 c 0,25,26
 1336.9254886 463.155470264 1336.9254886 463.155470264 1342.75488281 241.4765625 c 2,27,-1
 1344.16113281 188 l 1,28,-1
 1476 188 l 6,29,30
 1551.11425781 188 1551.11425781 188 1551.11425781 103 c 6,31,-1
 1551.11425781 83 l 6,32,33
 1551 -0 1551 -0 1476 0 c 6,0,-1
1062.0625 189.032226562 m 2,34,-1
 1176.02441406 190.09375 l 1,35,-1
 1176.02441406 198.500976562 l 2,36,37
 1176 569 1176 569 993.904296875 568.388671875 c 0,38,39
 941 568 941 568 898 522.768554688 c 0,40,41
 837 458 837 458 836.556640625 339.26953125 c 0,42,43
 837.005859375 186.935546875 837.005859375 186.935546875 1062.0625 189.032226562 c 2,34,-1
EndSplineSet
EndChar

StartChar: arabic_ring
Encoding: 65549 -1 273
Width: 474
VWidth: 2351
GlyphClass: 2
Flags: W
LayerCount: 2
Fore
SplineSet
329.008789062 157.87890625 m 128,-1,1
 364.0859375 192.955078125 364.0859375 192.955078125 364.0859375 243.598632812 c 128,-1,2
 364.0859375 294.233398438 364.0859375 294.233398438 329.061523438 329.8828125 c 128,-1,3
 294.021484375 365.548828125 294.021484375 365.548828125 255.388671875 365.548828125 c 0,4,5
 171.725585938 365.548828125 171.725585938 365.548828125 136.956054688 305.293945312 c 0,6,7
 121.337890625 278.224609375 121.337890625 278.224609375 121.337890625 235.159179688 c 0,8,9
 121.337890625 226.486328125 121.337890625 226.486328125 122.743164062 218.15234375 c 128,-1,10
 124.149414062 209.818359375 124.149414062 209.818359375 126.951171875 201.850585938 c 128,-1,11
 129.752929688 193.881835938 129.752929688 193.881835938 133.947265625 186.267578125 c 128,-1,12
 138.142578125 178.65234375 138.142578125 178.65234375 143.719726562 171.41015625 c 128,-1,13
 149.296875 164.166992188 149.296875 164.166992188 156.254882812 157.291992188 c 0,14,15
 173.685546875 140.068359375 173.685546875 140.068359375 195.294921875 131.435546875 c 128,-1,16
 216.904296875 122.801757812 216.904296875 122.801757812 242.543945312 122.801757812 c 0,17,0
 293.932617188 122.801757812 293.932617188 122.801757812 329.008789062 157.87890625 c 128,-1,1
485.735351562 244.17578125 m 0,18,19
 485.735351562 210.078125 485.735351562 210.078125 477.9140625 179.490234375 c 128,-1,20
 470.092773438 148.903320312 470.092773438 148.903320312 454.442382812 121.7890625 c 128,-1,21
 438.791992188 94.67578125 438.791992188 94.67578125 415.291992188 70.990234375 c 0,22,23
 380.046875 35.4677734375 380.046875 35.4677734375 336.938476562 17.734375 c 128,-1,24
 293.831054688 0 293.831054688 0 242.711914062 0 c 0,25,26
 140.604492188 0 140.604492188 0 70.150390625 71.0078125 c 128,-1,27
 -0.310546875 142.024414062 -0.310546875 142.024414062 -0.310546875 244.17578125 c 128,-1,28
 -0.310546875 346.322265625 -0.310546875 346.322265625 70.126953125 416.759765625 c 128,-1,29
 140.564453125 487.198242188 140.564453125 487.198242188 242.711914062 487.198242188 c 128,-1,30
 344.903320312 487.198242188 344.903320312 487.198242188 415.875 417.337890625 c 0,31,32
 485.735351562 346.366210938 485.735351562 346.366210938 485.735351562 244.17578125 c 0,18,19
EndSplineSet
EndChar

StartChar: arabic_gaf_bar
Encoding: 65550 -1 274
Width: 750
VWidth: 2351
GlyphClass: 2
Flags: W
LayerCount: 2
Fore
SplineSet
768 1818 m 5,0,-1
 -0.310546875 1542.69628906 l 1,1,-1
 -0.310546875 1647.31054688 l 1,2,-1
 768 1922.61230469 l 5,3,-1
 768 1818 l 5,0,-1
EndSplineSet
EndChar

StartChar: guillemotleft
Encoding: 171 171 284
Width: 1212
VWidth: -9
Flags: W
LayerCount: 2
Fore
SplineSet
1071.65625 944.861328125 m 1,0,-1
 1071.65625 735.103515625 l 1,1,-1
 855.264648438 580.25390625 l 2,2,3
 718.247070312 482.204101562 718.247070312 482.204101562 859.876953125 381.360351562 c 2,4,-1
 1071.65625 230.615234375 l 1,5,-1
 1071.65625 20.857421875 l 1,6,-1
 756.271484375 261.478515625 l 2,7,8
 465.727539062 483.147460938 465.727539062 483.147460938 758.7109375 706.3046875 c 2,9,-1
 1071.65625 944.861328125 l 1,0,-1
589.823242188 944.919921875 m 1,10,-1
 589.823242188 735.129882812 l 1,11,-1
 363.793945312 580.267578125 l 2,12,13
 220.450195312 482.056640625 220.450195312 482.056640625 368.408203125 381.345703125 c 2,14,-1
 589.823242188 230.588867188 l 1,15,-1
 589.823242188 20.7998046875 l 1,16,-1
 267.877929688 261.463867188 l 2,17,18
 -28.47265625 482.995117188 -28.47265625 482.995117188 270.181640625 706.309570312 c 2,19,-1
 589.823242188 944.919921875 l 1,10,-1
EndSplineSet
EndChar

StartChar: guillemotright
Encoding: 187 187 285
Width: 1212
VWidth: -9
Flags: W
LayerCount: 2
Fore
SplineSet
140.877929688 944.861328125 m 5,0,-1
 453.823242188 706.3046875 l 6,1,2
 746.806640625 483.147460938 746.806640625 483.147460938 456.262695312 261.478515625 c 6,3,-1
 140.877929688 20.857421875 l 5,4,-1
 140.877929688 230.615234375 l 5,5,-1
 352.657226562 381.360351562 l 6,6,7
 494.287109375 482.204101562 494.287109375 482.204101562 357.26953125 580.25390625 c 6,8,-1
 140.877929688 735.103515625 l 5,9,-1
 140.877929688 944.861328125 l 5,0,-1
622.7109375 944.919921875 m 5,10,-1
 942.352539062 706.309570312 l 6,11,12
 1241.00683594 482.995117188 1241.00683594 482.995117188 944.65625 261.463867188 c 6,13,-1
 622.7109375 20.7998046875 l 5,14,-1
 622.7109375 230.588867188 l 5,15,-1
 844.125976562 381.345703125 l 6,16,17
 992.083984375 482.056640625 992.083984375 482.056640625 848.740234375 580.267578125 c 6,18,-1
 622.7109375 735.129882812 l 5,19,-1
 622.7109375 944.919921875 l 5,10,-1
EndSplineSet
EndChar

StartChar: NameMe.302
Encoding: 65562 -1 294
Width: 685
VWidth: 2510
Flags: W
LayerCount: 2
Fore
SplineSet
-6.8857421875 188 m 6,0,-1
 25.1953125 188 l 2,1,2
 267.663085938 188 267.663085938 188 267.663085938 426.366210938 c 2,3,-1
 267.663085938 1184.83007812 l 1,4,-1
 441.06640625 1184.83007812 l 1,5,-1
 441.06640625 426.374023438 l 2,6,7
 441 188 441 188 663.036132812 188 c 2,8,-1
 690 188 l 2,9,10
 765.114257812 188 765.114257812 188 765.114257812 103 c 2,11,-1
 765.114257812 83 l 2,12,13
 765 0 765 0 690 0 c 2,14,-1
 656.173828125 0 l 2,15,16
 471 0 471 0 354.13671875 127.892578125 c 1,17,18
 240 0 240 0 42.060546875 0 c 2,19,-1
 -6.8857421875 0 l 6,20,21
 -80 0 -80 0 -80 83 c 6,22,-1
 -80 103 l 6,23,24
 -80 188 -80 188 -6.8857421875 188 c 6,0,-1
EndSplineSet
EndChar

StartChar: NameMe.303
Encoding: 65563 -1 295
Width: 550
VWidth: 2510
Flags: W
LayerCount: 2
Fore
SplineSet
-6.8857421875 188 m 6,0,-1
 14.9853515625 188 l 2,1,2
 118 188 118 188 168.372070312 251.95703125 c 0,3,4
 234.90234375 335.876818607 234.90234375 335.876818607 234.90234375 514.624023438 c 2,5,-1
 234.90234375 1343.47167969 l 1,6,-1
 408.3046875 1343.47167969 l 1,7,-1
 408.3046875 499.818359375 l 2,8,9
 408 0 408 0 29.8212890625 0 c 2,10,-1
 -6.8857421875 0 l 6,11,12
 -80 0 -80 0 -80 83 c 6,13,-1
 -80 103 l 6,14,15
 -80 188 -80 188 -6.8857421875 188 c 6,0,-1
EndSplineSet
EndChar

